G04 #@! TF.GenerationSoftware,KiCad,Pcbnew,5.0.2+dfsg1-1*
G04 #@! TF.CreationDate,2020-03-15T18:18:09-04:00*
G04 #@! TF.ProjectId,hx4k_pmod,6878346b-5f70-46d6-9f64-2e6b69636164,rev?*
G04 #@! TF.SameCoordinates,Original*
G04 #@! TF.FileFunction,Paste,Bot*
G04 #@! TF.FilePolarity,Positive*
%FSLAX46Y46*%
G04 Gerber Fmt 4.6, Leading zero omitted, Abs format (unit mm)*
G04 Created by KiCad (PCBNEW 5.0.2+dfsg1-1) date Sun 15 Mar 2020 06:18:09 PM EDT*
%MOMM*%
%LPD*%
G01*
G04 APERTURE LIST*
%ADD10R,0.900000X0.800000*%
%ADD11C,0.100000*%
%ADD12C,1.150000*%
%ADD13R,3.800000X2.000000*%
%ADD14R,1.500000X2.000000*%
%ADD15R,0.800000X0.900000*%
G04 APERTURE END LIST*
D10*
G04 #@! TO.C,Q2*
X32500000Y-68950000D03*
X32500000Y-67050000D03*
X34900000Y-68000000D03*
G04 #@! TD*
D11*
G04 #@! TO.C,C23*
G36*
X43024505Y-38151204D02*
X43048773Y-38154804D01*
X43072572Y-38160765D01*
X43095671Y-38169030D01*
X43117850Y-38179520D01*
X43138893Y-38192132D01*
X43158599Y-38206747D01*
X43176777Y-38223223D01*
X43193253Y-38241401D01*
X43207868Y-38261107D01*
X43220480Y-38282150D01*
X43230970Y-38304329D01*
X43239235Y-38327428D01*
X43245196Y-38351227D01*
X43248796Y-38375495D01*
X43250000Y-38399999D01*
X43250000Y-39300001D01*
X43248796Y-39324505D01*
X43245196Y-39348773D01*
X43239235Y-39372572D01*
X43230970Y-39395671D01*
X43220480Y-39417850D01*
X43207868Y-39438893D01*
X43193253Y-39458599D01*
X43176777Y-39476777D01*
X43158599Y-39493253D01*
X43138893Y-39507868D01*
X43117850Y-39520480D01*
X43095671Y-39530970D01*
X43072572Y-39539235D01*
X43048773Y-39545196D01*
X43024505Y-39548796D01*
X43000001Y-39550000D01*
X42349999Y-39550000D01*
X42325495Y-39548796D01*
X42301227Y-39545196D01*
X42277428Y-39539235D01*
X42254329Y-39530970D01*
X42232150Y-39520480D01*
X42211107Y-39507868D01*
X42191401Y-39493253D01*
X42173223Y-39476777D01*
X42156747Y-39458599D01*
X42142132Y-39438893D01*
X42129520Y-39417850D01*
X42119030Y-39395671D01*
X42110765Y-39372572D01*
X42104804Y-39348773D01*
X42101204Y-39324505D01*
X42100000Y-39300001D01*
X42100000Y-38399999D01*
X42101204Y-38375495D01*
X42104804Y-38351227D01*
X42110765Y-38327428D01*
X42119030Y-38304329D01*
X42129520Y-38282150D01*
X42142132Y-38261107D01*
X42156747Y-38241401D01*
X42173223Y-38223223D01*
X42191401Y-38206747D01*
X42211107Y-38192132D01*
X42232150Y-38179520D01*
X42254329Y-38169030D01*
X42277428Y-38160765D01*
X42301227Y-38154804D01*
X42325495Y-38151204D01*
X42349999Y-38150000D01*
X43000001Y-38150000D01*
X43024505Y-38151204D01*
X43024505Y-38151204D01*
G37*
D12*
X42675000Y-38850000D03*
D11*
G36*
X45074505Y-38151204D02*
X45098773Y-38154804D01*
X45122572Y-38160765D01*
X45145671Y-38169030D01*
X45167850Y-38179520D01*
X45188893Y-38192132D01*
X45208599Y-38206747D01*
X45226777Y-38223223D01*
X45243253Y-38241401D01*
X45257868Y-38261107D01*
X45270480Y-38282150D01*
X45280970Y-38304329D01*
X45289235Y-38327428D01*
X45295196Y-38351227D01*
X45298796Y-38375495D01*
X45300000Y-38399999D01*
X45300000Y-39300001D01*
X45298796Y-39324505D01*
X45295196Y-39348773D01*
X45289235Y-39372572D01*
X45280970Y-39395671D01*
X45270480Y-39417850D01*
X45257868Y-39438893D01*
X45243253Y-39458599D01*
X45226777Y-39476777D01*
X45208599Y-39493253D01*
X45188893Y-39507868D01*
X45167850Y-39520480D01*
X45145671Y-39530970D01*
X45122572Y-39539235D01*
X45098773Y-39545196D01*
X45074505Y-39548796D01*
X45050001Y-39550000D01*
X44399999Y-39550000D01*
X44375495Y-39548796D01*
X44351227Y-39545196D01*
X44327428Y-39539235D01*
X44304329Y-39530970D01*
X44282150Y-39520480D01*
X44261107Y-39507868D01*
X44241401Y-39493253D01*
X44223223Y-39476777D01*
X44206747Y-39458599D01*
X44192132Y-39438893D01*
X44179520Y-39417850D01*
X44169030Y-39395671D01*
X44160765Y-39372572D01*
X44154804Y-39348773D01*
X44151204Y-39324505D01*
X44150000Y-39300001D01*
X44150000Y-38399999D01*
X44151204Y-38375495D01*
X44154804Y-38351227D01*
X44160765Y-38327428D01*
X44169030Y-38304329D01*
X44179520Y-38282150D01*
X44192132Y-38261107D01*
X44206747Y-38241401D01*
X44223223Y-38223223D01*
X44241401Y-38206747D01*
X44261107Y-38192132D01*
X44282150Y-38179520D01*
X44304329Y-38169030D01*
X44327428Y-38160765D01*
X44351227Y-38154804D01*
X44375495Y-38151204D01*
X44399999Y-38150000D01*
X45050001Y-38150000D01*
X45074505Y-38151204D01*
X45074505Y-38151204D01*
G37*
D12*
X44725000Y-38850000D03*
G04 #@! TD*
D11*
G04 #@! TO.C,C34*
G36*
X67974505Y-38151204D02*
X67998773Y-38154804D01*
X68022572Y-38160765D01*
X68045671Y-38169030D01*
X68067850Y-38179520D01*
X68088893Y-38192132D01*
X68108599Y-38206747D01*
X68126777Y-38223223D01*
X68143253Y-38241401D01*
X68157868Y-38261107D01*
X68170480Y-38282150D01*
X68180970Y-38304329D01*
X68189235Y-38327428D01*
X68195196Y-38351227D01*
X68198796Y-38375495D01*
X68200000Y-38399999D01*
X68200000Y-39300001D01*
X68198796Y-39324505D01*
X68195196Y-39348773D01*
X68189235Y-39372572D01*
X68180970Y-39395671D01*
X68170480Y-39417850D01*
X68157868Y-39438893D01*
X68143253Y-39458599D01*
X68126777Y-39476777D01*
X68108599Y-39493253D01*
X68088893Y-39507868D01*
X68067850Y-39520480D01*
X68045671Y-39530970D01*
X68022572Y-39539235D01*
X67998773Y-39545196D01*
X67974505Y-39548796D01*
X67950001Y-39550000D01*
X67299999Y-39550000D01*
X67275495Y-39548796D01*
X67251227Y-39545196D01*
X67227428Y-39539235D01*
X67204329Y-39530970D01*
X67182150Y-39520480D01*
X67161107Y-39507868D01*
X67141401Y-39493253D01*
X67123223Y-39476777D01*
X67106747Y-39458599D01*
X67092132Y-39438893D01*
X67079520Y-39417850D01*
X67069030Y-39395671D01*
X67060765Y-39372572D01*
X67054804Y-39348773D01*
X67051204Y-39324505D01*
X67050000Y-39300001D01*
X67050000Y-38399999D01*
X67051204Y-38375495D01*
X67054804Y-38351227D01*
X67060765Y-38327428D01*
X67069030Y-38304329D01*
X67079520Y-38282150D01*
X67092132Y-38261107D01*
X67106747Y-38241401D01*
X67123223Y-38223223D01*
X67141401Y-38206747D01*
X67161107Y-38192132D01*
X67182150Y-38179520D01*
X67204329Y-38169030D01*
X67227428Y-38160765D01*
X67251227Y-38154804D01*
X67275495Y-38151204D01*
X67299999Y-38150000D01*
X67950001Y-38150000D01*
X67974505Y-38151204D01*
X67974505Y-38151204D01*
G37*
D12*
X67625000Y-38850000D03*
D11*
G36*
X65924505Y-38151204D02*
X65948773Y-38154804D01*
X65972572Y-38160765D01*
X65995671Y-38169030D01*
X66017850Y-38179520D01*
X66038893Y-38192132D01*
X66058599Y-38206747D01*
X66076777Y-38223223D01*
X66093253Y-38241401D01*
X66107868Y-38261107D01*
X66120480Y-38282150D01*
X66130970Y-38304329D01*
X66139235Y-38327428D01*
X66145196Y-38351227D01*
X66148796Y-38375495D01*
X66150000Y-38399999D01*
X66150000Y-39300001D01*
X66148796Y-39324505D01*
X66145196Y-39348773D01*
X66139235Y-39372572D01*
X66130970Y-39395671D01*
X66120480Y-39417850D01*
X66107868Y-39438893D01*
X66093253Y-39458599D01*
X66076777Y-39476777D01*
X66058599Y-39493253D01*
X66038893Y-39507868D01*
X66017850Y-39520480D01*
X65995671Y-39530970D01*
X65972572Y-39539235D01*
X65948773Y-39545196D01*
X65924505Y-39548796D01*
X65900001Y-39550000D01*
X65249999Y-39550000D01*
X65225495Y-39548796D01*
X65201227Y-39545196D01*
X65177428Y-39539235D01*
X65154329Y-39530970D01*
X65132150Y-39520480D01*
X65111107Y-39507868D01*
X65091401Y-39493253D01*
X65073223Y-39476777D01*
X65056747Y-39458599D01*
X65042132Y-39438893D01*
X65029520Y-39417850D01*
X65019030Y-39395671D01*
X65010765Y-39372572D01*
X65004804Y-39348773D01*
X65001204Y-39324505D01*
X65000000Y-39300001D01*
X65000000Y-38399999D01*
X65001204Y-38375495D01*
X65004804Y-38351227D01*
X65010765Y-38327428D01*
X65019030Y-38304329D01*
X65029520Y-38282150D01*
X65042132Y-38261107D01*
X65056747Y-38241401D01*
X65073223Y-38223223D01*
X65091401Y-38206747D01*
X65111107Y-38192132D01*
X65132150Y-38179520D01*
X65154329Y-38169030D01*
X65177428Y-38160765D01*
X65201227Y-38154804D01*
X65225495Y-38151204D01*
X65249999Y-38150000D01*
X65900001Y-38150000D01*
X65924505Y-38151204D01*
X65924505Y-38151204D01*
G37*
D12*
X65575000Y-38850000D03*
G04 #@! TD*
D11*
G04 #@! TO.C,C36*
G36*
X88774505Y-38151204D02*
X88798773Y-38154804D01*
X88822572Y-38160765D01*
X88845671Y-38169030D01*
X88867850Y-38179520D01*
X88888893Y-38192132D01*
X88908599Y-38206747D01*
X88926777Y-38223223D01*
X88943253Y-38241401D01*
X88957868Y-38261107D01*
X88970480Y-38282150D01*
X88980970Y-38304329D01*
X88989235Y-38327428D01*
X88995196Y-38351227D01*
X88998796Y-38375495D01*
X89000000Y-38399999D01*
X89000000Y-39300001D01*
X88998796Y-39324505D01*
X88995196Y-39348773D01*
X88989235Y-39372572D01*
X88980970Y-39395671D01*
X88970480Y-39417850D01*
X88957868Y-39438893D01*
X88943253Y-39458599D01*
X88926777Y-39476777D01*
X88908599Y-39493253D01*
X88888893Y-39507868D01*
X88867850Y-39520480D01*
X88845671Y-39530970D01*
X88822572Y-39539235D01*
X88798773Y-39545196D01*
X88774505Y-39548796D01*
X88750001Y-39550000D01*
X88099999Y-39550000D01*
X88075495Y-39548796D01*
X88051227Y-39545196D01*
X88027428Y-39539235D01*
X88004329Y-39530970D01*
X87982150Y-39520480D01*
X87961107Y-39507868D01*
X87941401Y-39493253D01*
X87923223Y-39476777D01*
X87906747Y-39458599D01*
X87892132Y-39438893D01*
X87879520Y-39417850D01*
X87869030Y-39395671D01*
X87860765Y-39372572D01*
X87854804Y-39348773D01*
X87851204Y-39324505D01*
X87850000Y-39300001D01*
X87850000Y-38399999D01*
X87851204Y-38375495D01*
X87854804Y-38351227D01*
X87860765Y-38327428D01*
X87869030Y-38304329D01*
X87879520Y-38282150D01*
X87892132Y-38261107D01*
X87906747Y-38241401D01*
X87923223Y-38223223D01*
X87941401Y-38206747D01*
X87961107Y-38192132D01*
X87982150Y-38179520D01*
X88004329Y-38169030D01*
X88027428Y-38160765D01*
X88051227Y-38154804D01*
X88075495Y-38151204D01*
X88099999Y-38150000D01*
X88750001Y-38150000D01*
X88774505Y-38151204D01*
X88774505Y-38151204D01*
G37*
D12*
X88425000Y-38850000D03*
D11*
G36*
X90824505Y-38151204D02*
X90848773Y-38154804D01*
X90872572Y-38160765D01*
X90895671Y-38169030D01*
X90917850Y-38179520D01*
X90938893Y-38192132D01*
X90958599Y-38206747D01*
X90976777Y-38223223D01*
X90993253Y-38241401D01*
X91007868Y-38261107D01*
X91020480Y-38282150D01*
X91030970Y-38304329D01*
X91039235Y-38327428D01*
X91045196Y-38351227D01*
X91048796Y-38375495D01*
X91050000Y-38399999D01*
X91050000Y-39300001D01*
X91048796Y-39324505D01*
X91045196Y-39348773D01*
X91039235Y-39372572D01*
X91030970Y-39395671D01*
X91020480Y-39417850D01*
X91007868Y-39438893D01*
X90993253Y-39458599D01*
X90976777Y-39476777D01*
X90958599Y-39493253D01*
X90938893Y-39507868D01*
X90917850Y-39520480D01*
X90895671Y-39530970D01*
X90872572Y-39539235D01*
X90848773Y-39545196D01*
X90824505Y-39548796D01*
X90800001Y-39550000D01*
X90149999Y-39550000D01*
X90125495Y-39548796D01*
X90101227Y-39545196D01*
X90077428Y-39539235D01*
X90054329Y-39530970D01*
X90032150Y-39520480D01*
X90011107Y-39507868D01*
X89991401Y-39493253D01*
X89973223Y-39476777D01*
X89956747Y-39458599D01*
X89942132Y-39438893D01*
X89929520Y-39417850D01*
X89919030Y-39395671D01*
X89910765Y-39372572D01*
X89904804Y-39348773D01*
X89901204Y-39324505D01*
X89900000Y-39300001D01*
X89900000Y-38399999D01*
X89901204Y-38375495D01*
X89904804Y-38351227D01*
X89910765Y-38327428D01*
X89919030Y-38304329D01*
X89929520Y-38282150D01*
X89942132Y-38261107D01*
X89956747Y-38241401D01*
X89973223Y-38223223D01*
X89991401Y-38206747D01*
X90011107Y-38192132D01*
X90032150Y-38179520D01*
X90054329Y-38169030D01*
X90077428Y-38160765D01*
X90101227Y-38154804D01*
X90125495Y-38151204D01*
X90149999Y-38150000D01*
X90800001Y-38150000D01*
X90824505Y-38151204D01*
X90824505Y-38151204D01*
G37*
D12*
X90475000Y-38850000D03*
G04 #@! TD*
D11*
G04 #@! TO.C,C38*
G36*
X113674505Y-38151204D02*
X113698773Y-38154804D01*
X113722572Y-38160765D01*
X113745671Y-38169030D01*
X113767850Y-38179520D01*
X113788893Y-38192132D01*
X113808599Y-38206747D01*
X113826777Y-38223223D01*
X113843253Y-38241401D01*
X113857868Y-38261107D01*
X113870480Y-38282150D01*
X113880970Y-38304329D01*
X113889235Y-38327428D01*
X113895196Y-38351227D01*
X113898796Y-38375495D01*
X113900000Y-38399999D01*
X113900000Y-39300001D01*
X113898796Y-39324505D01*
X113895196Y-39348773D01*
X113889235Y-39372572D01*
X113880970Y-39395671D01*
X113870480Y-39417850D01*
X113857868Y-39438893D01*
X113843253Y-39458599D01*
X113826777Y-39476777D01*
X113808599Y-39493253D01*
X113788893Y-39507868D01*
X113767850Y-39520480D01*
X113745671Y-39530970D01*
X113722572Y-39539235D01*
X113698773Y-39545196D01*
X113674505Y-39548796D01*
X113650001Y-39550000D01*
X112999999Y-39550000D01*
X112975495Y-39548796D01*
X112951227Y-39545196D01*
X112927428Y-39539235D01*
X112904329Y-39530970D01*
X112882150Y-39520480D01*
X112861107Y-39507868D01*
X112841401Y-39493253D01*
X112823223Y-39476777D01*
X112806747Y-39458599D01*
X112792132Y-39438893D01*
X112779520Y-39417850D01*
X112769030Y-39395671D01*
X112760765Y-39372572D01*
X112754804Y-39348773D01*
X112751204Y-39324505D01*
X112750000Y-39300001D01*
X112750000Y-38399999D01*
X112751204Y-38375495D01*
X112754804Y-38351227D01*
X112760765Y-38327428D01*
X112769030Y-38304329D01*
X112779520Y-38282150D01*
X112792132Y-38261107D01*
X112806747Y-38241401D01*
X112823223Y-38223223D01*
X112841401Y-38206747D01*
X112861107Y-38192132D01*
X112882150Y-38179520D01*
X112904329Y-38169030D01*
X112927428Y-38160765D01*
X112951227Y-38154804D01*
X112975495Y-38151204D01*
X112999999Y-38150000D01*
X113650001Y-38150000D01*
X113674505Y-38151204D01*
X113674505Y-38151204D01*
G37*
D12*
X113325000Y-38850000D03*
D11*
G36*
X111624505Y-38151204D02*
X111648773Y-38154804D01*
X111672572Y-38160765D01*
X111695671Y-38169030D01*
X111717850Y-38179520D01*
X111738893Y-38192132D01*
X111758599Y-38206747D01*
X111776777Y-38223223D01*
X111793253Y-38241401D01*
X111807868Y-38261107D01*
X111820480Y-38282150D01*
X111830970Y-38304329D01*
X111839235Y-38327428D01*
X111845196Y-38351227D01*
X111848796Y-38375495D01*
X111850000Y-38399999D01*
X111850000Y-39300001D01*
X111848796Y-39324505D01*
X111845196Y-39348773D01*
X111839235Y-39372572D01*
X111830970Y-39395671D01*
X111820480Y-39417850D01*
X111807868Y-39438893D01*
X111793253Y-39458599D01*
X111776777Y-39476777D01*
X111758599Y-39493253D01*
X111738893Y-39507868D01*
X111717850Y-39520480D01*
X111695671Y-39530970D01*
X111672572Y-39539235D01*
X111648773Y-39545196D01*
X111624505Y-39548796D01*
X111600001Y-39550000D01*
X110949999Y-39550000D01*
X110925495Y-39548796D01*
X110901227Y-39545196D01*
X110877428Y-39539235D01*
X110854329Y-39530970D01*
X110832150Y-39520480D01*
X110811107Y-39507868D01*
X110791401Y-39493253D01*
X110773223Y-39476777D01*
X110756747Y-39458599D01*
X110742132Y-39438893D01*
X110729520Y-39417850D01*
X110719030Y-39395671D01*
X110710765Y-39372572D01*
X110704804Y-39348773D01*
X110701204Y-39324505D01*
X110700000Y-39300001D01*
X110700000Y-38399999D01*
X110701204Y-38375495D01*
X110704804Y-38351227D01*
X110710765Y-38327428D01*
X110719030Y-38304329D01*
X110729520Y-38282150D01*
X110742132Y-38261107D01*
X110756747Y-38241401D01*
X110773223Y-38223223D01*
X110791401Y-38206747D01*
X110811107Y-38192132D01*
X110832150Y-38179520D01*
X110854329Y-38169030D01*
X110877428Y-38160765D01*
X110901227Y-38154804D01*
X110925495Y-38151204D01*
X110949999Y-38150000D01*
X111600001Y-38150000D01*
X111624505Y-38151204D01*
X111624505Y-38151204D01*
G37*
D12*
X111275000Y-38850000D03*
G04 #@! TD*
D11*
G04 #@! TO.C,C40*
G36*
X34924505Y-74751204D02*
X34948773Y-74754804D01*
X34972572Y-74760765D01*
X34995671Y-74769030D01*
X35017850Y-74779520D01*
X35038893Y-74792132D01*
X35058599Y-74806747D01*
X35076777Y-74823223D01*
X35093253Y-74841401D01*
X35107868Y-74861107D01*
X35120480Y-74882150D01*
X35130970Y-74904329D01*
X35139235Y-74927428D01*
X35145196Y-74951227D01*
X35148796Y-74975495D01*
X35150000Y-74999999D01*
X35150000Y-75900001D01*
X35148796Y-75924505D01*
X35145196Y-75948773D01*
X35139235Y-75972572D01*
X35130970Y-75995671D01*
X35120480Y-76017850D01*
X35107868Y-76038893D01*
X35093253Y-76058599D01*
X35076777Y-76076777D01*
X35058599Y-76093253D01*
X35038893Y-76107868D01*
X35017850Y-76120480D01*
X34995671Y-76130970D01*
X34972572Y-76139235D01*
X34948773Y-76145196D01*
X34924505Y-76148796D01*
X34900001Y-76150000D01*
X34249999Y-76150000D01*
X34225495Y-76148796D01*
X34201227Y-76145196D01*
X34177428Y-76139235D01*
X34154329Y-76130970D01*
X34132150Y-76120480D01*
X34111107Y-76107868D01*
X34091401Y-76093253D01*
X34073223Y-76076777D01*
X34056747Y-76058599D01*
X34042132Y-76038893D01*
X34029520Y-76017850D01*
X34019030Y-75995671D01*
X34010765Y-75972572D01*
X34004804Y-75948773D01*
X34001204Y-75924505D01*
X34000000Y-75900001D01*
X34000000Y-74999999D01*
X34001204Y-74975495D01*
X34004804Y-74951227D01*
X34010765Y-74927428D01*
X34019030Y-74904329D01*
X34029520Y-74882150D01*
X34042132Y-74861107D01*
X34056747Y-74841401D01*
X34073223Y-74823223D01*
X34091401Y-74806747D01*
X34111107Y-74792132D01*
X34132150Y-74779520D01*
X34154329Y-74769030D01*
X34177428Y-74760765D01*
X34201227Y-74754804D01*
X34225495Y-74751204D01*
X34249999Y-74750000D01*
X34900001Y-74750000D01*
X34924505Y-74751204D01*
X34924505Y-74751204D01*
G37*
D12*
X34575000Y-75450000D03*
D11*
G36*
X32874505Y-74751204D02*
X32898773Y-74754804D01*
X32922572Y-74760765D01*
X32945671Y-74769030D01*
X32967850Y-74779520D01*
X32988893Y-74792132D01*
X33008599Y-74806747D01*
X33026777Y-74823223D01*
X33043253Y-74841401D01*
X33057868Y-74861107D01*
X33070480Y-74882150D01*
X33080970Y-74904329D01*
X33089235Y-74927428D01*
X33095196Y-74951227D01*
X33098796Y-74975495D01*
X33100000Y-74999999D01*
X33100000Y-75900001D01*
X33098796Y-75924505D01*
X33095196Y-75948773D01*
X33089235Y-75972572D01*
X33080970Y-75995671D01*
X33070480Y-76017850D01*
X33057868Y-76038893D01*
X33043253Y-76058599D01*
X33026777Y-76076777D01*
X33008599Y-76093253D01*
X32988893Y-76107868D01*
X32967850Y-76120480D01*
X32945671Y-76130970D01*
X32922572Y-76139235D01*
X32898773Y-76145196D01*
X32874505Y-76148796D01*
X32850001Y-76150000D01*
X32199999Y-76150000D01*
X32175495Y-76148796D01*
X32151227Y-76145196D01*
X32127428Y-76139235D01*
X32104329Y-76130970D01*
X32082150Y-76120480D01*
X32061107Y-76107868D01*
X32041401Y-76093253D01*
X32023223Y-76076777D01*
X32006747Y-76058599D01*
X31992132Y-76038893D01*
X31979520Y-76017850D01*
X31969030Y-75995671D01*
X31960765Y-75972572D01*
X31954804Y-75948773D01*
X31951204Y-75924505D01*
X31950000Y-75900001D01*
X31950000Y-74999999D01*
X31951204Y-74975495D01*
X31954804Y-74951227D01*
X31960765Y-74927428D01*
X31969030Y-74904329D01*
X31979520Y-74882150D01*
X31992132Y-74861107D01*
X32006747Y-74841401D01*
X32023223Y-74823223D01*
X32041401Y-74806747D01*
X32061107Y-74792132D01*
X32082150Y-74779520D01*
X32104329Y-74769030D01*
X32127428Y-74760765D01*
X32151227Y-74754804D01*
X32175495Y-74751204D01*
X32199999Y-74750000D01*
X32850001Y-74750000D01*
X32874505Y-74751204D01*
X32874505Y-74751204D01*
G37*
D12*
X32525000Y-75450000D03*
G04 #@! TD*
D11*
G04 #@! TO.C,C50*
G36*
X114424505Y-51251204D02*
X114448773Y-51254804D01*
X114472572Y-51260765D01*
X114495671Y-51269030D01*
X114517850Y-51279520D01*
X114538893Y-51292132D01*
X114558599Y-51306747D01*
X114576777Y-51323223D01*
X114593253Y-51341401D01*
X114607868Y-51361107D01*
X114620480Y-51382150D01*
X114630970Y-51404329D01*
X114639235Y-51427428D01*
X114645196Y-51451227D01*
X114648796Y-51475495D01*
X114650000Y-51499999D01*
X114650000Y-52150001D01*
X114648796Y-52174505D01*
X114645196Y-52198773D01*
X114639235Y-52222572D01*
X114630970Y-52245671D01*
X114620480Y-52267850D01*
X114607868Y-52288893D01*
X114593253Y-52308599D01*
X114576777Y-52326777D01*
X114558599Y-52343253D01*
X114538893Y-52357868D01*
X114517850Y-52370480D01*
X114495671Y-52380970D01*
X114472572Y-52389235D01*
X114448773Y-52395196D01*
X114424505Y-52398796D01*
X114400001Y-52400000D01*
X113499999Y-52400000D01*
X113475495Y-52398796D01*
X113451227Y-52395196D01*
X113427428Y-52389235D01*
X113404329Y-52380970D01*
X113382150Y-52370480D01*
X113361107Y-52357868D01*
X113341401Y-52343253D01*
X113323223Y-52326777D01*
X113306747Y-52308599D01*
X113292132Y-52288893D01*
X113279520Y-52267850D01*
X113269030Y-52245671D01*
X113260765Y-52222572D01*
X113254804Y-52198773D01*
X113251204Y-52174505D01*
X113250000Y-52150001D01*
X113250000Y-51499999D01*
X113251204Y-51475495D01*
X113254804Y-51451227D01*
X113260765Y-51427428D01*
X113269030Y-51404329D01*
X113279520Y-51382150D01*
X113292132Y-51361107D01*
X113306747Y-51341401D01*
X113323223Y-51323223D01*
X113341401Y-51306747D01*
X113361107Y-51292132D01*
X113382150Y-51279520D01*
X113404329Y-51269030D01*
X113427428Y-51260765D01*
X113451227Y-51254804D01*
X113475495Y-51251204D01*
X113499999Y-51250000D01*
X114400001Y-51250000D01*
X114424505Y-51251204D01*
X114424505Y-51251204D01*
G37*
D12*
X113950000Y-51825000D03*
D11*
G36*
X114424505Y-49201204D02*
X114448773Y-49204804D01*
X114472572Y-49210765D01*
X114495671Y-49219030D01*
X114517850Y-49229520D01*
X114538893Y-49242132D01*
X114558599Y-49256747D01*
X114576777Y-49273223D01*
X114593253Y-49291401D01*
X114607868Y-49311107D01*
X114620480Y-49332150D01*
X114630970Y-49354329D01*
X114639235Y-49377428D01*
X114645196Y-49401227D01*
X114648796Y-49425495D01*
X114650000Y-49449999D01*
X114650000Y-50100001D01*
X114648796Y-50124505D01*
X114645196Y-50148773D01*
X114639235Y-50172572D01*
X114630970Y-50195671D01*
X114620480Y-50217850D01*
X114607868Y-50238893D01*
X114593253Y-50258599D01*
X114576777Y-50276777D01*
X114558599Y-50293253D01*
X114538893Y-50307868D01*
X114517850Y-50320480D01*
X114495671Y-50330970D01*
X114472572Y-50339235D01*
X114448773Y-50345196D01*
X114424505Y-50348796D01*
X114400001Y-50350000D01*
X113499999Y-50350000D01*
X113475495Y-50348796D01*
X113451227Y-50345196D01*
X113427428Y-50339235D01*
X113404329Y-50330970D01*
X113382150Y-50320480D01*
X113361107Y-50307868D01*
X113341401Y-50293253D01*
X113323223Y-50276777D01*
X113306747Y-50258599D01*
X113292132Y-50238893D01*
X113279520Y-50217850D01*
X113269030Y-50195671D01*
X113260765Y-50172572D01*
X113254804Y-50148773D01*
X113251204Y-50124505D01*
X113250000Y-50100001D01*
X113250000Y-49449999D01*
X113251204Y-49425495D01*
X113254804Y-49401227D01*
X113260765Y-49377428D01*
X113269030Y-49354329D01*
X113279520Y-49332150D01*
X113292132Y-49311107D01*
X113306747Y-49291401D01*
X113323223Y-49273223D01*
X113341401Y-49256747D01*
X113361107Y-49242132D01*
X113382150Y-49229520D01*
X113404329Y-49219030D01*
X113427428Y-49210765D01*
X113451227Y-49204804D01*
X113475495Y-49201204D01*
X113499999Y-49200000D01*
X114400001Y-49200000D01*
X114424505Y-49201204D01*
X114424505Y-49201204D01*
G37*
D12*
X113950000Y-49775000D03*
G04 #@! TD*
D11*
G04 #@! TO.C,C42*
G36*
X57774505Y-74751204D02*
X57798773Y-74754804D01*
X57822572Y-74760765D01*
X57845671Y-74769030D01*
X57867850Y-74779520D01*
X57888893Y-74792132D01*
X57908599Y-74806747D01*
X57926777Y-74823223D01*
X57943253Y-74841401D01*
X57957868Y-74861107D01*
X57970480Y-74882150D01*
X57980970Y-74904329D01*
X57989235Y-74927428D01*
X57995196Y-74951227D01*
X57998796Y-74975495D01*
X58000000Y-74999999D01*
X58000000Y-75900001D01*
X57998796Y-75924505D01*
X57995196Y-75948773D01*
X57989235Y-75972572D01*
X57980970Y-75995671D01*
X57970480Y-76017850D01*
X57957868Y-76038893D01*
X57943253Y-76058599D01*
X57926777Y-76076777D01*
X57908599Y-76093253D01*
X57888893Y-76107868D01*
X57867850Y-76120480D01*
X57845671Y-76130970D01*
X57822572Y-76139235D01*
X57798773Y-76145196D01*
X57774505Y-76148796D01*
X57750001Y-76150000D01*
X57099999Y-76150000D01*
X57075495Y-76148796D01*
X57051227Y-76145196D01*
X57027428Y-76139235D01*
X57004329Y-76130970D01*
X56982150Y-76120480D01*
X56961107Y-76107868D01*
X56941401Y-76093253D01*
X56923223Y-76076777D01*
X56906747Y-76058599D01*
X56892132Y-76038893D01*
X56879520Y-76017850D01*
X56869030Y-75995671D01*
X56860765Y-75972572D01*
X56854804Y-75948773D01*
X56851204Y-75924505D01*
X56850000Y-75900001D01*
X56850000Y-74999999D01*
X56851204Y-74975495D01*
X56854804Y-74951227D01*
X56860765Y-74927428D01*
X56869030Y-74904329D01*
X56879520Y-74882150D01*
X56892132Y-74861107D01*
X56906747Y-74841401D01*
X56923223Y-74823223D01*
X56941401Y-74806747D01*
X56961107Y-74792132D01*
X56982150Y-74779520D01*
X57004329Y-74769030D01*
X57027428Y-74760765D01*
X57051227Y-74754804D01*
X57075495Y-74751204D01*
X57099999Y-74750000D01*
X57750001Y-74750000D01*
X57774505Y-74751204D01*
X57774505Y-74751204D01*
G37*
D12*
X57425000Y-75450000D03*
D11*
G36*
X55724505Y-74751204D02*
X55748773Y-74754804D01*
X55772572Y-74760765D01*
X55795671Y-74769030D01*
X55817850Y-74779520D01*
X55838893Y-74792132D01*
X55858599Y-74806747D01*
X55876777Y-74823223D01*
X55893253Y-74841401D01*
X55907868Y-74861107D01*
X55920480Y-74882150D01*
X55930970Y-74904329D01*
X55939235Y-74927428D01*
X55945196Y-74951227D01*
X55948796Y-74975495D01*
X55950000Y-74999999D01*
X55950000Y-75900001D01*
X55948796Y-75924505D01*
X55945196Y-75948773D01*
X55939235Y-75972572D01*
X55930970Y-75995671D01*
X55920480Y-76017850D01*
X55907868Y-76038893D01*
X55893253Y-76058599D01*
X55876777Y-76076777D01*
X55858599Y-76093253D01*
X55838893Y-76107868D01*
X55817850Y-76120480D01*
X55795671Y-76130970D01*
X55772572Y-76139235D01*
X55748773Y-76145196D01*
X55724505Y-76148796D01*
X55700001Y-76150000D01*
X55049999Y-76150000D01*
X55025495Y-76148796D01*
X55001227Y-76145196D01*
X54977428Y-76139235D01*
X54954329Y-76130970D01*
X54932150Y-76120480D01*
X54911107Y-76107868D01*
X54891401Y-76093253D01*
X54873223Y-76076777D01*
X54856747Y-76058599D01*
X54842132Y-76038893D01*
X54829520Y-76017850D01*
X54819030Y-75995671D01*
X54810765Y-75972572D01*
X54804804Y-75948773D01*
X54801204Y-75924505D01*
X54800000Y-75900001D01*
X54800000Y-74999999D01*
X54801204Y-74975495D01*
X54804804Y-74951227D01*
X54810765Y-74927428D01*
X54819030Y-74904329D01*
X54829520Y-74882150D01*
X54842132Y-74861107D01*
X54856747Y-74841401D01*
X54873223Y-74823223D01*
X54891401Y-74806747D01*
X54911107Y-74792132D01*
X54932150Y-74779520D01*
X54954329Y-74769030D01*
X54977428Y-74760765D01*
X55001227Y-74754804D01*
X55025495Y-74751204D01*
X55049999Y-74750000D01*
X55700001Y-74750000D01*
X55724505Y-74751204D01*
X55724505Y-74751204D01*
G37*
D12*
X55375000Y-75450000D03*
G04 #@! TD*
D11*
G04 #@! TO.C,C48*
G36*
X114424505Y-74151204D02*
X114448773Y-74154804D01*
X114472572Y-74160765D01*
X114495671Y-74169030D01*
X114517850Y-74179520D01*
X114538893Y-74192132D01*
X114558599Y-74206747D01*
X114576777Y-74223223D01*
X114593253Y-74241401D01*
X114607868Y-74261107D01*
X114620480Y-74282150D01*
X114630970Y-74304329D01*
X114639235Y-74327428D01*
X114645196Y-74351227D01*
X114648796Y-74375495D01*
X114650000Y-74399999D01*
X114650000Y-75050001D01*
X114648796Y-75074505D01*
X114645196Y-75098773D01*
X114639235Y-75122572D01*
X114630970Y-75145671D01*
X114620480Y-75167850D01*
X114607868Y-75188893D01*
X114593253Y-75208599D01*
X114576777Y-75226777D01*
X114558599Y-75243253D01*
X114538893Y-75257868D01*
X114517850Y-75270480D01*
X114495671Y-75280970D01*
X114472572Y-75289235D01*
X114448773Y-75295196D01*
X114424505Y-75298796D01*
X114400001Y-75300000D01*
X113499999Y-75300000D01*
X113475495Y-75298796D01*
X113451227Y-75295196D01*
X113427428Y-75289235D01*
X113404329Y-75280970D01*
X113382150Y-75270480D01*
X113361107Y-75257868D01*
X113341401Y-75243253D01*
X113323223Y-75226777D01*
X113306747Y-75208599D01*
X113292132Y-75188893D01*
X113279520Y-75167850D01*
X113269030Y-75145671D01*
X113260765Y-75122572D01*
X113254804Y-75098773D01*
X113251204Y-75074505D01*
X113250000Y-75050001D01*
X113250000Y-74399999D01*
X113251204Y-74375495D01*
X113254804Y-74351227D01*
X113260765Y-74327428D01*
X113269030Y-74304329D01*
X113279520Y-74282150D01*
X113292132Y-74261107D01*
X113306747Y-74241401D01*
X113323223Y-74223223D01*
X113341401Y-74206747D01*
X113361107Y-74192132D01*
X113382150Y-74179520D01*
X113404329Y-74169030D01*
X113427428Y-74160765D01*
X113451227Y-74154804D01*
X113475495Y-74151204D01*
X113499999Y-74150000D01*
X114400001Y-74150000D01*
X114424505Y-74151204D01*
X114424505Y-74151204D01*
G37*
D12*
X113950000Y-74725000D03*
D11*
G36*
X114424505Y-72101204D02*
X114448773Y-72104804D01*
X114472572Y-72110765D01*
X114495671Y-72119030D01*
X114517850Y-72129520D01*
X114538893Y-72142132D01*
X114558599Y-72156747D01*
X114576777Y-72173223D01*
X114593253Y-72191401D01*
X114607868Y-72211107D01*
X114620480Y-72232150D01*
X114630970Y-72254329D01*
X114639235Y-72277428D01*
X114645196Y-72301227D01*
X114648796Y-72325495D01*
X114650000Y-72349999D01*
X114650000Y-73000001D01*
X114648796Y-73024505D01*
X114645196Y-73048773D01*
X114639235Y-73072572D01*
X114630970Y-73095671D01*
X114620480Y-73117850D01*
X114607868Y-73138893D01*
X114593253Y-73158599D01*
X114576777Y-73176777D01*
X114558599Y-73193253D01*
X114538893Y-73207868D01*
X114517850Y-73220480D01*
X114495671Y-73230970D01*
X114472572Y-73239235D01*
X114448773Y-73245196D01*
X114424505Y-73248796D01*
X114400001Y-73250000D01*
X113499999Y-73250000D01*
X113475495Y-73248796D01*
X113451227Y-73245196D01*
X113427428Y-73239235D01*
X113404329Y-73230970D01*
X113382150Y-73220480D01*
X113361107Y-73207868D01*
X113341401Y-73193253D01*
X113323223Y-73176777D01*
X113306747Y-73158599D01*
X113292132Y-73138893D01*
X113279520Y-73117850D01*
X113269030Y-73095671D01*
X113260765Y-73072572D01*
X113254804Y-73048773D01*
X113251204Y-73024505D01*
X113250000Y-73000001D01*
X113250000Y-72349999D01*
X113251204Y-72325495D01*
X113254804Y-72301227D01*
X113260765Y-72277428D01*
X113269030Y-72254329D01*
X113279520Y-72232150D01*
X113292132Y-72211107D01*
X113306747Y-72191401D01*
X113323223Y-72173223D01*
X113341401Y-72156747D01*
X113361107Y-72142132D01*
X113382150Y-72129520D01*
X113404329Y-72119030D01*
X113427428Y-72110765D01*
X113451227Y-72104804D01*
X113475495Y-72101204D01*
X113499999Y-72100000D01*
X114400001Y-72100000D01*
X114424505Y-72101204D01*
X114424505Y-72101204D01*
G37*
D12*
X113950000Y-72675000D03*
G04 #@! TD*
D11*
G04 #@! TO.C,C46*
G36*
X103524505Y-74751204D02*
X103548773Y-74754804D01*
X103572572Y-74760765D01*
X103595671Y-74769030D01*
X103617850Y-74779520D01*
X103638893Y-74792132D01*
X103658599Y-74806747D01*
X103676777Y-74823223D01*
X103693253Y-74841401D01*
X103707868Y-74861107D01*
X103720480Y-74882150D01*
X103730970Y-74904329D01*
X103739235Y-74927428D01*
X103745196Y-74951227D01*
X103748796Y-74975495D01*
X103750000Y-74999999D01*
X103750000Y-75900001D01*
X103748796Y-75924505D01*
X103745196Y-75948773D01*
X103739235Y-75972572D01*
X103730970Y-75995671D01*
X103720480Y-76017850D01*
X103707868Y-76038893D01*
X103693253Y-76058599D01*
X103676777Y-76076777D01*
X103658599Y-76093253D01*
X103638893Y-76107868D01*
X103617850Y-76120480D01*
X103595671Y-76130970D01*
X103572572Y-76139235D01*
X103548773Y-76145196D01*
X103524505Y-76148796D01*
X103500001Y-76150000D01*
X102849999Y-76150000D01*
X102825495Y-76148796D01*
X102801227Y-76145196D01*
X102777428Y-76139235D01*
X102754329Y-76130970D01*
X102732150Y-76120480D01*
X102711107Y-76107868D01*
X102691401Y-76093253D01*
X102673223Y-76076777D01*
X102656747Y-76058599D01*
X102642132Y-76038893D01*
X102629520Y-76017850D01*
X102619030Y-75995671D01*
X102610765Y-75972572D01*
X102604804Y-75948773D01*
X102601204Y-75924505D01*
X102600000Y-75900001D01*
X102600000Y-74999999D01*
X102601204Y-74975495D01*
X102604804Y-74951227D01*
X102610765Y-74927428D01*
X102619030Y-74904329D01*
X102629520Y-74882150D01*
X102642132Y-74861107D01*
X102656747Y-74841401D01*
X102673223Y-74823223D01*
X102691401Y-74806747D01*
X102711107Y-74792132D01*
X102732150Y-74779520D01*
X102754329Y-74769030D01*
X102777428Y-74760765D01*
X102801227Y-74754804D01*
X102825495Y-74751204D01*
X102849999Y-74750000D01*
X103500001Y-74750000D01*
X103524505Y-74751204D01*
X103524505Y-74751204D01*
G37*
D12*
X103175000Y-75450000D03*
D11*
G36*
X101474505Y-74751204D02*
X101498773Y-74754804D01*
X101522572Y-74760765D01*
X101545671Y-74769030D01*
X101567850Y-74779520D01*
X101588893Y-74792132D01*
X101608599Y-74806747D01*
X101626777Y-74823223D01*
X101643253Y-74841401D01*
X101657868Y-74861107D01*
X101670480Y-74882150D01*
X101680970Y-74904329D01*
X101689235Y-74927428D01*
X101695196Y-74951227D01*
X101698796Y-74975495D01*
X101700000Y-74999999D01*
X101700000Y-75900001D01*
X101698796Y-75924505D01*
X101695196Y-75948773D01*
X101689235Y-75972572D01*
X101680970Y-75995671D01*
X101670480Y-76017850D01*
X101657868Y-76038893D01*
X101643253Y-76058599D01*
X101626777Y-76076777D01*
X101608599Y-76093253D01*
X101588893Y-76107868D01*
X101567850Y-76120480D01*
X101545671Y-76130970D01*
X101522572Y-76139235D01*
X101498773Y-76145196D01*
X101474505Y-76148796D01*
X101450001Y-76150000D01*
X100799999Y-76150000D01*
X100775495Y-76148796D01*
X100751227Y-76145196D01*
X100727428Y-76139235D01*
X100704329Y-76130970D01*
X100682150Y-76120480D01*
X100661107Y-76107868D01*
X100641401Y-76093253D01*
X100623223Y-76076777D01*
X100606747Y-76058599D01*
X100592132Y-76038893D01*
X100579520Y-76017850D01*
X100569030Y-75995671D01*
X100560765Y-75972572D01*
X100554804Y-75948773D01*
X100551204Y-75924505D01*
X100550000Y-75900001D01*
X100550000Y-74999999D01*
X100551204Y-74975495D01*
X100554804Y-74951227D01*
X100560765Y-74927428D01*
X100569030Y-74904329D01*
X100579520Y-74882150D01*
X100592132Y-74861107D01*
X100606747Y-74841401D01*
X100623223Y-74823223D01*
X100641401Y-74806747D01*
X100661107Y-74792132D01*
X100682150Y-74779520D01*
X100704329Y-74769030D01*
X100727428Y-74760765D01*
X100751227Y-74754804D01*
X100775495Y-74751204D01*
X100799999Y-74750000D01*
X101450001Y-74750000D01*
X101474505Y-74751204D01*
X101474505Y-74751204D01*
G37*
D12*
X101125000Y-75450000D03*
G04 #@! TD*
D11*
G04 #@! TO.C,C44*
G36*
X78624505Y-74751204D02*
X78648773Y-74754804D01*
X78672572Y-74760765D01*
X78695671Y-74769030D01*
X78717850Y-74779520D01*
X78738893Y-74792132D01*
X78758599Y-74806747D01*
X78776777Y-74823223D01*
X78793253Y-74841401D01*
X78807868Y-74861107D01*
X78820480Y-74882150D01*
X78830970Y-74904329D01*
X78839235Y-74927428D01*
X78845196Y-74951227D01*
X78848796Y-74975495D01*
X78850000Y-74999999D01*
X78850000Y-75900001D01*
X78848796Y-75924505D01*
X78845196Y-75948773D01*
X78839235Y-75972572D01*
X78830970Y-75995671D01*
X78820480Y-76017850D01*
X78807868Y-76038893D01*
X78793253Y-76058599D01*
X78776777Y-76076777D01*
X78758599Y-76093253D01*
X78738893Y-76107868D01*
X78717850Y-76120480D01*
X78695671Y-76130970D01*
X78672572Y-76139235D01*
X78648773Y-76145196D01*
X78624505Y-76148796D01*
X78600001Y-76150000D01*
X77949999Y-76150000D01*
X77925495Y-76148796D01*
X77901227Y-76145196D01*
X77877428Y-76139235D01*
X77854329Y-76130970D01*
X77832150Y-76120480D01*
X77811107Y-76107868D01*
X77791401Y-76093253D01*
X77773223Y-76076777D01*
X77756747Y-76058599D01*
X77742132Y-76038893D01*
X77729520Y-76017850D01*
X77719030Y-75995671D01*
X77710765Y-75972572D01*
X77704804Y-75948773D01*
X77701204Y-75924505D01*
X77700000Y-75900001D01*
X77700000Y-74999999D01*
X77701204Y-74975495D01*
X77704804Y-74951227D01*
X77710765Y-74927428D01*
X77719030Y-74904329D01*
X77729520Y-74882150D01*
X77742132Y-74861107D01*
X77756747Y-74841401D01*
X77773223Y-74823223D01*
X77791401Y-74806747D01*
X77811107Y-74792132D01*
X77832150Y-74779520D01*
X77854329Y-74769030D01*
X77877428Y-74760765D01*
X77901227Y-74754804D01*
X77925495Y-74751204D01*
X77949999Y-74750000D01*
X78600001Y-74750000D01*
X78624505Y-74751204D01*
X78624505Y-74751204D01*
G37*
D12*
X78275000Y-75450000D03*
D11*
G36*
X80674505Y-74751204D02*
X80698773Y-74754804D01*
X80722572Y-74760765D01*
X80745671Y-74769030D01*
X80767850Y-74779520D01*
X80788893Y-74792132D01*
X80808599Y-74806747D01*
X80826777Y-74823223D01*
X80843253Y-74841401D01*
X80857868Y-74861107D01*
X80870480Y-74882150D01*
X80880970Y-74904329D01*
X80889235Y-74927428D01*
X80895196Y-74951227D01*
X80898796Y-74975495D01*
X80900000Y-74999999D01*
X80900000Y-75900001D01*
X80898796Y-75924505D01*
X80895196Y-75948773D01*
X80889235Y-75972572D01*
X80880970Y-75995671D01*
X80870480Y-76017850D01*
X80857868Y-76038893D01*
X80843253Y-76058599D01*
X80826777Y-76076777D01*
X80808599Y-76093253D01*
X80788893Y-76107868D01*
X80767850Y-76120480D01*
X80745671Y-76130970D01*
X80722572Y-76139235D01*
X80698773Y-76145196D01*
X80674505Y-76148796D01*
X80650001Y-76150000D01*
X79999999Y-76150000D01*
X79975495Y-76148796D01*
X79951227Y-76145196D01*
X79927428Y-76139235D01*
X79904329Y-76130970D01*
X79882150Y-76120480D01*
X79861107Y-76107868D01*
X79841401Y-76093253D01*
X79823223Y-76076777D01*
X79806747Y-76058599D01*
X79792132Y-76038893D01*
X79779520Y-76017850D01*
X79769030Y-75995671D01*
X79760765Y-75972572D01*
X79754804Y-75948773D01*
X79751204Y-75924505D01*
X79750000Y-75900001D01*
X79750000Y-74999999D01*
X79751204Y-74975495D01*
X79754804Y-74951227D01*
X79760765Y-74927428D01*
X79769030Y-74904329D01*
X79779520Y-74882150D01*
X79792132Y-74861107D01*
X79806747Y-74841401D01*
X79823223Y-74823223D01*
X79841401Y-74806747D01*
X79861107Y-74792132D01*
X79882150Y-74779520D01*
X79904329Y-74769030D01*
X79927428Y-74760765D01*
X79951227Y-74754804D01*
X79975495Y-74751204D01*
X79999999Y-74750000D01*
X80650001Y-74750000D01*
X80674505Y-74751204D01*
X80674505Y-74751204D01*
G37*
D12*
X80325000Y-75450000D03*
G04 #@! TD*
D11*
G04 #@! TO.C,C49*
G36*
X116424505Y-72101204D02*
X116448773Y-72104804D01*
X116472572Y-72110765D01*
X116495671Y-72119030D01*
X116517850Y-72129520D01*
X116538893Y-72142132D01*
X116558599Y-72156747D01*
X116576777Y-72173223D01*
X116593253Y-72191401D01*
X116607868Y-72211107D01*
X116620480Y-72232150D01*
X116630970Y-72254329D01*
X116639235Y-72277428D01*
X116645196Y-72301227D01*
X116648796Y-72325495D01*
X116650000Y-72349999D01*
X116650000Y-73000001D01*
X116648796Y-73024505D01*
X116645196Y-73048773D01*
X116639235Y-73072572D01*
X116630970Y-73095671D01*
X116620480Y-73117850D01*
X116607868Y-73138893D01*
X116593253Y-73158599D01*
X116576777Y-73176777D01*
X116558599Y-73193253D01*
X116538893Y-73207868D01*
X116517850Y-73220480D01*
X116495671Y-73230970D01*
X116472572Y-73239235D01*
X116448773Y-73245196D01*
X116424505Y-73248796D01*
X116400001Y-73250000D01*
X115499999Y-73250000D01*
X115475495Y-73248796D01*
X115451227Y-73245196D01*
X115427428Y-73239235D01*
X115404329Y-73230970D01*
X115382150Y-73220480D01*
X115361107Y-73207868D01*
X115341401Y-73193253D01*
X115323223Y-73176777D01*
X115306747Y-73158599D01*
X115292132Y-73138893D01*
X115279520Y-73117850D01*
X115269030Y-73095671D01*
X115260765Y-73072572D01*
X115254804Y-73048773D01*
X115251204Y-73024505D01*
X115250000Y-73000001D01*
X115250000Y-72349999D01*
X115251204Y-72325495D01*
X115254804Y-72301227D01*
X115260765Y-72277428D01*
X115269030Y-72254329D01*
X115279520Y-72232150D01*
X115292132Y-72211107D01*
X115306747Y-72191401D01*
X115323223Y-72173223D01*
X115341401Y-72156747D01*
X115361107Y-72142132D01*
X115382150Y-72129520D01*
X115404329Y-72119030D01*
X115427428Y-72110765D01*
X115451227Y-72104804D01*
X115475495Y-72101204D01*
X115499999Y-72100000D01*
X116400001Y-72100000D01*
X116424505Y-72101204D01*
X116424505Y-72101204D01*
G37*
D12*
X115950000Y-72675000D03*
D11*
G36*
X116424505Y-74151204D02*
X116448773Y-74154804D01*
X116472572Y-74160765D01*
X116495671Y-74169030D01*
X116517850Y-74179520D01*
X116538893Y-74192132D01*
X116558599Y-74206747D01*
X116576777Y-74223223D01*
X116593253Y-74241401D01*
X116607868Y-74261107D01*
X116620480Y-74282150D01*
X116630970Y-74304329D01*
X116639235Y-74327428D01*
X116645196Y-74351227D01*
X116648796Y-74375495D01*
X116650000Y-74399999D01*
X116650000Y-75050001D01*
X116648796Y-75074505D01*
X116645196Y-75098773D01*
X116639235Y-75122572D01*
X116630970Y-75145671D01*
X116620480Y-75167850D01*
X116607868Y-75188893D01*
X116593253Y-75208599D01*
X116576777Y-75226777D01*
X116558599Y-75243253D01*
X116538893Y-75257868D01*
X116517850Y-75270480D01*
X116495671Y-75280970D01*
X116472572Y-75289235D01*
X116448773Y-75295196D01*
X116424505Y-75298796D01*
X116400001Y-75300000D01*
X115499999Y-75300000D01*
X115475495Y-75298796D01*
X115451227Y-75295196D01*
X115427428Y-75289235D01*
X115404329Y-75280970D01*
X115382150Y-75270480D01*
X115361107Y-75257868D01*
X115341401Y-75243253D01*
X115323223Y-75226777D01*
X115306747Y-75208599D01*
X115292132Y-75188893D01*
X115279520Y-75167850D01*
X115269030Y-75145671D01*
X115260765Y-75122572D01*
X115254804Y-75098773D01*
X115251204Y-75074505D01*
X115250000Y-75050001D01*
X115250000Y-74399999D01*
X115251204Y-74375495D01*
X115254804Y-74351227D01*
X115260765Y-74327428D01*
X115269030Y-74304329D01*
X115279520Y-74282150D01*
X115292132Y-74261107D01*
X115306747Y-74241401D01*
X115323223Y-74223223D01*
X115341401Y-74206747D01*
X115361107Y-74192132D01*
X115382150Y-74179520D01*
X115404329Y-74169030D01*
X115427428Y-74160765D01*
X115451227Y-74154804D01*
X115475495Y-74151204D01*
X115499999Y-74150000D01*
X116400001Y-74150000D01*
X116424505Y-74151204D01*
X116424505Y-74151204D01*
G37*
D12*
X115950000Y-74725000D03*
G04 #@! TD*
D11*
G04 #@! TO.C,C51*
G36*
X116424505Y-49201204D02*
X116448773Y-49204804D01*
X116472572Y-49210765D01*
X116495671Y-49219030D01*
X116517850Y-49229520D01*
X116538893Y-49242132D01*
X116558599Y-49256747D01*
X116576777Y-49273223D01*
X116593253Y-49291401D01*
X116607868Y-49311107D01*
X116620480Y-49332150D01*
X116630970Y-49354329D01*
X116639235Y-49377428D01*
X116645196Y-49401227D01*
X116648796Y-49425495D01*
X116650000Y-49449999D01*
X116650000Y-50100001D01*
X116648796Y-50124505D01*
X116645196Y-50148773D01*
X116639235Y-50172572D01*
X116630970Y-50195671D01*
X116620480Y-50217850D01*
X116607868Y-50238893D01*
X116593253Y-50258599D01*
X116576777Y-50276777D01*
X116558599Y-50293253D01*
X116538893Y-50307868D01*
X116517850Y-50320480D01*
X116495671Y-50330970D01*
X116472572Y-50339235D01*
X116448773Y-50345196D01*
X116424505Y-50348796D01*
X116400001Y-50350000D01*
X115499999Y-50350000D01*
X115475495Y-50348796D01*
X115451227Y-50345196D01*
X115427428Y-50339235D01*
X115404329Y-50330970D01*
X115382150Y-50320480D01*
X115361107Y-50307868D01*
X115341401Y-50293253D01*
X115323223Y-50276777D01*
X115306747Y-50258599D01*
X115292132Y-50238893D01*
X115279520Y-50217850D01*
X115269030Y-50195671D01*
X115260765Y-50172572D01*
X115254804Y-50148773D01*
X115251204Y-50124505D01*
X115250000Y-50100001D01*
X115250000Y-49449999D01*
X115251204Y-49425495D01*
X115254804Y-49401227D01*
X115260765Y-49377428D01*
X115269030Y-49354329D01*
X115279520Y-49332150D01*
X115292132Y-49311107D01*
X115306747Y-49291401D01*
X115323223Y-49273223D01*
X115341401Y-49256747D01*
X115361107Y-49242132D01*
X115382150Y-49229520D01*
X115404329Y-49219030D01*
X115427428Y-49210765D01*
X115451227Y-49204804D01*
X115475495Y-49201204D01*
X115499999Y-49200000D01*
X116400001Y-49200000D01*
X116424505Y-49201204D01*
X116424505Y-49201204D01*
G37*
D12*
X115950000Y-49775000D03*
D11*
G36*
X116424505Y-51251204D02*
X116448773Y-51254804D01*
X116472572Y-51260765D01*
X116495671Y-51269030D01*
X116517850Y-51279520D01*
X116538893Y-51292132D01*
X116558599Y-51306747D01*
X116576777Y-51323223D01*
X116593253Y-51341401D01*
X116607868Y-51361107D01*
X116620480Y-51382150D01*
X116630970Y-51404329D01*
X116639235Y-51427428D01*
X116645196Y-51451227D01*
X116648796Y-51475495D01*
X116650000Y-51499999D01*
X116650000Y-52150001D01*
X116648796Y-52174505D01*
X116645196Y-52198773D01*
X116639235Y-52222572D01*
X116630970Y-52245671D01*
X116620480Y-52267850D01*
X116607868Y-52288893D01*
X116593253Y-52308599D01*
X116576777Y-52326777D01*
X116558599Y-52343253D01*
X116538893Y-52357868D01*
X116517850Y-52370480D01*
X116495671Y-52380970D01*
X116472572Y-52389235D01*
X116448773Y-52395196D01*
X116424505Y-52398796D01*
X116400001Y-52400000D01*
X115499999Y-52400000D01*
X115475495Y-52398796D01*
X115451227Y-52395196D01*
X115427428Y-52389235D01*
X115404329Y-52380970D01*
X115382150Y-52370480D01*
X115361107Y-52357868D01*
X115341401Y-52343253D01*
X115323223Y-52326777D01*
X115306747Y-52308599D01*
X115292132Y-52288893D01*
X115279520Y-52267850D01*
X115269030Y-52245671D01*
X115260765Y-52222572D01*
X115254804Y-52198773D01*
X115251204Y-52174505D01*
X115250000Y-52150001D01*
X115250000Y-51499999D01*
X115251204Y-51475495D01*
X115254804Y-51451227D01*
X115260765Y-51427428D01*
X115269030Y-51404329D01*
X115279520Y-51382150D01*
X115292132Y-51361107D01*
X115306747Y-51341401D01*
X115323223Y-51323223D01*
X115341401Y-51306747D01*
X115361107Y-51292132D01*
X115382150Y-51279520D01*
X115404329Y-51269030D01*
X115427428Y-51260765D01*
X115451227Y-51254804D01*
X115475495Y-51251204D01*
X115499999Y-51250000D01*
X116400001Y-51250000D01*
X116424505Y-51251204D01*
X116424505Y-51251204D01*
G37*
D12*
X115950000Y-51825000D03*
G04 #@! TD*
D11*
G04 #@! TO.C,C47*
G36*
X101474505Y-76751204D02*
X101498773Y-76754804D01*
X101522572Y-76760765D01*
X101545671Y-76769030D01*
X101567850Y-76779520D01*
X101588893Y-76792132D01*
X101608599Y-76806747D01*
X101626777Y-76823223D01*
X101643253Y-76841401D01*
X101657868Y-76861107D01*
X101670480Y-76882150D01*
X101680970Y-76904329D01*
X101689235Y-76927428D01*
X101695196Y-76951227D01*
X101698796Y-76975495D01*
X101700000Y-76999999D01*
X101700000Y-77900001D01*
X101698796Y-77924505D01*
X101695196Y-77948773D01*
X101689235Y-77972572D01*
X101680970Y-77995671D01*
X101670480Y-78017850D01*
X101657868Y-78038893D01*
X101643253Y-78058599D01*
X101626777Y-78076777D01*
X101608599Y-78093253D01*
X101588893Y-78107868D01*
X101567850Y-78120480D01*
X101545671Y-78130970D01*
X101522572Y-78139235D01*
X101498773Y-78145196D01*
X101474505Y-78148796D01*
X101450001Y-78150000D01*
X100799999Y-78150000D01*
X100775495Y-78148796D01*
X100751227Y-78145196D01*
X100727428Y-78139235D01*
X100704329Y-78130970D01*
X100682150Y-78120480D01*
X100661107Y-78107868D01*
X100641401Y-78093253D01*
X100623223Y-78076777D01*
X100606747Y-78058599D01*
X100592132Y-78038893D01*
X100579520Y-78017850D01*
X100569030Y-77995671D01*
X100560765Y-77972572D01*
X100554804Y-77948773D01*
X100551204Y-77924505D01*
X100550000Y-77900001D01*
X100550000Y-76999999D01*
X100551204Y-76975495D01*
X100554804Y-76951227D01*
X100560765Y-76927428D01*
X100569030Y-76904329D01*
X100579520Y-76882150D01*
X100592132Y-76861107D01*
X100606747Y-76841401D01*
X100623223Y-76823223D01*
X100641401Y-76806747D01*
X100661107Y-76792132D01*
X100682150Y-76779520D01*
X100704329Y-76769030D01*
X100727428Y-76760765D01*
X100751227Y-76754804D01*
X100775495Y-76751204D01*
X100799999Y-76750000D01*
X101450001Y-76750000D01*
X101474505Y-76751204D01*
X101474505Y-76751204D01*
G37*
D12*
X101125000Y-77450000D03*
D11*
G36*
X103524505Y-76751204D02*
X103548773Y-76754804D01*
X103572572Y-76760765D01*
X103595671Y-76769030D01*
X103617850Y-76779520D01*
X103638893Y-76792132D01*
X103658599Y-76806747D01*
X103676777Y-76823223D01*
X103693253Y-76841401D01*
X103707868Y-76861107D01*
X103720480Y-76882150D01*
X103730970Y-76904329D01*
X103739235Y-76927428D01*
X103745196Y-76951227D01*
X103748796Y-76975495D01*
X103750000Y-76999999D01*
X103750000Y-77900001D01*
X103748796Y-77924505D01*
X103745196Y-77948773D01*
X103739235Y-77972572D01*
X103730970Y-77995671D01*
X103720480Y-78017850D01*
X103707868Y-78038893D01*
X103693253Y-78058599D01*
X103676777Y-78076777D01*
X103658599Y-78093253D01*
X103638893Y-78107868D01*
X103617850Y-78120480D01*
X103595671Y-78130970D01*
X103572572Y-78139235D01*
X103548773Y-78145196D01*
X103524505Y-78148796D01*
X103500001Y-78150000D01*
X102849999Y-78150000D01*
X102825495Y-78148796D01*
X102801227Y-78145196D01*
X102777428Y-78139235D01*
X102754329Y-78130970D01*
X102732150Y-78120480D01*
X102711107Y-78107868D01*
X102691401Y-78093253D01*
X102673223Y-78076777D01*
X102656747Y-78058599D01*
X102642132Y-78038893D01*
X102629520Y-78017850D01*
X102619030Y-77995671D01*
X102610765Y-77972572D01*
X102604804Y-77948773D01*
X102601204Y-77924505D01*
X102600000Y-77900001D01*
X102600000Y-76999999D01*
X102601204Y-76975495D01*
X102604804Y-76951227D01*
X102610765Y-76927428D01*
X102619030Y-76904329D01*
X102629520Y-76882150D01*
X102642132Y-76861107D01*
X102656747Y-76841401D01*
X102673223Y-76823223D01*
X102691401Y-76806747D01*
X102711107Y-76792132D01*
X102732150Y-76779520D01*
X102754329Y-76769030D01*
X102777428Y-76760765D01*
X102801227Y-76754804D01*
X102825495Y-76751204D01*
X102849999Y-76750000D01*
X103500001Y-76750000D01*
X103524505Y-76751204D01*
X103524505Y-76751204D01*
G37*
D12*
X103175000Y-77450000D03*
G04 #@! TD*
D11*
G04 #@! TO.C,C32*
G36*
X26474505Y-54251204D02*
X26498773Y-54254804D01*
X26522572Y-54260765D01*
X26545671Y-54269030D01*
X26567850Y-54279520D01*
X26588893Y-54292132D01*
X26608599Y-54306747D01*
X26626777Y-54323223D01*
X26643253Y-54341401D01*
X26657868Y-54361107D01*
X26670480Y-54382150D01*
X26680970Y-54404329D01*
X26689235Y-54427428D01*
X26695196Y-54451227D01*
X26698796Y-54475495D01*
X26700000Y-54499999D01*
X26700000Y-55400001D01*
X26698796Y-55424505D01*
X26695196Y-55448773D01*
X26689235Y-55472572D01*
X26680970Y-55495671D01*
X26670480Y-55517850D01*
X26657868Y-55538893D01*
X26643253Y-55558599D01*
X26626777Y-55576777D01*
X26608599Y-55593253D01*
X26588893Y-55607868D01*
X26567850Y-55620480D01*
X26545671Y-55630970D01*
X26522572Y-55639235D01*
X26498773Y-55645196D01*
X26474505Y-55648796D01*
X26450001Y-55650000D01*
X25799999Y-55650000D01*
X25775495Y-55648796D01*
X25751227Y-55645196D01*
X25727428Y-55639235D01*
X25704329Y-55630970D01*
X25682150Y-55620480D01*
X25661107Y-55607868D01*
X25641401Y-55593253D01*
X25623223Y-55576777D01*
X25606747Y-55558599D01*
X25592132Y-55538893D01*
X25579520Y-55517850D01*
X25569030Y-55495671D01*
X25560765Y-55472572D01*
X25554804Y-55448773D01*
X25551204Y-55424505D01*
X25550000Y-55400001D01*
X25550000Y-54499999D01*
X25551204Y-54475495D01*
X25554804Y-54451227D01*
X25560765Y-54427428D01*
X25569030Y-54404329D01*
X25579520Y-54382150D01*
X25592132Y-54361107D01*
X25606747Y-54341401D01*
X25623223Y-54323223D01*
X25641401Y-54306747D01*
X25661107Y-54292132D01*
X25682150Y-54279520D01*
X25704329Y-54269030D01*
X25727428Y-54260765D01*
X25751227Y-54254804D01*
X25775495Y-54251204D01*
X25799999Y-54250000D01*
X26450001Y-54250000D01*
X26474505Y-54251204D01*
X26474505Y-54251204D01*
G37*
D12*
X26125000Y-54950000D03*
D11*
G36*
X24424505Y-54251204D02*
X24448773Y-54254804D01*
X24472572Y-54260765D01*
X24495671Y-54269030D01*
X24517850Y-54279520D01*
X24538893Y-54292132D01*
X24558599Y-54306747D01*
X24576777Y-54323223D01*
X24593253Y-54341401D01*
X24607868Y-54361107D01*
X24620480Y-54382150D01*
X24630970Y-54404329D01*
X24639235Y-54427428D01*
X24645196Y-54451227D01*
X24648796Y-54475495D01*
X24650000Y-54499999D01*
X24650000Y-55400001D01*
X24648796Y-55424505D01*
X24645196Y-55448773D01*
X24639235Y-55472572D01*
X24630970Y-55495671D01*
X24620480Y-55517850D01*
X24607868Y-55538893D01*
X24593253Y-55558599D01*
X24576777Y-55576777D01*
X24558599Y-55593253D01*
X24538893Y-55607868D01*
X24517850Y-55620480D01*
X24495671Y-55630970D01*
X24472572Y-55639235D01*
X24448773Y-55645196D01*
X24424505Y-55648796D01*
X24400001Y-55650000D01*
X23749999Y-55650000D01*
X23725495Y-55648796D01*
X23701227Y-55645196D01*
X23677428Y-55639235D01*
X23654329Y-55630970D01*
X23632150Y-55620480D01*
X23611107Y-55607868D01*
X23591401Y-55593253D01*
X23573223Y-55576777D01*
X23556747Y-55558599D01*
X23542132Y-55538893D01*
X23529520Y-55517850D01*
X23519030Y-55495671D01*
X23510765Y-55472572D01*
X23504804Y-55448773D01*
X23501204Y-55424505D01*
X23500000Y-55400001D01*
X23500000Y-54499999D01*
X23501204Y-54475495D01*
X23504804Y-54451227D01*
X23510765Y-54427428D01*
X23519030Y-54404329D01*
X23529520Y-54382150D01*
X23542132Y-54361107D01*
X23556747Y-54341401D01*
X23573223Y-54323223D01*
X23591401Y-54306747D01*
X23611107Y-54292132D01*
X23632150Y-54279520D01*
X23654329Y-54269030D01*
X23677428Y-54260765D01*
X23701227Y-54254804D01*
X23725495Y-54251204D01*
X23749999Y-54250000D01*
X24400001Y-54250000D01*
X24424505Y-54251204D01*
X24424505Y-54251204D01*
G37*
D12*
X24075000Y-54950000D03*
G04 #@! TD*
D11*
G04 #@! TO.C,C37*
G36*
X90824505Y-36151204D02*
X90848773Y-36154804D01*
X90872572Y-36160765D01*
X90895671Y-36169030D01*
X90917850Y-36179520D01*
X90938893Y-36192132D01*
X90958599Y-36206747D01*
X90976777Y-36223223D01*
X90993253Y-36241401D01*
X91007868Y-36261107D01*
X91020480Y-36282150D01*
X91030970Y-36304329D01*
X91039235Y-36327428D01*
X91045196Y-36351227D01*
X91048796Y-36375495D01*
X91050000Y-36399999D01*
X91050000Y-37300001D01*
X91048796Y-37324505D01*
X91045196Y-37348773D01*
X91039235Y-37372572D01*
X91030970Y-37395671D01*
X91020480Y-37417850D01*
X91007868Y-37438893D01*
X90993253Y-37458599D01*
X90976777Y-37476777D01*
X90958599Y-37493253D01*
X90938893Y-37507868D01*
X90917850Y-37520480D01*
X90895671Y-37530970D01*
X90872572Y-37539235D01*
X90848773Y-37545196D01*
X90824505Y-37548796D01*
X90800001Y-37550000D01*
X90149999Y-37550000D01*
X90125495Y-37548796D01*
X90101227Y-37545196D01*
X90077428Y-37539235D01*
X90054329Y-37530970D01*
X90032150Y-37520480D01*
X90011107Y-37507868D01*
X89991401Y-37493253D01*
X89973223Y-37476777D01*
X89956747Y-37458599D01*
X89942132Y-37438893D01*
X89929520Y-37417850D01*
X89919030Y-37395671D01*
X89910765Y-37372572D01*
X89904804Y-37348773D01*
X89901204Y-37324505D01*
X89900000Y-37300001D01*
X89900000Y-36399999D01*
X89901204Y-36375495D01*
X89904804Y-36351227D01*
X89910765Y-36327428D01*
X89919030Y-36304329D01*
X89929520Y-36282150D01*
X89942132Y-36261107D01*
X89956747Y-36241401D01*
X89973223Y-36223223D01*
X89991401Y-36206747D01*
X90011107Y-36192132D01*
X90032150Y-36179520D01*
X90054329Y-36169030D01*
X90077428Y-36160765D01*
X90101227Y-36154804D01*
X90125495Y-36151204D01*
X90149999Y-36150000D01*
X90800001Y-36150000D01*
X90824505Y-36151204D01*
X90824505Y-36151204D01*
G37*
D12*
X90475000Y-36850000D03*
D11*
G36*
X88774505Y-36151204D02*
X88798773Y-36154804D01*
X88822572Y-36160765D01*
X88845671Y-36169030D01*
X88867850Y-36179520D01*
X88888893Y-36192132D01*
X88908599Y-36206747D01*
X88926777Y-36223223D01*
X88943253Y-36241401D01*
X88957868Y-36261107D01*
X88970480Y-36282150D01*
X88980970Y-36304329D01*
X88989235Y-36327428D01*
X88995196Y-36351227D01*
X88998796Y-36375495D01*
X89000000Y-36399999D01*
X89000000Y-37300001D01*
X88998796Y-37324505D01*
X88995196Y-37348773D01*
X88989235Y-37372572D01*
X88980970Y-37395671D01*
X88970480Y-37417850D01*
X88957868Y-37438893D01*
X88943253Y-37458599D01*
X88926777Y-37476777D01*
X88908599Y-37493253D01*
X88888893Y-37507868D01*
X88867850Y-37520480D01*
X88845671Y-37530970D01*
X88822572Y-37539235D01*
X88798773Y-37545196D01*
X88774505Y-37548796D01*
X88750001Y-37550000D01*
X88099999Y-37550000D01*
X88075495Y-37548796D01*
X88051227Y-37545196D01*
X88027428Y-37539235D01*
X88004329Y-37530970D01*
X87982150Y-37520480D01*
X87961107Y-37507868D01*
X87941401Y-37493253D01*
X87923223Y-37476777D01*
X87906747Y-37458599D01*
X87892132Y-37438893D01*
X87879520Y-37417850D01*
X87869030Y-37395671D01*
X87860765Y-37372572D01*
X87854804Y-37348773D01*
X87851204Y-37324505D01*
X87850000Y-37300001D01*
X87850000Y-36399999D01*
X87851204Y-36375495D01*
X87854804Y-36351227D01*
X87860765Y-36327428D01*
X87869030Y-36304329D01*
X87879520Y-36282150D01*
X87892132Y-36261107D01*
X87906747Y-36241401D01*
X87923223Y-36223223D01*
X87941401Y-36206747D01*
X87961107Y-36192132D01*
X87982150Y-36179520D01*
X88004329Y-36169030D01*
X88027428Y-36160765D01*
X88051227Y-36154804D01*
X88075495Y-36151204D01*
X88099999Y-36150000D01*
X88750001Y-36150000D01*
X88774505Y-36151204D01*
X88774505Y-36151204D01*
G37*
D12*
X88425000Y-36850000D03*
G04 #@! TD*
D11*
G04 #@! TO.C,C35*
G36*
X67974505Y-36151204D02*
X67998773Y-36154804D01*
X68022572Y-36160765D01*
X68045671Y-36169030D01*
X68067850Y-36179520D01*
X68088893Y-36192132D01*
X68108599Y-36206747D01*
X68126777Y-36223223D01*
X68143253Y-36241401D01*
X68157868Y-36261107D01*
X68170480Y-36282150D01*
X68180970Y-36304329D01*
X68189235Y-36327428D01*
X68195196Y-36351227D01*
X68198796Y-36375495D01*
X68200000Y-36399999D01*
X68200000Y-37300001D01*
X68198796Y-37324505D01*
X68195196Y-37348773D01*
X68189235Y-37372572D01*
X68180970Y-37395671D01*
X68170480Y-37417850D01*
X68157868Y-37438893D01*
X68143253Y-37458599D01*
X68126777Y-37476777D01*
X68108599Y-37493253D01*
X68088893Y-37507868D01*
X68067850Y-37520480D01*
X68045671Y-37530970D01*
X68022572Y-37539235D01*
X67998773Y-37545196D01*
X67974505Y-37548796D01*
X67950001Y-37550000D01*
X67299999Y-37550000D01*
X67275495Y-37548796D01*
X67251227Y-37545196D01*
X67227428Y-37539235D01*
X67204329Y-37530970D01*
X67182150Y-37520480D01*
X67161107Y-37507868D01*
X67141401Y-37493253D01*
X67123223Y-37476777D01*
X67106747Y-37458599D01*
X67092132Y-37438893D01*
X67079520Y-37417850D01*
X67069030Y-37395671D01*
X67060765Y-37372572D01*
X67054804Y-37348773D01*
X67051204Y-37324505D01*
X67050000Y-37300001D01*
X67050000Y-36399999D01*
X67051204Y-36375495D01*
X67054804Y-36351227D01*
X67060765Y-36327428D01*
X67069030Y-36304329D01*
X67079520Y-36282150D01*
X67092132Y-36261107D01*
X67106747Y-36241401D01*
X67123223Y-36223223D01*
X67141401Y-36206747D01*
X67161107Y-36192132D01*
X67182150Y-36179520D01*
X67204329Y-36169030D01*
X67227428Y-36160765D01*
X67251227Y-36154804D01*
X67275495Y-36151204D01*
X67299999Y-36150000D01*
X67950001Y-36150000D01*
X67974505Y-36151204D01*
X67974505Y-36151204D01*
G37*
D12*
X67625000Y-36850000D03*
D11*
G36*
X65924505Y-36151204D02*
X65948773Y-36154804D01*
X65972572Y-36160765D01*
X65995671Y-36169030D01*
X66017850Y-36179520D01*
X66038893Y-36192132D01*
X66058599Y-36206747D01*
X66076777Y-36223223D01*
X66093253Y-36241401D01*
X66107868Y-36261107D01*
X66120480Y-36282150D01*
X66130970Y-36304329D01*
X66139235Y-36327428D01*
X66145196Y-36351227D01*
X66148796Y-36375495D01*
X66150000Y-36399999D01*
X66150000Y-37300001D01*
X66148796Y-37324505D01*
X66145196Y-37348773D01*
X66139235Y-37372572D01*
X66130970Y-37395671D01*
X66120480Y-37417850D01*
X66107868Y-37438893D01*
X66093253Y-37458599D01*
X66076777Y-37476777D01*
X66058599Y-37493253D01*
X66038893Y-37507868D01*
X66017850Y-37520480D01*
X65995671Y-37530970D01*
X65972572Y-37539235D01*
X65948773Y-37545196D01*
X65924505Y-37548796D01*
X65900001Y-37550000D01*
X65249999Y-37550000D01*
X65225495Y-37548796D01*
X65201227Y-37545196D01*
X65177428Y-37539235D01*
X65154329Y-37530970D01*
X65132150Y-37520480D01*
X65111107Y-37507868D01*
X65091401Y-37493253D01*
X65073223Y-37476777D01*
X65056747Y-37458599D01*
X65042132Y-37438893D01*
X65029520Y-37417850D01*
X65019030Y-37395671D01*
X65010765Y-37372572D01*
X65004804Y-37348773D01*
X65001204Y-37324505D01*
X65000000Y-37300001D01*
X65000000Y-36399999D01*
X65001204Y-36375495D01*
X65004804Y-36351227D01*
X65010765Y-36327428D01*
X65019030Y-36304329D01*
X65029520Y-36282150D01*
X65042132Y-36261107D01*
X65056747Y-36241401D01*
X65073223Y-36223223D01*
X65091401Y-36206747D01*
X65111107Y-36192132D01*
X65132150Y-36179520D01*
X65154329Y-36169030D01*
X65177428Y-36160765D01*
X65201227Y-36154804D01*
X65225495Y-36151204D01*
X65249999Y-36150000D01*
X65900001Y-36150000D01*
X65924505Y-36151204D01*
X65924505Y-36151204D01*
G37*
D12*
X65575000Y-36850000D03*
G04 #@! TD*
D11*
G04 #@! TO.C,C45*
G36*
X78624505Y-76751204D02*
X78648773Y-76754804D01*
X78672572Y-76760765D01*
X78695671Y-76769030D01*
X78717850Y-76779520D01*
X78738893Y-76792132D01*
X78758599Y-76806747D01*
X78776777Y-76823223D01*
X78793253Y-76841401D01*
X78807868Y-76861107D01*
X78820480Y-76882150D01*
X78830970Y-76904329D01*
X78839235Y-76927428D01*
X78845196Y-76951227D01*
X78848796Y-76975495D01*
X78850000Y-76999999D01*
X78850000Y-77900001D01*
X78848796Y-77924505D01*
X78845196Y-77948773D01*
X78839235Y-77972572D01*
X78830970Y-77995671D01*
X78820480Y-78017850D01*
X78807868Y-78038893D01*
X78793253Y-78058599D01*
X78776777Y-78076777D01*
X78758599Y-78093253D01*
X78738893Y-78107868D01*
X78717850Y-78120480D01*
X78695671Y-78130970D01*
X78672572Y-78139235D01*
X78648773Y-78145196D01*
X78624505Y-78148796D01*
X78600001Y-78150000D01*
X77949999Y-78150000D01*
X77925495Y-78148796D01*
X77901227Y-78145196D01*
X77877428Y-78139235D01*
X77854329Y-78130970D01*
X77832150Y-78120480D01*
X77811107Y-78107868D01*
X77791401Y-78093253D01*
X77773223Y-78076777D01*
X77756747Y-78058599D01*
X77742132Y-78038893D01*
X77729520Y-78017850D01*
X77719030Y-77995671D01*
X77710765Y-77972572D01*
X77704804Y-77948773D01*
X77701204Y-77924505D01*
X77700000Y-77900001D01*
X77700000Y-76999999D01*
X77701204Y-76975495D01*
X77704804Y-76951227D01*
X77710765Y-76927428D01*
X77719030Y-76904329D01*
X77729520Y-76882150D01*
X77742132Y-76861107D01*
X77756747Y-76841401D01*
X77773223Y-76823223D01*
X77791401Y-76806747D01*
X77811107Y-76792132D01*
X77832150Y-76779520D01*
X77854329Y-76769030D01*
X77877428Y-76760765D01*
X77901227Y-76754804D01*
X77925495Y-76751204D01*
X77949999Y-76750000D01*
X78600001Y-76750000D01*
X78624505Y-76751204D01*
X78624505Y-76751204D01*
G37*
D12*
X78275000Y-77450000D03*
D11*
G36*
X80674505Y-76751204D02*
X80698773Y-76754804D01*
X80722572Y-76760765D01*
X80745671Y-76769030D01*
X80767850Y-76779520D01*
X80788893Y-76792132D01*
X80808599Y-76806747D01*
X80826777Y-76823223D01*
X80843253Y-76841401D01*
X80857868Y-76861107D01*
X80870480Y-76882150D01*
X80880970Y-76904329D01*
X80889235Y-76927428D01*
X80895196Y-76951227D01*
X80898796Y-76975495D01*
X80900000Y-76999999D01*
X80900000Y-77900001D01*
X80898796Y-77924505D01*
X80895196Y-77948773D01*
X80889235Y-77972572D01*
X80880970Y-77995671D01*
X80870480Y-78017850D01*
X80857868Y-78038893D01*
X80843253Y-78058599D01*
X80826777Y-78076777D01*
X80808599Y-78093253D01*
X80788893Y-78107868D01*
X80767850Y-78120480D01*
X80745671Y-78130970D01*
X80722572Y-78139235D01*
X80698773Y-78145196D01*
X80674505Y-78148796D01*
X80650001Y-78150000D01*
X79999999Y-78150000D01*
X79975495Y-78148796D01*
X79951227Y-78145196D01*
X79927428Y-78139235D01*
X79904329Y-78130970D01*
X79882150Y-78120480D01*
X79861107Y-78107868D01*
X79841401Y-78093253D01*
X79823223Y-78076777D01*
X79806747Y-78058599D01*
X79792132Y-78038893D01*
X79779520Y-78017850D01*
X79769030Y-77995671D01*
X79760765Y-77972572D01*
X79754804Y-77948773D01*
X79751204Y-77924505D01*
X79750000Y-77900001D01*
X79750000Y-76999999D01*
X79751204Y-76975495D01*
X79754804Y-76951227D01*
X79760765Y-76927428D01*
X79769030Y-76904329D01*
X79779520Y-76882150D01*
X79792132Y-76861107D01*
X79806747Y-76841401D01*
X79823223Y-76823223D01*
X79841401Y-76806747D01*
X79861107Y-76792132D01*
X79882150Y-76779520D01*
X79904329Y-76769030D01*
X79927428Y-76760765D01*
X79951227Y-76754804D01*
X79975495Y-76751204D01*
X79999999Y-76750000D01*
X80650001Y-76750000D01*
X80674505Y-76751204D01*
X80674505Y-76751204D01*
G37*
D12*
X80325000Y-77450000D03*
G04 #@! TD*
D11*
G04 #@! TO.C,C43*
G36*
X55724505Y-76751204D02*
X55748773Y-76754804D01*
X55772572Y-76760765D01*
X55795671Y-76769030D01*
X55817850Y-76779520D01*
X55838893Y-76792132D01*
X55858599Y-76806747D01*
X55876777Y-76823223D01*
X55893253Y-76841401D01*
X55907868Y-76861107D01*
X55920480Y-76882150D01*
X55930970Y-76904329D01*
X55939235Y-76927428D01*
X55945196Y-76951227D01*
X55948796Y-76975495D01*
X55950000Y-76999999D01*
X55950000Y-77900001D01*
X55948796Y-77924505D01*
X55945196Y-77948773D01*
X55939235Y-77972572D01*
X55930970Y-77995671D01*
X55920480Y-78017850D01*
X55907868Y-78038893D01*
X55893253Y-78058599D01*
X55876777Y-78076777D01*
X55858599Y-78093253D01*
X55838893Y-78107868D01*
X55817850Y-78120480D01*
X55795671Y-78130970D01*
X55772572Y-78139235D01*
X55748773Y-78145196D01*
X55724505Y-78148796D01*
X55700001Y-78150000D01*
X55049999Y-78150000D01*
X55025495Y-78148796D01*
X55001227Y-78145196D01*
X54977428Y-78139235D01*
X54954329Y-78130970D01*
X54932150Y-78120480D01*
X54911107Y-78107868D01*
X54891401Y-78093253D01*
X54873223Y-78076777D01*
X54856747Y-78058599D01*
X54842132Y-78038893D01*
X54829520Y-78017850D01*
X54819030Y-77995671D01*
X54810765Y-77972572D01*
X54804804Y-77948773D01*
X54801204Y-77924505D01*
X54800000Y-77900001D01*
X54800000Y-76999999D01*
X54801204Y-76975495D01*
X54804804Y-76951227D01*
X54810765Y-76927428D01*
X54819030Y-76904329D01*
X54829520Y-76882150D01*
X54842132Y-76861107D01*
X54856747Y-76841401D01*
X54873223Y-76823223D01*
X54891401Y-76806747D01*
X54911107Y-76792132D01*
X54932150Y-76779520D01*
X54954329Y-76769030D01*
X54977428Y-76760765D01*
X55001227Y-76754804D01*
X55025495Y-76751204D01*
X55049999Y-76750000D01*
X55700001Y-76750000D01*
X55724505Y-76751204D01*
X55724505Y-76751204D01*
G37*
D12*
X55375000Y-77450000D03*
D11*
G36*
X57774505Y-76751204D02*
X57798773Y-76754804D01*
X57822572Y-76760765D01*
X57845671Y-76769030D01*
X57867850Y-76779520D01*
X57888893Y-76792132D01*
X57908599Y-76806747D01*
X57926777Y-76823223D01*
X57943253Y-76841401D01*
X57957868Y-76861107D01*
X57970480Y-76882150D01*
X57980970Y-76904329D01*
X57989235Y-76927428D01*
X57995196Y-76951227D01*
X57998796Y-76975495D01*
X58000000Y-76999999D01*
X58000000Y-77900001D01*
X57998796Y-77924505D01*
X57995196Y-77948773D01*
X57989235Y-77972572D01*
X57980970Y-77995671D01*
X57970480Y-78017850D01*
X57957868Y-78038893D01*
X57943253Y-78058599D01*
X57926777Y-78076777D01*
X57908599Y-78093253D01*
X57888893Y-78107868D01*
X57867850Y-78120480D01*
X57845671Y-78130970D01*
X57822572Y-78139235D01*
X57798773Y-78145196D01*
X57774505Y-78148796D01*
X57750001Y-78150000D01*
X57099999Y-78150000D01*
X57075495Y-78148796D01*
X57051227Y-78145196D01*
X57027428Y-78139235D01*
X57004329Y-78130970D01*
X56982150Y-78120480D01*
X56961107Y-78107868D01*
X56941401Y-78093253D01*
X56923223Y-78076777D01*
X56906747Y-78058599D01*
X56892132Y-78038893D01*
X56879520Y-78017850D01*
X56869030Y-77995671D01*
X56860765Y-77972572D01*
X56854804Y-77948773D01*
X56851204Y-77924505D01*
X56850000Y-77900001D01*
X56850000Y-76999999D01*
X56851204Y-76975495D01*
X56854804Y-76951227D01*
X56860765Y-76927428D01*
X56869030Y-76904329D01*
X56879520Y-76882150D01*
X56892132Y-76861107D01*
X56906747Y-76841401D01*
X56923223Y-76823223D01*
X56941401Y-76806747D01*
X56961107Y-76792132D01*
X56982150Y-76779520D01*
X57004329Y-76769030D01*
X57027428Y-76760765D01*
X57051227Y-76754804D01*
X57075495Y-76751204D01*
X57099999Y-76750000D01*
X57750001Y-76750000D01*
X57774505Y-76751204D01*
X57774505Y-76751204D01*
G37*
D12*
X57425000Y-77450000D03*
G04 #@! TD*
D11*
G04 #@! TO.C,C41*
G36*
X32874505Y-76751204D02*
X32898773Y-76754804D01*
X32922572Y-76760765D01*
X32945671Y-76769030D01*
X32967850Y-76779520D01*
X32988893Y-76792132D01*
X33008599Y-76806747D01*
X33026777Y-76823223D01*
X33043253Y-76841401D01*
X33057868Y-76861107D01*
X33070480Y-76882150D01*
X33080970Y-76904329D01*
X33089235Y-76927428D01*
X33095196Y-76951227D01*
X33098796Y-76975495D01*
X33100000Y-76999999D01*
X33100000Y-77900001D01*
X33098796Y-77924505D01*
X33095196Y-77948773D01*
X33089235Y-77972572D01*
X33080970Y-77995671D01*
X33070480Y-78017850D01*
X33057868Y-78038893D01*
X33043253Y-78058599D01*
X33026777Y-78076777D01*
X33008599Y-78093253D01*
X32988893Y-78107868D01*
X32967850Y-78120480D01*
X32945671Y-78130970D01*
X32922572Y-78139235D01*
X32898773Y-78145196D01*
X32874505Y-78148796D01*
X32850001Y-78150000D01*
X32199999Y-78150000D01*
X32175495Y-78148796D01*
X32151227Y-78145196D01*
X32127428Y-78139235D01*
X32104329Y-78130970D01*
X32082150Y-78120480D01*
X32061107Y-78107868D01*
X32041401Y-78093253D01*
X32023223Y-78076777D01*
X32006747Y-78058599D01*
X31992132Y-78038893D01*
X31979520Y-78017850D01*
X31969030Y-77995671D01*
X31960765Y-77972572D01*
X31954804Y-77948773D01*
X31951204Y-77924505D01*
X31950000Y-77900001D01*
X31950000Y-76999999D01*
X31951204Y-76975495D01*
X31954804Y-76951227D01*
X31960765Y-76927428D01*
X31969030Y-76904329D01*
X31979520Y-76882150D01*
X31992132Y-76861107D01*
X32006747Y-76841401D01*
X32023223Y-76823223D01*
X32041401Y-76806747D01*
X32061107Y-76792132D01*
X32082150Y-76779520D01*
X32104329Y-76769030D01*
X32127428Y-76760765D01*
X32151227Y-76754804D01*
X32175495Y-76751204D01*
X32199999Y-76750000D01*
X32850001Y-76750000D01*
X32874505Y-76751204D01*
X32874505Y-76751204D01*
G37*
D12*
X32525000Y-77450000D03*
D11*
G36*
X34924505Y-76751204D02*
X34948773Y-76754804D01*
X34972572Y-76760765D01*
X34995671Y-76769030D01*
X35017850Y-76779520D01*
X35038893Y-76792132D01*
X35058599Y-76806747D01*
X35076777Y-76823223D01*
X35093253Y-76841401D01*
X35107868Y-76861107D01*
X35120480Y-76882150D01*
X35130970Y-76904329D01*
X35139235Y-76927428D01*
X35145196Y-76951227D01*
X35148796Y-76975495D01*
X35150000Y-76999999D01*
X35150000Y-77900001D01*
X35148796Y-77924505D01*
X35145196Y-77948773D01*
X35139235Y-77972572D01*
X35130970Y-77995671D01*
X35120480Y-78017850D01*
X35107868Y-78038893D01*
X35093253Y-78058599D01*
X35076777Y-78076777D01*
X35058599Y-78093253D01*
X35038893Y-78107868D01*
X35017850Y-78120480D01*
X34995671Y-78130970D01*
X34972572Y-78139235D01*
X34948773Y-78145196D01*
X34924505Y-78148796D01*
X34900001Y-78150000D01*
X34249999Y-78150000D01*
X34225495Y-78148796D01*
X34201227Y-78145196D01*
X34177428Y-78139235D01*
X34154329Y-78130970D01*
X34132150Y-78120480D01*
X34111107Y-78107868D01*
X34091401Y-78093253D01*
X34073223Y-78076777D01*
X34056747Y-78058599D01*
X34042132Y-78038893D01*
X34029520Y-78017850D01*
X34019030Y-77995671D01*
X34010765Y-77972572D01*
X34004804Y-77948773D01*
X34001204Y-77924505D01*
X34000000Y-77900001D01*
X34000000Y-76999999D01*
X34001204Y-76975495D01*
X34004804Y-76951227D01*
X34010765Y-76927428D01*
X34019030Y-76904329D01*
X34029520Y-76882150D01*
X34042132Y-76861107D01*
X34056747Y-76841401D01*
X34073223Y-76823223D01*
X34091401Y-76806747D01*
X34111107Y-76792132D01*
X34132150Y-76779520D01*
X34154329Y-76769030D01*
X34177428Y-76760765D01*
X34201227Y-76754804D01*
X34225495Y-76751204D01*
X34249999Y-76750000D01*
X34900001Y-76750000D01*
X34924505Y-76751204D01*
X34924505Y-76751204D01*
G37*
D12*
X34575000Y-77450000D03*
G04 #@! TD*
D11*
G04 #@! TO.C,C39*
G36*
X113674505Y-36151204D02*
X113698773Y-36154804D01*
X113722572Y-36160765D01*
X113745671Y-36169030D01*
X113767850Y-36179520D01*
X113788893Y-36192132D01*
X113808599Y-36206747D01*
X113826777Y-36223223D01*
X113843253Y-36241401D01*
X113857868Y-36261107D01*
X113870480Y-36282150D01*
X113880970Y-36304329D01*
X113889235Y-36327428D01*
X113895196Y-36351227D01*
X113898796Y-36375495D01*
X113900000Y-36399999D01*
X113900000Y-37300001D01*
X113898796Y-37324505D01*
X113895196Y-37348773D01*
X113889235Y-37372572D01*
X113880970Y-37395671D01*
X113870480Y-37417850D01*
X113857868Y-37438893D01*
X113843253Y-37458599D01*
X113826777Y-37476777D01*
X113808599Y-37493253D01*
X113788893Y-37507868D01*
X113767850Y-37520480D01*
X113745671Y-37530970D01*
X113722572Y-37539235D01*
X113698773Y-37545196D01*
X113674505Y-37548796D01*
X113650001Y-37550000D01*
X112999999Y-37550000D01*
X112975495Y-37548796D01*
X112951227Y-37545196D01*
X112927428Y-37539235D01*
X112904329Y-37530970D01*
X112882150Y-37520480D01*
X112861107Y-37507868D01*
X112841401Y-37493253D01*
X112823223Y-37476777D01*
X112806747Y-37458599D01*
X112792132Y-37438893D01*
X112779520Y-37417850D01*
X112769030Y-37395671D01*
X112760765Y-37372572D01*
X112754804Y-37348773D01*
X112751204Y-37324505D01*
X112750000Y-37300001D01*
X112750000Y-36399999D01*
X112751204Y-36375495D01*
X112754804Y-36351227D01*
X112760765Y-36327428D01*
X112769030Y-36304329D01*
X112779520Y-36282150D01*
X112792132Y-36261107D01*
X112806747Y-36241401D01*
X112823223Y-36223223D01*
X112841401Y-36206747D01*
X112861107Y-36192132D01*
X112882150Y-36179520D01*
X112904329Y-36169030D01*
X112927428Y-36160765D01*
X112951227Y-36154804D01*
X112975495Y-36151204D01*
X112999999Y-36150000D01*
X113650001Y-36150000D01*
X113674505Y-36151204D01*
X113674505Y-36151204D01*
G37*
D12*
X113325000Y-36850000D03*
D11*
G36*
X111624505Y-36151204D02*
X111648773Y-36154804D01*
X111672572Y-36160765D01*
X111695671Y-36169030D01*
X111717850Y-36179520D01*
X111738893Y-36192132D01*
X111758599Y-36206747D01*
X111776777Y-36223223D01*
X111793253Y-36241401D01*
X111807868Y-36261107D01*
X111820480Y-36282150D01*
X111830970Y-36304329D01*
X111839235Y-36327428D01*
X111845196Y-36351227D01*
X111848796Y-36375495D01*
X111850000Y-36399999D01*
X111850000Y-37300001D01*
X111848796Y-37324505D01*
X111845196Y-37348773D01*
X111839235Y-37372572D01*
X111830970Y-37395671D01*
X111820480Y-37417850D01*
X111807868Y-37438893D01*
X111793253Y-37458599D01*
X111776777Y-37476777D01*
X111758599Y-37493253D01*
X111738893Y-37507868D01*
X111717850Y-37520480D01*
X111695671Y-37530970D01*
X111672572Y-37539235D01*
X111648773Y-37545196D01*
X111624505Y-37548796D01*
X111600001Y-37550000D01*
X110949999Y-37550000D01*
X110925495Y-37548796D01*
X110901227Y-37545196D01*
X110877428Y-37539235D01*
X110854329Y-37530970D01*
X110832150Y-37520480D01*
X110811107Y-37507868D01*
X110791401Y-37493253D01*
X110773223Y-37476777D01*
X110756747Y-37458599D01*
X110742132Y-37438893D01*
X110729520Y-37417850D01*
X110719030Y-37395671D01*
X110710765Y-37372572D01*
X110704804Y-37348773D01*
X110701204Y-37324505D01*
X110700000Y-37300001D01*
X110700000Y-36399999D01*
X110701204Y-36375495D01*
X110704804Y-36351227D01*
X110710765Y-36327428D01*
X110719030Y-36304329D01*
X110729520Y-36282150D01*
X110742132Y-36261107D01*
X110756747Y-36241401D01*
X110773223Y-36223223D01*
X110791401Y-36206747D01*
X110811107Y-36192132D01*
X110832150Y-36179520D01*
X110854329Y-36169030D01*
X110877428Y-36160765D01*
X110901227Y-36154804D01*
X110925495Y-36151204D01*
X110949999Y-36150000D01*
X111600001Y-36150000D01*
X111624505Y-36151204D01*
X111624505Y-36151204D01*
G37*
D12*
X111275000Y-36850000D03*
G04 #@! TD*
D13*
G04 #@! TO.C,U6*
X82000000Y-60650000D03*
D14*
X82000000Y-54350000D03*
X84300000Y-54350000D03*
X79700000Y-54350000D03*
G04 #@! TD*
D11*
G04 #@! TO.C,C11*
G36*
X84674505Y-47401204D02*
X84698773Y-47404804D01*
X84722572Y-47410765D01*
X84745671Y-47419030D01*
X84767850Y-47429520D01*
X84788893Y-47442132D01*
X84808599Y-47456747D01*
X84826777Y-47473223D01*
X84843253Y-47491401D01*
X84857868Y-47511107D01*
X84870480Y-47532150D01*
X84880970Y-47554329D01*
X84889235Y-47577428D01*
X84895196Y-47601227D01*
X84898796Y-47625495D01*
X84900000Y-47649999D01*
X84900000Y-48550001D01*
X84898796Y-48574505D01*
X84895196Y-48598773D01*
X84889235Y-48622572D01*
X84880970Y-48645671D01*
X84870480Y-48667850D01*
X84857868Y-48688893D01*
X84843253Y-48708599D01*
X84826777Y-48726777D01*
X84808599Y-48743253D01*
X84788893Y-48757868D01*
X84767850Y-48770480D01*
X84745671Y-48780970D01*
X84722572Y-48789235D01*
X84698773Y-48795196D01*
X84674505Y-48798796D01*
X84650001Y-48800000D01*
X83999999Y-48800000D01*
X83975495Y-48798796D01*
X83951227Y-48795196D01*
X83927428Y-48789235D01*
X83904329Y-48780970D01*
X83882150Y-48770480D01*
X83861107Y-48757868D01*
X83841401Y-48743253D01*
X83823223Y-48726777D01*
X83806747Y-48708599D01*
X83792132Y-48688893D01*
X83779520Y-48667850D01*
X83769030Y-48645671D01*
X83760765Y-48622572D01*
X83754804Y-48598773D01*
X83751204Y-48574505D01*
X83750000Y-48550001D01*
X83750000Y-47649999D01*
X83751204Y-47625495D01*
X83754804Y-47601227D01*
X83760765Y-47577428D01*
X83769030Y-47554329D01*
X83779520Y-47532150D01*
X83792132Y-47511107D01*
X83806747Y-47491401D01*
X83823223Y-47473223D01*
X83841401Y-47456747D01*
X83861107Y-47442132D01*
X83882150Y-47429520D01*
X83904329Y-47419030D01*
X83927428Y-47410765D01*
X83951227Y-47404804D01*
X83975495Y-47401204D01*
X83999999Y-47400000D01*
X84650001Y-47400000D01*
X84674505Y-47401204D01*
X84674505Y-47401204D01*
G37*
D12*
X84325000Y-48100000D03*
D11*
G36*
X82624505Y-47401204D02*
X82648773Y-47404804D01*
X82672572Y-47410765D01*
X82695671Y-47419030D01*
X82717850Y-47429520D01*
X82738893Y-47442132D01*
X82758599Y-47456747D01*
X82776777Y-47473223D01*
X82793253Y-47491401D01*
X82807868Y-47511107D01*
X82820480Y-47532150D01*
X82830970Y-47554329D01*
X82839235Y-47577428D01*
X82845196Y-47601227D01*
X82848796Y-47625495D01*
X82850000Y-47649999D01*
X82850000Y-48550001D01*
X82848796Y-48574505D01*
X82845196Y-48598773D01*
X82839235Y-48622572D01*
X82830970Y-48645671D01*
X82820480Y-48667850D01*
X82807868Y-48688893D01*
X82793253Y-48708599D01*
X82776777Y-48726777D01*
X82758599Y-48743253D01*
X82738893Y-48757868D01*
X82717850Y-48770480D01*
X82695671Y-48780970D01*
X82672572Y-48789235D01*
X82648773Y-48795196D01*
X82624505Y-48798796D01*
X82600001Y-48800000D01*
X81949999Y-48800000D01*
X81925495Y-48798796D01*
X81901227Y-48795196D01*
X81877428Y-48789235D01*
X81854329Y-48780970D01*
X81832150Y-48770480D01*
X81811107Y-48757868D01*
X81791401Y-48743253D01*
X81773223Y-48726777D01*
X81756747Y-48708599D01*
X81742132Y-48688893D01*
X81729520Y-48667850D01*
X81719030Y-48645671D01*
X81710765Y-48622572D01*
X81704804Y-48598773D01*
X81701204Y-48574505D01*
X81700000Y-48550001D01*
X81700000Y-47649999D01*
X81701204Y-47625495D01*
X81704804Y-47601227D01*
X81710765Y-47577428D01*
X81719030Y-47554329D01*
X81729520Y-47532150D01*
X81742132Y-47511107D01*
X81756747Y-47491401D01*
X81773223Y-47473223D01*
X81791401Y-47456747D01*
X81811107Y-47442132D01*
X81832150Y-47429520D01*
X81854329Y-47419030D01*
X81877428Y-47410765D01*
X81901227Y-47404804D01*
X81925495Y-47401204D01*
X81949999Y-47400000D01*
X82600001Y-47400000D01*
X82624505Y-47401204D01*
X82624505Y-47401204D01*
G37*
D12*
X82275000Y-48100000D03*
G04 #@! TD*
D11*
G04 #@! TO.C,C12*
G36*
X76474505Y-53851204D02*
X76498773Y-53854804D01*
X76522572Y-53860765D01*
X76545671Y-53869030D01*
X76567850Y-53879520D01*
X76588893Y-53892132D01*
X76608599Y-53906747D01*
X76626777Y-53923223D01*
X76643253Y-53941401D01*
X76657868Y-53961107D01*
X76670480Y-53982150D01*
X76680970Y-54004329D01*
X76689235Y-54027428D01*
X76695196Y-54051227D01*
X76698796Y-54075495D01*
X76700000Y-54099999D01*
X76700000Y-54750001D01*
X76698796Y-54774505D01*
X76695196Y-54798773D01*
X76689235Y-54822572D01*
X76680970Y-54845671D01*
X76670480Y-54867850D01*
X76657868Y-54888893D01*
X76643253Y-54908599D01*
X76626777Y-54926777D01*
X76608599Y-54943253D01*
X76588893Y-54957868D01*
X76567850Y-54970480D01*
X76545671Y-54980970D01*
X76522572Y-54989235D01*
X76498773Y-54995196D01*
X76474505Y-54998796D01*
X76450001Y-55000000D01*
X75549999Y-55000000D01*
X75525495Y-54998796D01*
X75501227Y-54995196D01*
X75477428Y-54989235D01*
X75454329Y-54980970D01*
X75432150Y-54970480D01*
X75411107Y-54957868D01*
X75391401Y-54943253D01*
X75373223Y-54926777D01*
X75356747Y-54908599D01*
X75342132Y-54888893D01*
X75329520Y-54867850D01*
X75319030Y-54845671D01*
X75310765Y-54822572D01*
X75304804Y-54798773D01*
X75301204Y-54774505D01*
X75300000Y-54750001D01*
X75300000Y-54099999D01*
X75301204Y-54075495D01*
X75304804Y-54051227D01*
X75310765Y-54027428D01*
X75319030Y-54004329D01*
X75329520Y-53982150D01*
X75342132Y-53961107D01*
X75356747Y-53941401D01*
X75373223Y-53923223D01*
X75391401Y-53906747D01*
X75411107Y-53892132D01*
X75432150Y-53879520D01*
X75454329Y-53869030D01*
X75477428Y-53860765D01*
X75501227Y-53854804D01*
X75525495Y-53851204D01*
X75549999Y-53850000D01*
X76450001Y-53850000D01*
X76474505Y-53851204D01*
X76474505Y-53851204D01*
G37*
D12*
X76000000Y-54425000D03*
D11*
G36*
X76474505Y-51801204D02*
X76498773Y-51804804D01*
X76522572Y-51810765D01*
X76545671Y-51819030D01*
X76567850Y-51829520D01*
X76588893Y-51842132D01*
X76608599Y-51856747D01*
X76626777Y-51873223D01*
X76643253Y-51891401D01*
X76657868Y-51911107D01*
X76670480Y-51932150D01*
X76680970Y-51954329D01*
X76689235Y-51977428D01*
X76695196Y-52001227D01*
X76698796Y-52025495D01*
X76700000Y-52049999D01*
X76700000Y-52700001D01*
X76698796Y-52724505D01*
X76695196Y-52748773D01*
X76689235Y-52772572D01*
X76680970Y-52795671D01*
X76670480Y-52817850D01*
X76657868Y-52838893D01*
X76643253Y-52858599D01*
X76626777Y-52876777D01*
X76608599Y-52893253D01*
X76588893Y-52907868D01*
X76567850Y-52920480D01*
X76545671Y-52930970D01*
X76522572Y-52939235D01*
X76498773Y-52945196D01*
X76474505Y-52948796D01*
X76450001Y-52950000D01*
X75549999Y-52950000D01*
X75525495Y-52948796D01*
X75501227Y-52945196D01*
X75477428Y-52939235D01*
X75454329Y-52930970D01*
X75432150Y-52920480D01*
X75411107Y-52907868D01*
X75391401Y-52893253D01*
X75373223Y-52876777D01*
X75356747Y-52858599D01*
X75342132Y-52838893D01*
X75329520Y-52817850D01*
X75319030Y-52795671D01*
X75310765Y-52772572D01*
X75304804Y-52748773D01*
X75301204Y-52724505D01*
X75300000Y-52700001D01*
X75300000Y-52049999D01*
X75301204Y-52025495D01*
X75304804Y-52001227D01*
X75310765Y-51977428D01*
X75319030Y-51954329D01*
X75329520Y-51932150D01*
X75342132Y-51911107D01*
X75356747Y-51891401D01*
X75373223Y-51873223D01*
X75391401Y-51856747D01*
X75411107Y-51842132D01*
X75432150Y-51829520D01*
X75454329Y-51819030D01*
X75477428Y-51810765D01*
X75501227Y-51804804D01*
X75525495Y-51801204D01*
X75549999Y-51800000D01*
X76450001Y-51800000D01*
X76474505Y-51801204D01*
X76474505Y-51801204D01*
G37*
D12*
X76000000Y-52375000D03*
G04 #@! TD*
D11*
G04 #@! TO.C,C13*
G36*
X80874505Y-46651204D02*
X80898773Y-46654804D01*
X80922572Y-46660765D01*
X80945671Y-46669030D01*
X80967850Y-46679520D01*
X80988893Y-46692132D01*
X81008599Y-46706747D01*
X81026777Y-46723223D01*
X81043253Y-46741401D01*
X81057868Y-46761107D01*
X81070480Y-46782150D01*
X81080970Y-46804329D01*
X81089235Y-46827428D01*
X81095196Y-46851227D01*
X81098796Y-46875495D01*
X81100000Y-46899999D01*
X81100000Y-47550001D01*
X81098796Y-47574505D01*
X81095196Y-47598773D01*
X81089235Y-47622572D01*
X81080970Y-47645671D01*
X81070480Y-47667850D01*
X81057868Y-47688893D01*
X81043253Y-47708599D01*
X81026777Y-47726777D01*
X81008599Y-47743253D01*
X80988893Y-47757868D01*
X80967850Y-47770480D01*
X80945671Y-47780970D01*
X80922572Y-47789235D01*
X80898773Y-47795196D01*
X80874505Y-47798796D01*
X80850001Y-47800000D01*
X79949999Y-47800000D01*
X79925495Y-47798796D01*
X79901227Y-47795196D01*
X79877428Y-47789235D01*
X79854329Y-47780970D01*
X79832150Y-47770480D01*
X79811107Y-47757868D01*
X79791401Y-47743253D01*
X79773223Y-47726777D01*
X79756747Y-47708599D01*
X79742132Y-47688893D01*
X79729520Y-47667850D01*
X79719030Y-47645671D01*
X79710765Y-47622572D01*
X79704804Y-47598773D01*
X79701204Y-47574505D01*
X79700000Y-47550001D01*
X79700000Y-46899999D01*
X79701204Y-46875495D01*
X79704804Y-46851227D01*
X79710765Y-46827428D01*
X79719030Y-46804329D01*
X79729520Y-46782150D01*
X79742132Y-46761107D01*
X79756747Y-46741401D01*
X79773223Y-46723223D01*
X79791401Y-46706747D01*
X79811107Y-46692132D01*
X79832150Y-46679520D01*
X79854329Y-46669030D01*
X79877428Y-46660765D01*
X79901227Y-46654804D01*
X79925495Y-46651204D01*
X79949999Y-46650000D01*
X80850001Y-46650000D01*
X80874505Y-46651204D01*
X80874505Y-46651204D01*
G37*
D12*
X80400000Y-47225000D03*
D11*
G36*
X80874505Y-48701204D02*
X80898773Y-48704804D01*
X80922572Y-48710765D01*
X80945671Y-48719030D01*
X80967850Y-48729520D01*
X80988893Y-48742132D01*
X81008599Y-48756747D01*
X81026777Y-48773223D01*
X81043253Y-48791401D01*
X81057868Y-48811107D01*
X81070480Y-48832150D01*
X81080970Y-48854329D01*
X81089235Y-48877428D01*
X81095196Y-48901227D01*
X81098796Y-48925495D01*
X81100000Y-48949999D01*
X81100000Y-49600001D01*
X81098796Y-49624505D01*
X81095196Y-49648773D01*
X81089235Y-49672572D01*
X81080970Y-49695671D01*
X81070480Y-49717850D01*
X81057868Y-49738893D01*
X81043253Y-49758599D01*
X81026777Y-49776777D01*
X81008599Y-49793253D01*
X80988893Y-49807868D01*
X80967850Y-49820480D01*
X80945671Y-49830970D01*
X80922572Y-49839235D01*
X80898773Y-49845196D01*
X80874505Y-49848796D01*
X80850001Y-49850000D01*
X79949999Y-49850000D01*
X79925495Y-49848796D01*
X79901227Y-49845196D01*
X79877428Y-49839235D01*
X79854329Y-49830970D01*
X79832150Y-49820480D01*
X79811107Y-49807868D01*
X79791401Y-49793253D01*
X79773223Y-49776777D01*
X79756747Y-49758599D01*
X79742132Y-49738893D01*
X79729520Y-49717850D01*
X79719030Y-49695671D01*
X79710765Y-49672572D01*
X79704804Y-49648773D01*
X79701204Y-49624505D01*
X79700000Y-49600001D01*
X79700000Y-48949999D01*
X79701204Y-48925495D01*
X79704804Y-48901227D01*
X79710765Y-48877428D01*
X79719030Y-48854329D01*
X79729520Y-48832150D01*
X79742132Y-48811107D01*
X79756747Y-48791401D01*
X79773223Y-48773223D01*
X79791401Y-48756747D01*
X79811107Y-48742132D01*
X79832150Y-48729520D01*
X79854329Y-48719030D01*
X79877428Y-48710765D01*
X79901227Y-48704804D01*
X79925495Y-48701204D01*
X79949999Y-48700000D01*
X80850001Y-48700000D01*
X80874505Y-48701204D01*
X80874505Y-48701204D01*
G37*
D12*
X80400000Y-49275000D03*
G04 #@! TD*
D11*
G04 #@! TO.C,C14*
G36*
X84824505Y-63651204D02*
X84848773Y-63654804D01*
X84872572Y-63660765D01*
X84895671Y-63669030D01*
X84917850Y-63679520D01*
X84938893Y-63692132D01*
X84958599Y-63706747D01*
X84976777Y-63723223D01*
X84993253Y-63741401D01*
X85007868Y-63761107D01*
X85020480Y-63782150D01*
X85030970Y-63804329D01*
X85039235Y-63827428D01*
X85045196Y-63851227D01*
X85048796Y-63875495D01*
X85050000Y-63899999D01*
X85050000Y-64800001D01*
X85048796Y-64824505D01*
X85045196Y-64848773D01*
X85039235Y-64872572D01*
X85030970Y-64895671D01*
X85020480Y-64917850D01*
X85007868Y-64938893D01*
X84993253Y-64958599D01*
X84976777Y-64976777D01*
X84958599Y-64993253D01*
X84938893Y-65007868D01*
X84917850Y-65020480D01*
X84895671Y-65030970D01*
X84872572Y-65039235D01*
X84848773Y-65045196D01*
X84824505Y-65048796D01*
X84800001Y-65050000D01*
X84149999Y-65050000D01*
X84125495Y-65048796D01*
X84101227Y-65045196D01*
X84077428Y-65039235D01*
X84054329Y-65030970D01*
X84032150Y-65020480D01*
X84011107Y-65007868D01*
X83991401Y-64993253D01*
X83973223Y-64976777D01*
X83956747Y-64958599D01*
X83942132Y-64938893D01*
X83929520Y-64917850D01*
X83919030Y-64895671D01*
X83910765Y-64872572D01*
X83904804Y-64848773D01*
X83901204Y-64824505D01*
X83900000Y-64800001D01*
X83900000Y-63899999D01*
X83901204Y-63875495D01*
X83904804Y-63851227D01*
X83910765Y-63827428D01*
X83919030Y-63804329D01*
X83929520Y-63782150D01*
X83942132Y-63761107D01*
X83956747Y-63741401D01*
X83973223Y-63723223D01*
X83991401Y-63706747D01*
X84011107Y-63692132D01*
X84032150Y-63679520D01*
X84054329Y-63669030D01*
X84077428Y-63660765D01*
X84101227Y-63654804D01*
X84125495Y-63651204D01*
X84149999Y-63650000D01*
X84800001Y-63650000D01*
X84824505Y-63651204D01*
X84824505Y-63651204D01*
G37*
D12*
X84475000Y-64350000D03*
D11*
G36*
X86874505Y-63651204D02*
X86898773Y-63654804D01*
X86922572Y-63660765D01*
X86945671Y-63669030D01*
X86967850Y-63679520D01*
X86988893Y-63692132D01*
X87008599Y-63706747D01*
X87026777Y-63723223D01*
X87043253Y-63741401D01*
X87057868Y-63761107D01*
X87070480Y-63782150D01*
X87080970Y-63804329D01*
X87089235Y-63827428D01*
X87095196Y-63851227D01*
X87098796Y-63875495D01*
X87100000Y-63899999D01*
X87100000Y-64800001D01*
X87098796Y-64824505D01*
X87095196Y-64848773D01*
X87089235Y-64872572D01*
X87080970Y-64895671D01*
X87070480Y-64917850D01*
X87057868Y-64938893D01*
X87043253Y-64958599D01*
X87026777Y-64976777D01*
X87008599Y-64993253D01*
X86988893Y-65007868D01*
X86967850Y-65020480D01*
X86945671Y-65030970D01*
X86922572Y-65039235D01*
X86898773Y-65045196D01*
X86874505Y-65048796D01*
X86850001Y-65050000D01*
X86199999Y-65050000D01*
X86175495Y-65048796D01*
X86151227Y-65045196D01*
X86127428Y-65039235D01*
X86104329Y-65030970D01*
X86082150Y-65020480D01*
X86061107Y-65007868D01*
X86041401Y-64993253D01*
X86023223Y-64976777D01*
X86006747Y-64958599D01*
X85992132Y-64938893D01*
X85979520Y-64917850D01*
X85969030Y-64895671D01*
X85960765Y-64872572D01*
X85954804Y-64848773D01*
X85951204Y-64824505D01*
X85950000Y-64800001D01*
X85950000Y-63899999D01*
X85951204Y-63875495D01*
X85954804Y-63851227D01*
X85960765Y-63827428D01*
X85969030Y-63804329D01*
X85979520Y-63782150D01*
X85992132Y-63761107D01*
X86006747Y-63741401D01*
X86023223Y-63723223D01*
X86041401Y-63706747D01*
X86061107Y-63692132D01*
X86082150Y-63679520D01*
X86104329Y-63669030D01*
X86127428Y-63660765D01*
X86151227Y-63654804D01*
X86175495Y-63651204D01*
X86199999Y-63650000D01*
X86850001Y-63650000D01*
X86874505Y-63651204D01*
X86874505Y-63651204D01*
G37*
D12*
X86525000Y-64350000D03*
G04 #@! TD*
D11*
G04 #@! TO.C,C18*
G36*
X71711332Y-56527980D02*
X71735600Y-56531580D01*
X71759399Y-56537541D01*
X71782498Y-56545806D01*
X71804677Y-56556296D01*
X71825720Y-56568908D01*
X71845426Y-56583523D01*
X71863604Y-56599999D01*
X72500001Y-57236396D01*
X72516477Y-57254574D01*
X72531092Y-57274280D01*
X72543704Y-57295323D01*
X72554194Y-57317502D01*
X72562459Y-57340601D01*
X72568420Y-57364400D01*
X72572020Y-57388668D01*
X72573224Y-57413172D01*
X72572020Y-57437676D01*
X72568420Y-57461944D01*
X72562459Y-57485743D01*
X72554194Y-57508842D01*
X72543704Y-57531021D01*
X72531092Y-57552064D01*
X72516477Y-57571770D01*
X72500001Y-57589948D01*
X72040380Y-58049569D01*
X72022202Y-58066045D01*
X72002496Y-58080660D01*
X71981453Y-58093272D01*
X71959274Y-58103762D01*
X71936175Y-58112027D01*
X71912376Y-58117988D01*
X71888108Y-58121588D01*
X71863604Y-58122792D01*
X71839100Y-58121588D01*
X71814832Y-58117988D01*
X71791033Y-58112027D01*
X71767934Y-58103762D01*
X71745755Y-58093272D01*
X71724712Y-58080660D01*
X71705006Y-58066045D01*
X71686828Y-58049569D01*
X71050431Y-57413172D01*
X71033955Y-57394994D01*
X71019340Y-57375288D01*
X71006728Y-57354245D01*
X70996238Y-57332066D01*
X70987973Y-57308967D01*
X70982012Y-57285168D01*
X70978412Y-57260900D01*
X70977208Y-57236396D01*
X70978412Y-57211892D01*
X70982012Y-57187624D01*
X70987973Y-57163825D01*
X70996238Y-57140726D01*
X71006728Y-57118547D01*
X71019340Y-57097504D01*
X71033955Y-57077798D01*
X71050431Y-57059620D01*
X71510052Y-56599999D01*
X71528230Y-56583523D01*
X71547936Y-56568908D01*
X71568979Y-56556296D01*
X71591158Y-56545806D01*
X71614257Y-56537541D01*
X71638056Y-56531580D01*
X71662324Y-56527980D01*
X71686828Y-56526776D01*
X71711332Y-56527980D01*
X71711332Y-56527980D01*
G37*
D12*
X71775216Y-57324784D03*
D11*
G36*
X73160900Y-55078412D02*
X73185168Y-55082012D01*
X73208967Y-55087973D01*
X73232066Y-55096238D01*
X73254245Y-55106728D01*
X73275288Y-55119340D01*
X73294994Y-55133955D01*
X73313172Y-55150431D01*
X73949569Y-55786828D01*
X73966045Y-55805006D01*
X73980660Y-55824712D01*
X73993272Y-55845755D01*
X74003762Y-55867934D01*
X74012027Y-55891033D01*
X74017988Y-55914832D01*
X74021588Y-55939100D01*
X74022792Y-55963604D01*
X74021588Y-55988108D01*
X74017988Y-56012376D01*
X74012027Y-56036175D01*
X74003762Y-56059274D01*
X73993272Y-56081453D01*
X73980660Y-56102496D01*
X73966045Y-56122202D01*
X73949569Y-56140380D01*
X73489948Y-56600001D01*
X73471770Y-56616477D01*
X73452064Y-56631092D01*
X73431021Y-56643704D01*
X73408842Y-56654194D01*
X73385743Y-56662459D01*
X73361944Y-56668420D01*
X73337676Y-56672020D01*
X73313172Y-56673224D01*
X73288668Y-56672020D01*
X73264400Y-56668420D01*
X73240601Y-56662459D01*
X73217502Y-56654194D01*
X73195323Y-56643704D01*
X73174280Y-56631092D01*
X73154574Y-56616477D01*
X73136396Y-56600001D01*
X72499999Y-55963604D01*
X72483523Y-55945426D01*
X72468908Y-55925720D01*
X72456296Y-55904677D01*
X72445806Y-55882498D01*
X72437541Y-55859399D01*
X72431580Y-55835600D01*
X72427980Y-55811332D01*
X72426776Y-55786828D01*
X72427980Y-55762324D01*
X72431580Y-55738056D01*
X72437541Y-55714257D01*
X72445806Y-55691158D01*
X72456296Y-55668979D01*
X72468908Y-55647936D01*
X72483523Y-55628230D01*
X72499999Y-55610052D01*
X72959620Y-55150431D01*
X72977798Y-55133955D01*
X72997504Y-55119340D01*
X73018547Y-55106728D01*
X73040726Y-55096238D01*
X73063825Y-55087973D01*
X73087624Y-55082012D01*
X73111892Y-55078412D01*
X73136396Y-55077208D01*
X73160900Y-55078412D01*
X73160900Y-55078412D01*
G37*
D12*
X73224784Y-55875216D03*
G04 #@! TD*
D11*
G04 #@! TO.C,C10*
G36*
X79374505Y-63901204D02*
X79398773Y-63904804D01*
X79422572Y-63910765D01*
X79445671Y-63919030D01*
X79467850Y-63929520D01*
X79488893Y-63942132D01*
X79508599Y-63956747D01*
X79526777Y-63973223D01*
X79543253Y-63991401D01*
X79557868Y-64011107D01*
X79570480Y-64032150D01*
X79580970Y-64054329D01*
X79589235Y-64077428D01*
X79595196Y-64101227D01*
X79598796Y-64125495D01*
X79600000Y-64149999D01*
X79600000Y-65050001D01*
X79598796Y-65074505D01*
X79595196Y-65098773D01*
X79589235Y-65122572D01*
X79580970Y-65145671D01*
X79570480Y-65167850D01*
X79557868Y-65188893D01*
X79543253Y-65208599D01*
X79526777Y-65226777D01*
X79508599Y-65243253D01*
X79488893Y-65257868D01*
X79467850Y-65270480D01*
X79445671Y-65280970D01*
X79422572Y-65289235D01*
X79398773Y-65295196D01*
X79374505Y-65298796D01*
X79350001Y-65300000D01*
X78699999Y-65300000D01*
X78675495Y-65298796D01*
X78651227Y-65295196D01*
X78627428Y-65289235D01*
X78604329Y-65280970D01*
X78582150Y-65270480D01*
X78561107Y-65257868D01*
X78541401Y-65243253D01*
X78523223Y-65226777D01*
X78506747Y-65208599D01*
X78492132Y-65188893D01*
X78479520Y-65167850D01*
X78469030Y-65145671D01*
X78460765Y-65122572D01*
X78454804Y-65098773D01*
X78451204Y-65074505D01*
X78450000Y-65050001D01*
X78450000Y-64149999D01*
X78451204Y-64125495D01*
X78454804Y-64101227D01*
X78460765Y-64077428D01*
X78469030Y-64054329D01*
X78479520Y-64032150D01*
X78492132Y-64011107D01*
X78506747Y-63991401D01*
X78523223Y-63973223D01*
X78541401Y-63956747D01*
X78561107Y-63942132D01*
X78582150Y-63929520D01*
X78604329Y-63919030D01*
X78627428Y-63910765D01*
X78651227Y-63904804D01*
X78675495Y-63901204D01*
X78699999Y-63900000D01*
X79350001Y-63900000D01*
X79374505Y-63901204D01*
X79374505Y-63901204D01*
G37*
D12*
X79025000Y-64600000D03*
D11*
G36*
X77324505Y-63901204D02*
X77348773Y-63904804D01*
X77372572Y-63910765D01*
X77395671Y-63919030D01*
X77417850Y-63929520D01*
X77438893Y-63942132D01*
X77458599Y-63956747D01*
X77476777Y-63973223D01*
X77493253Y-63991401D01*
X77507868Y-64011107D01*
X77520480Y-64032150D01*
X77530970Y-64054329D01*
X77539235Y-64077428D01*
X77545196Y-64101227D01*
X77548796Y-64125495D01*
X77550000Y-64149999D01*
X77550000Y-65050001D01*
X77548796Y-65074505D01*
X77545196Y-65098773D01*
X77539235Y-65122572D01*
X77530970Y-65145671D01*
X77520480Y-65167850D01*
X77507868Y-65188893D01*
X77493253Y-65208599D01*
X77476777Y-65226777D01*
X77458599Y-65243253D01*
X77438893Y-65257868D01*
X77417850Y-65270480D01*
X77395671Y-65280970D01*
X77372572Y-65289235D01*
X77348773Y-65295196D01*
X77324505Y-65298796D01*
X77300001Y-65300000D01*
X76649999Y-65300000D01*
X76625495Y-65298796D01*
X76601227Y-65295196D01*
X76577428Y-65289235D01*
X76554329Y-65280970D01*
X76532150Y-65270480D01*
X76511107Y-65257868D01*
X76491401Y-65243253D01*
X76473223Y-65226777D01*
X76456747Y-65208599D01*
X76442132Y-65188893D01*
X76429520Y-65167850D01*
X76419030Y-65145671D01*
X76410765Y-65122572D01*
X76404804Y-65098773D01*
X76401204Y-65074505D01*
X76400000Y-65050001D01*
X76400000Y-64149999D01*
X76401204Y-64125495D01*
X76404804Y-64101227D01*
X76410765Y-64077428D01*
X76419030Y-64054329D01*
X76429520Y-64032150D01*
X76442132Y-64011107D01*
X76456747Y-63991401D01*
X76473223Y-63973223D01*
X76491401Y-63956747D01*
X76511107Y-63942132D01*
X76532150Y-63929520D01*
X76554329Y-63919030D01*
X76577428Y-63910765D01*
X76601227Y-63904804D01*
X76625495Y-63901204D01*
X76649999Y-63900000D01*
X77300001Y-63900000D01*
X77324505Y-63901204D01*
X77324505Y-63901204D01*
G37*
D12*
X76975000Y-64600000D03*
G04 #@! TD*
D11*
G04 #@! TO.C,C22*
G36*
X37374505Y-56501204D02*
X37398773Y-56504804D01*
X37422572Y-56510765D01*
X37445671Y-56519030D01*
X37467850Y-56529520D01*
X37488893Y-56542132D01*
X37508599Y-56556747D01*
X37526777Y-56573223D01*
X37543253Y-56591401D01*
X37557868Y-56611107D01*
X37570480Y-56632150D01*
X37580970Y-56654329D01*
X37589235Y-56677428D01*
X37595196Y-56701227D01*
X37598796Y-56725495D01*
X37600000Y-56749999D01*
X37600000Y-57650001D01*
X37598796Y-57674505D01*
X37595196Y-57698773D01*
X37589235Y-57722572D01*
X37580970Y-57745671D01*
X37570480Y-57767850D01*
X37557868Y-57788893D01*
X37543253Y-57808599D01*
X37526777Y-57826777D01*
X37508599Y-57843253D01*
X37488893Y-57857868D01*
X37467850Y-57870480D01*
X37445671Y-57880970D01*
X37422572Y-57889235D01*
X37398773Y-57895196D01*
X37374505Y-57898796D01*
X37350001Y-57900000D01*
X36699999Y-57900000D01*
X36675495Y-57898796D01*
X36651227Y-57895196D01*
X36627428Y-57889235D01*
X36604329Y-57880970D01*
X36582150Y-57870480D01*
X36561107Y-57857868D01*
X36541401Y-57843253D01*
X36523223Y-57826777D01*
X36506747Y-57808599D01*
X36492132Y-57788893D01*
X36479520Y-57767850D01*
X36469030Y-57745671D01*
X36460765Y-57722572D01*
X36454804Y-57698773D01*
X36451204Y-57674505D01*
X36450000Y-57650001D01*
X36450000Y-56749999D01*
X36451204Y-56725495D01*
X36454804Y-56701227D01*
X36460765Y-56677428D01*
X36469030Y-56654329D01*
X36479520Y-56632150D01*
X36492132Y-56611107D01*
X36506747Y-56591401D01*
X36523223Y-56573223D01*
X36541401Y-56556747D01*
X36561107Y-56542132D01*
X36582150Y-56529520D01*
X36604329Y-56519030D01*
X36627428Y-56510765D01*
X36651227Y-56504804D01*
X36675495Y-56501204D01*
X36699999Y-56500000D01*
X37350001Y-56500000D01*
X37374505Y-56501204D01*
X37374505Y-56501204D01*
G37*
D12*
X37025000Y-57200000D03*
D11*
G36*
X35324505Y-56501204D02*
X35348773Y-56504804D01*
X35372572Y-56510765D01*
X35395671Y-56519030D01*
X35417850Y-56529520D01*
X35438893Y-56542132D01*
X35458599Y-56556747D01*
X35476777Y-56573223D01*
X35493253Y-56591401D01*
X35507868Y-56611107D01*
X35520480Y-56632150D01*
X35530970Y-56654329D01*
X35539235Y-56677428D01*
X35545196Y-56701227D01*
X35548796Y-56725495D01*
X35550000Y-56749999D01*
X35550000Y-57650001D01*
X35548796Y-57674505D01*
X35545196Y-57698773D01*
X35539235Y-57722572D01*
X35530970Y-57745671D01*
X35520480Y-57767850D01*
X35507868Y-57788893D01*
X35493253Y-57808599D01*
X35476777Y-57826777D01*
X35458599Y-57843253D01*
X35438893Y-57857868D01*
X35417850Y-57870480D01*
X35395671Y-57880970D01*
X35372572Y-57889235D01*
X35348773Y-57895196D01*
X35324505Y-57898796D01*
X35300001Y-57900000D01*
X34649999Y-57900000D01*
X34625495Y-57898796D01*
X34601227Y-57895196D01*
X34577428Y-57889235D01*
X34554329Y-57880970D01*
X34532150Y-57870480D01*
X34511107Y-57857868D01*
X34491401Y-57843253D01*
X34473223Y-57826777D01*
X34456747Y-57808599D01*
X34442132Y-57788893D01*
X34429520Y-57767850D01*
X34419030Y-57745671D01*
X34410765Y-57722572D01*
X34404804Y-57698773D01*
X34401204Y-57674505D01*
X34400000Y-57650001D01*
X34400000Y-56749999D01*
X34401204Y-56725495D01*
X34404804Y-56701227D01*
X34410765Y-56677428D01*
X34419030Y-56654329D01*
X34429520Y-56632150D01*
X34442132Y-56611107D01*
X34456747Y-56591401D01*
X34473223Y-56573223D01*
X34491401Y-56556747D01*
X34511107Y-56542132D01*
X34532150Y-56529520D01*
X34554329Y-56519030D01*
X34577428Y-56510765D01*
X34601227Y-56504804D01*
X34625495Y-56501204D01*
X34649999Y-56500000D01*
X35300001Y-56500000D01*
X35324505Y-56501204D01*
X35324505Y-56501204D01*
G37*
D12*
X34975000Y-57200000D03*
G04 #@! TD*
D11*
G04 #@! TO.C,C24*
G36*
X43024505Y-36151204D02*
X43048773Y-36154804D01*
X43072572Y-36160765D01*
X43095671Y-36169030D01*
X43117850Y-36179520D01*
X43138893Y-36192132D01*
X43158599Y-36206747D01*
X43176777Y-36223223D01*
X43193253Y-36241401D01*
X43207868Y-36261107D01*
X43220480Y-36282150D01*
X43230970Y-36304329D01*
X43239235Y-36327428D01*
X43245196Y-36351227D01*
X43248796Y-36375495D01*
X43250000Y-36399999D01*
X43250000Y-37300001D01*
X43248796Y-37324505D01*
X43245196Y-37348773D01*
X43239235Y-37372572D01*
X43230970Y-37395671D01*
X43220480Y-37417850D01*
X43207868Y-37438893D01*
X43193253Y-37458599D01*
X43176777Y-37476777D01*
X43158599Y-37493253D01*
X43138893Y-37507868D01*
X43117850Y-37520480D01*
X43095671Y-37530970D01*
X43072572Y-37539235D01*
X43048773Y-37545196D01*
X43024505Y-37548796D01*
X43000001Y-37550000D01*
X42349999Y-37550000D01*
X42325495Y-37548796D01*
X42301227Y-37545196D01*
X42277428Y-37539235D01*
X42254329Y-37530970D01*
X42232150Y-37520480D01*
X42211107Y-37507868D01*
X42191401Y-37493253D01*
X42173223Y-37476777D01*
X42156747Y-37458599D01*
X42142132Y-37438893D01*
X42129520Y-37417850D01*
X42119030Y-37395671D01*
X42110765Y-37372572D01*
X42104804Y-37348773D01*
X42101204Y-37324505D01*
X42100000Y-37300001D01*
X42100000Y-36399999D01*
X42101204Y-36375495D01*
X42104804Y-36351227D01*
X42110765Y-36327428D01*
X42119030Y-36304329D01*
X42129520Y-36282150D01*
X42142132Y-36261107D01*
X42156747Y-36241401D01*
X42173223Y-36223223D01*
X42191401Y-36206747D01*
X42211107Y-36192132D01*
X42232150Y-36179520D01*
X42254329Y-36169030D01*
X42277428Y-36160765D01*
X42301227Y-36154804D01*
X42325495Y-36151204D01*
X42349999Y-36150000D01*
X43000001Y-36150000D01*
X43024505Y-36151204D01*
X43024505Y-36151204D01*
G37*
D12*
X42675000Y-36850000D03*
D11*
G36*
X45074505Y-36151204D02*
X45098773Y-36154804D01*
X45122572Y-36160765D01*
X45145671Y-36169030D01*
X45167850Y-36179520D01*
X45188893Y-36192132D01*
X45208599Y-36206747D01*
X45226777Y-36223223D01*
X45243253Y-36241401D01*
X45257868Y-36261107D01*
X45270480Y-36282150D01*
X45280970Y-36304329D01*
X45289235Y-36327428D01*
X45295196Y-36351227D01*
X45298796Y-36375495D01*
X45300000Y-36399999D01*
X45300000Y-37300001D01*
X45298796Y-37324505D01*
X45295196Y-37348773D01*
X45289235Y-37372572D01*
X45280970Y-37395671D01*
X45270480Y-37417850D01*
X45257868Y-37438893D01*
X45243253Y-37458599D01*
X45226777Y-37476777D01*
X45208599Y-37493253D01*
X45188893Y-37507868D01*
X45167850Y-37520480D01*
X45145671Y-37530970D01*
X45122572Y-37539235D01*
X45098773Y-37545196D01*
X45074505Y-37548796D01*
X45050001Y-37550000D01*
X44399999Y-37550000D01*
X44375495Y-37548796D01*
X44351227Y-37545196D01*
X44327428Y-37539235D01*
X44304329Y-37530970D01*
X44282150Y-37520480D01*
X44261107Y-37507868D01*
X44241401Y-37493253D01*
X44223223Y-37476777D01*
X44206747Y-37458599D01*
X44192132Y-37438893D01*
X44179520Y-37417850D01*
X44169030Y-37395671D01*
X44160765Y-37372572D01*
X44154804Y-37348773D01*
X44151204Y-37324505D01*
X44150000Y-37300001D01*
X44150000Y-36399999D01*
X44151204Y-36375495D01*
X44154804Y-36351227D01*
X44160765Y-36327428D01*
X44169030Y-36304329D01*
X44179520Y-36282150D01*
X44192132Y-36261107D01*
X44206747Y-36241401D01*
X44223223Y-36223223D01*
X44241401Y-36206747D01*
X44261107Y-36192132D01*
X44282150Y-36179520D01*
X44304329Y-36169030D01*
X44327428Y-36160765D01*
X44351227Y-36154804D01*
X44375495Y-36151204D01*
X44399999Y-36150000D01*
X45050001Y-36150000D01*
X45074505Y-36151204D01*
X45074505Y-36151204D01*
G37*
D12*
X44725000Y-36850000D03*
G04 #@! TD*
D11*
G04 #@! TO.C,C26*
G36*
X87124505Y-53351204D02*
X87148773Y-53354804D01*
X87172572Y-53360765D01*
X87195671Y-53369030D01*
X87217850Y-53379520D01*
X87238893Y-53392132D01*
X87258599Y-53406747D01*
X87276777Y-53423223D01*
X87293253Y-53441401D01*
X87307868Y-53461107D01*
X87320480Y-53482150D01*
X87330970Y-53504329D01*
X87339235Y-53527428D01*
X87345196Y-53551227D01*
X87348796Y-53575495D01*
X87350000Y-53599999D01*
X87350000Y-54250001D01*
X87348796Y-54274505D01*
X87345196Y-54298773D01*
X87339235Y-54322572D01*
X87330970Y-54345671D01*
X87320480Y-54367850D01*
X87307868Y-54388893D01*
X87293253Y-54408599D01*
X87276777Y-54426777D01*
X87258599Y-54443253D01*
X87238893Y-54457868D01*
X87217850Y-54470480D01*
X87195671Y-54480970D01*
X87172572Y-54489235D01*
X87148773Y-54495196D01*
X87124505Y-54498796D01*
X87100001Y-54500000D01*
X86199999Y-54500000D01*
X86175495Y-54498796D01*
X86151227Y-54495196D01*
X86127428Y-54489235D01*
X86104329Y-54480970D01*
X86082150Y-54470480D01*
X86061107Y-54457868D01*
X86041401Y-54443253D01*
X86023223Y-54426777D01*
X86006747Y-54408599D01*
X85992132Y-54388893D01*
X85979520Y-54367850D01*
X85969030Y-54345671D01*
X85960765Y-54322572D01*
X85954804Y-54298773D01*
X85951204Y-54274505D01*
X85950000Y-54250001D01*
X85950000Y-53599999D01*
X85951204Y-53575495D01*
X85954804Y-53551227D01*
X85960765Y-53527428D01*
X85969030Y-53504329D01*
X85979520Y-53482150D01*
X85992132Y-53461107D01*
X86006747Y-53441401D01*
X86023223Y-53423223D01*
X86041401Y-53406747D01*
X86061107Y-53392132D01*
X86082150Y-53379520D01*
X86104329Y-53369030D01*
X86127428Y-53360765D01*
X86151227Y-53354804D01*
X86175495Y-53351204D01*
X86199999Y-53350000D01*
X87100001Y-53350000D01*
X87124505Y-53351204D01*
X87124505Y-53351204D01*
G37*
D12*
X86650000Y-53925000D03*
D11*
G36*
X87124505Y-55401204D02*
X87148773Y-55404804D01*
X87172572Y-55410765D01*
X87195671Y-55419030D01*
X87217850Y-55429520D01*
X87238893Y-55442132D01*
X87258599Y-55456747D01*
X87276777Y-55473223D01*
X87293253Y-55491401D01*
X87307868Y-55511107D01*
X87320480Y-55532150D01*
X87330970Y-55554329D01*
X87339235Y-55577428D01*
X87345196Y-55601227D01*
X87348796Y-55625495D01*
X87350000Y-55649999D01*
X87350000Y-56300001D01*
X87348796Y-56324505D01*
X87345196Y-56348773D01*
X87339235Y-56372572D01*
X87330970Y-56395671D01*
X87320480Y-56417850D01*
X87307868Y-56438893D01*
X87293253Y-56458599D01*
X87276777Y-56476777D01*
X87258599Y-56493253D01*
X87238893Y-56507868D01*
X87217850Y-56520480D01*
X87195671Y-56530970D01*
X87172572Y-56539235D01*
X87148773Y-56545196D01*
X87124505Y-56548796D01*
X87100001Y-56550000D01*
X86199999Y-56550000D01*
X86175495Y-56548796D01*
X86151227Y-56545196D01*
X86127428Y-56539235D01*
X86104329Y-56530970D01*
X86082150Y-56520480D01*
X86061107Y-56507868D01*
X86041401Y-56493253D01*
X86023223Y-56476777D01*
X86006747Y-56458599D01*
X85992132Y-56438893D01*
X85979520Y-56417850D01*
X85969030Y-56395671D01*
X85960765Y-56372572D01*
X85954804Y-56348773D01*
X85951204Y-56324505D01*
X85950000Y-56300001D01*
X85950000Y-55649999D01*
X85951204Y-55625495D01*
X85954804Y-55601227D01*
X85960765Y-55577428D01*
X85969030Y-55554329D01*
X85979520Y-55532150D01*
X85992132Y-55511107D01*
X86006747Y-55491401D01*
X86023223Y-55473223D01*
X86041401Y-55456747D01*
X86061107Y-55442132D01*
X86082150Y-55429520D01*
X86104329Y-55419030D01*
X86127428Y-55410765D01*
X86151227Y-55404804D01*
X86175495Y-55401204D01*
X86199999Y-55400000D01*
X87100001Y-55400000D01*
X87124505Y-55401204D01*
X87124505Y-55401204D01*
G37*
D12*
X86650000Y-55975000D03*
G04 #@! TD*
D11*
G04 #@! TO.C,C28*
G36*
X82224505Y-51251204D02*
X82248773Y-51254804D01*
X82272572Y-51260765D01*
X82295671Y-51269030D01*
X82317850Y-51279520D01*
X82338893Y-51292132D01*
X82358599Y-51306747D01*
X82376777Y-51323223D01*
X82393253Y-51341401D01*
X82407868Y-51361107D01*
X82420480Y-51382150D01*
X82430970Y-51404329D01*
X82439235Y-51427428D01*
X82445196Y-51451227D01*
X82448796Y-51475495D01*
X82450000Y-51499999D01*
X82450000Y-52400001D01*
X82448796Y-52424505D01*
X82445196Y-52448773D01*
X82439235Y-52472572D01*
X82430970Y-52495671D01*
X82420480Y-52517850D01*
X82407868Y-52538893D01*
X82393253Y-52558599D01*
X82376777Y-52576777D01*
X82358599Y-52593253D01*
X82338893Y-52607868D01*
X82317850Y-52620480D01*
X82295671Y-52630970D01*
X82272572Y-52639235D01*
X82248773Y-52645196D01*
X82224505Y-52648796D01*
X82200001Y-52650000D01*
X81549999Y-52650000D01*
X81525495Y-52648796D01*
X81501227Y-52645196D01*
X81477428Y-52639235D01*
X81454329Y-52630970D01*
X81432150Y-52620480D01*
X81411107Y-52607868D01*
X81391401Y-52593253D01*
X81373223Y-52576777D01*
X81356747Y-52558599D01*
X81342132Y-52538893D01*
X81329520Y-52517850D01*
X81319030Y-52495671D01*
X81310765Y-52472572D01*
X81304804Y-52448773D01*
X81301204Y-52424505D01*
X81300000Y-52400001D01*
X81300000Y-51499999D01*
X81301204Y-51475495D01*
X81304804Y-51451227D01*
X81310765Y-51427428D01*
X81319030Y-51404329D01*
X81329520Y-51382150D01*
X81342132Y-51361107D01*
X81356747Y-51341401D01*
X81373223Y-51323223D01*
X81391401Y-51306747D01*
X81411107Y-51292132D01*
X81432150Y-51279520D01*
X81454329Y-51269030D01*
X81477428Y-51260765D01*
X81501227Y-51254804D01*
X81525495Y-51251204D01*
X81549999Y-51250000D01*
X82200001Y-51250000D01*
X82224505Y-51251204D01*
X82224505Y-51251204D01*
G37*
D12*
X81875000Y-51950000D03*
D11*
G36*
X80174505Y-51251204D02*
X80198773Y-51254804D01*
X80222572Y-51260765D01*
X80245671Y-51269030D01*
X80267850Y-51279520D01*
X80288893Y-51292132D01*
X80308599Y-51306747D01*
X80326777Y-51323223D01*
X80343253Y-51341401D01*
X80357868Y-51361107D01*
X80370480Y-51382150D01*
X80380970Y-51404329D01*
X80389235Y-51427428D01*
X80395196Y-51451227D01*
X80398796Y-51475495D01*
X80400000Y-51499999D01*
X80400000Y-52400001D01*
X80398796Y-52424505D01*
X80395196Y-52448773D01*
X80389235Y-52472572D01*
X80380970Y-52495671D01*
X80370480Y-52517850D01*
X80357868Y-52538893D01*
X80343253Y-52558599D01*
X80326777Y-52576777D01*
X80308599Y-52593253D01*
X80288893Y-52607868D01*
X80267850Y-52620480D01*
X80245671Y-52630970D01*
X80222572Y-52639235D01*
X80198773Y-52645196D01*
X80174505Y-52648796D01*
X80150001Y-52650000D01*
X79499999Y-52650000D01*
X79475495Y-52648796D01*
X79451227Y-52645196D01*
X79427428Y-52639235D01*
X79404329Y-52630970D01*
X79382150Y-52620480D01*
X79361107Y-52607868D01*
X79341401Y-52593253D01*
X79323223Y-52576777D01*
X79306747Y-52558599D01*
X79292132Y-52538893D01*
X79279520Y-52517850D01*
X79269030Y-52495671D01*
X79260765Y-52472572D01*
X79254804Y-52448773D01*
X79251204Y-52424505D01*
X79250000Y-52400001D01*
X79250000Y-51499999D01*
X79251204Y-51475495D01*
X79254804Y-51451227D01*
X79260765Y-51427428D01*
X79269030Y-51404329D01*
X79279520Y-51382150D01*
X79292132Y-51361107D01*
X79306747Y-51341401D01*
X79323223Y-51323223D01*
X79341401Y-51306747D01*
X79361107Y-51292132D01*
X79382150Y-51279520D01*
X79404329Y-51269030D01*
X79427428Y-51260765D01*
X79451227Y-51254804D01*
X79475495Y-51251204D01*
X79499999Y-51250000D01*
X80150001Y-51250000D01*
X80174505Y-51251204D01*
X80174505Y-51251204D01*
G37*
D12*
X79825000Y-51950000D03*
G04 #@! TD*
D15*
G04 #@! TO.C,Q1*
X27800000Y-59100000D03*
X25900000Y-59100000D03*
X26850000Y-56700000D03*
G04 #@! TD*
D11*
G04 #@! TO.C,R9*
G36*
X38974505Y-53001204D02*
X38998773Y-53004804D01*
X39022572Y-53010765D01*
X39045671Y-53019030D01*
X39067850Y-53029520D01*
X39088893Y-53042132D01*
X39108599Y-53056747D01*
X39126777Y-53073223D01*
X39143253Y-53091401D01*
X39157868Y-53111107D01*
X39170480Y-53132150D01*
X39180970Y-53154329D01*
X39189235Y-53177428D01*
X39195196Y-53201227D01*
X39198796Y-53225495D01*
X39200000Y-53249999D01*
X39200000Y-54150001D01*
X39198796Y-54174505D01*
X39195196Y-54198773D01*
X39189235Y-54222572D01*
X39180970Y-54245671D01*
X39170480Y-54267850D01*
X39157868Y-54288893D01*
X39143253Y-54308599D01*
X39126777Y-54326777D01*
X39108599Y-54343253D01*
X39088893Y-54357868D01*
X39067850Y-54370480D01*
X39045671Y-54380970D01*
X39022572Y-54389235D01*
X38998773Y-54395196D01*
X38974505Y-54398796D01*
X38950001Y-54400000D01*
X38299999Y-54400000D01*
X38275495Y-54398796D01*
X38251227Y-54395196D01*
X38227428Y-54389235D01*
X38204329Y-54380970D01*
X38182150Y-54370480D01*
X38161107Y-54357868D01*
X38141401Y-54343253D01*
X38123223Y-54326777D01*
X38106747Y-54308599D01*
X38092132Y-54288893D01*
X38079520Y-54267850D01*
X38069030Y-54245671D01*
X38060765Y-54222572D01*
X38054804Y-54198773D01*
X38051204Y-54174505D01*
X38050000Y-54150001D01*
X38050000Y-53249999D01*
X38051204Y-53225495D01*
X38054804Y-53201227D01*
X38060765Y-53177428D01*
X38069030Y-53154329D01*
X38079520Y-53132150D01*
X38092132Y-53111107D01*
X38106747Y-53091401D01*
X38123223Y-53073223D01*
X38141401Y-53056747D01*
X38161107Y-53042132D01*
X38182150Y-53029520D01*
X38204329Y-53019030D01*
X38227428Y-53010765D01*
X38251227Y-53004804D01*
X38275495Y-53001204D01*
X38299999Y-53000000D01*
X38950001Y-53000000D01*
X38974505Y-53001204D01*
X38974505Y-53001204D01*
G37*
D12*
X38625000Y-53700000D03*
D11*
G36*
X36924505Y-53001204D02*
X36948773Y-53004804D01*
X36972572Y-53010765D01*
X36995671Y-53019030D01*
X37017850Y-53029520D01*
X37038893Y-53042132D01*
X37058599Y-53056747D01*
X37076777Y-53073223D01*
X37093253Y-53091401D01*
X37107868Y-53111107D01*
X37120480Y-53132150D01*
X37130970Y-53154329D01*
X37139235Y-53177428D01*
X37145196Y-53201227D01*
X37148796Y-53225495D01*
X37150000Y-53249999D01*
X37150000Y-54150001D01*
X37148796Y-54174505D01*
X37145196Y-54198773D01*
X37139235Y-54222572D01*
X37130970Y-54245671D01*
X37120480Y-54267850D01*
X37107868Y-54288893D01*
X37093253Y-54308599D01*
X37076777Y-54326777D01*
X37058599Y-54343253D01*
X37038893Y-54357868D01*
X37017850Y-54370480D01*
X36995671Y-54380970D01*
X36972572Y-54389235D01*
X36948773Y-54395196D01*
X36924505Y-54398796D01*
X36900001Y-54400000D01*
X36249999Y-54400000D01*
X36225495Y-54398796D01*
X36201227Y-54395196D01*
X36177428Y-54389235D01*
X36154329Y-54380970D01*
X36132150Y-54370480D01*
X36111107Y-54357868D01*
X36091401Y-54343253D01*
X36073223Y-54326777D01*
X36056747Y-54308599D01*
X36042132Y-54288893D01*
X36029520Y-54267850D01*
X36019030Y-54245671D01*
X36010765Y-54222572D01*
X36004804Y-54198773D01*
X36001204Y-54174505D01*
X36000000Y-54150001D01*
X36000000Y-53249999D01*
X36001204Y-53225495D01*
X36004804Y-53201227D01*
X36010765Y-53177428D01*
X36019030Y-53154329D01*
X36029520Y-53132150D01*
X36042132Y-53111107D01*
X36056747Y-53091401D01*
X36073223Y-53073223D01*
X36091401Y-53056747D01*
X36111107Y-53042132D01*
X36132150Y-53029520D01*
X36154329Y-53019030D01*
X36177428Y-53010765D01*
X36201227Y-53004804D01*
X36225495Y-53001204D01*
X36249999Y-53000000D01*
X36900001Y-53000000D01*
X36924505Y-53001204D01*
X36924505Y-53001204D01*
G37*
D12*
X36575000Y-53700000D03*
G04 #@! TD*
D11*
G04 #@! TO.C,R7*
G36*
X61524505Y-51201204D02*
X61548773Y-51204804D01*
X61572572Y-51210765D01*
X61595671Y-51219030D01*
X61617850Y-51229520D01*
X61638893Y-51242132D01*
X61658599Y-51256747D01*
X61676777Y-51273223D01*
X61693253Y-51291401D01*
X61707868Y-51311107D01*
X61720480Y-51332150D01*
X61730970Y-51354329D01*
X61739235Y-51377428D01*
X61745196Y-51401227D01*
X61748796Y-51425495D01*
X61750000Y-51449999D01*
X61750000Y-52350001D01*
X61748796Y-52374505D01*
X61745196Y-52398773D01*
X61739235Y-52422572D01*
X61730970Y-52445671D01*
X61720480Y-52467850D01*
X61707868Y-52488893D01*
X61693253Y-52508599D01*
X61676777Y-52526777D01*
X61658599Y-52543253D01*
X61638893Y-52557868D01*
X61617850Y-52570480D01*
X61595671Y-52580970D01*
X61572572Y-52589235D01*
X61548773Y-52595196D01*
X61524505Y-52598796D01*
X61500001Y-52600000D01*
X60849999Y-52600000D01*
X60825495Y-52598796D01*
X60801227Y-52595196D01*
X60777428Y-52589235D01*
X60754329Y-52580970D01*
X60732150Y-52570480D01*
X60711107Y-52557868D01*
X60691401Y-52543253D01*
X60673223Y-52526777D01*
X60656747Y-52508599D01*
X60642132Y-52488893D01*
X60629520Y-52467850D01*
X60619030Y-52445671D01*
X60610765Y-52422572D01*
X60604804Y-52398773D01*
X60601204Y-52374505D01*
X60600000Y-52350001D01*
X60600000Y-51449999D01*
X60601204Y-51425495D01*
X60604804Y-51401227D01*
X60610765Y-51377428D01*
X60619030Y-51354329D01*
X60629520Y-51332150D01*
X60642132Y-51311107D01*
X60656747Y-51291401D01*
X60673223Y-51273223D01*
X60691401Y-51256747D01*
X60711107Y-51242132D01*
X60732150Y-51229520D01*
X60754329Y-51219030D01*
X60777428Y-51210765D01*
X60801227Y-51204804D01*
X60825495Y-51201204D01*
X60849999Y-51200000D01*
X61500001Y-51200000D01*
X61524505Y-51201204D01*
X61524505Y-51201204D01*
G37*
D12*
X61175000Y-51900000D03*
D11*
G36*
X63574505Y-51201204D02*
X63598773Y-51204804D01*
X63622572Y-51210765D01*
X63645671Y-51219030D01*
X63667850Y-51229520D01*
X63688893Y-51242132D01*
X63708599Y-51256747D01*
X63726777Y-51273223D01*
X63743253Y-51291401D01*
X63757868Y-51311107D01*
X63770480Y-51332150D01*
X63780970Y-51354329D01*
X63789235Y-51377428D01*
X63795196Y-51401227D01*
X63798796Y-51425495D01*
X63800000Y-51449999D01*
X63800000Y-52350001D01*
X63798796Y-52374505D01*
X63795196Y-52398773D01*
X63789235Y-52422572D01*
X63780970Y-52445671D01*
X63770480Y-52467850D01*
X63757868Y-52488893D01*
X63743253Y-52508599D01*
X63726777Y-52526777D01*
X63708599Y-52543253D01*
X63688893Y-52557868D01*
X63667850Y-52570480D01*
X63645671Y-52580970D01*
X63622572Y-52589235D01*
X63598773Y-52595196D01*
X63574505Y-52598796D01*
X63550001Y-52600000D01*
X62899999Y-52600000D01*
X62875495Y-52598796D01*
X62851227Y-52595196D01*
X62827428Y-52589235D01*
X62804329Y-52580970D01*
X62782150Y-52570480D01*
X62761107Y-52557868D01*
X62741401Y-52543253D01*
X62723223Y-52526777D01*
X62706747Y-52508599D01*
X62692132Y-52488893D01*
X62679520Y-52467850D01*
X62669030Y-52445671D01*
X62660765Y-52422572D01*
X62654804Y-52398773D01*
X62651204Y-52374505D01*
X62650000Y-52350001D01*
X62650000Y-51449999D01*
X62651204Y-51425495D01*
X62654804Y-51401227D01*
X62660765Y-51377428D01*
X62669030Y-51354329D01*
X62679520Y-51332150D01*
X62692132Y-51311107D01*
X62706747Y-51291401D01*
X62723223Y-51273223D01*
X62741401Y-51256747D01*
X62761107Y-51242132D01*
X62782150Y-51229520D01*
X62804329Y-51219030D01*
X62827428Y-51210765D01*
X62851227Y-51204804D01*
X62875495Y-51201204D01*
X62899999Y-51200000D01*
X63550001Y-51200000D01*
X63574505Y-51201204D01*
X63574505Y-51201204D01*
G37*
D12*
X63225000Y-51900000D03*
G04 #@! TD*
D11*
G04 #@! TO.C,R5*
G36*
X58061332Y-49027980D02*
X58085600Y-49031580D01*
X58109399Y-49037541D01*
X58132498Y-49045806D01*
X58154677Y-49056296D01*
X58175720Y-49068908D01*
X58195426Y-49083523D01*
X58213604Y-49099999D01*
X58850001Y-49736396D01*
X58866477Y-49754574D01*
X58881092Y-49774280D01*
X58893704Y-49795323D01*
X58904194Y-49817502D01*
X58912459Y-49840601D01*
X58918420Y-49864400D01*
X58922020Y-49888668D01*
X58923224Y-49913172D01*
X58922020Y-49937676D01*
X58918420Y-49961944D01*
X58912459Y-49985743D01*
X58904194Y-50008842D01*
X58893704Y-50031021D01*
X58881092Y-50052064D01*
X58866477Y-50071770D01*
X58850001Y-50089948D01*
X58390380Y-50549569D01*
X58372202Y-50566045D01*
X58352496Y-50580660D01*
X58331453Y-50593272D01*
X58309274Y-50603762D01*
X58286175Y-50612027D01*
X58262376Y-50617988D01*
X58238108Y-50621588D01*
X58213604Y-50622792D01*
X58189100Y-50621588D01*
X58164832Y-50617988D01*
X58141033Y-50612027D01*
X58117934Y-50603762D01*
X58095755Y-50593272D01*
X58074712Y-50580660D01*
X58055006Y-50566045D01*
X58036828Y-50549569D01*
X57400431Y-49913172D01*
X57383955Y-49894994D01*
X57369340Y-49875288D01*
X57356728Y-49854245D01*
X57346238Y-49832066D01*
X57337973Y-49808967D01*
X57332012Y-49785168D01*
X57328412Y-49760900D01*
X57327208Y-49736396D01*
X57328412Y-49711892D01*
X57332012Y-49687624D01*
X57337973Y-49663825D01*
X57346238Y-49640726D01*
X57356728Y-49618547D01*
X57369340Y-49597504D01*
X57383955Y-49577798D01*
X57400431Y-49559620D01*
X57860052Y-49099999D01*
X57878230Y-49083523D01*
X57897936Y-49068908D01*
X57918979Y-49056296D01*
X57941158Y-49045806D01*
X57964257Y-49037541D01*
X57988056Y-49031580D01*
X58012324Y-49027980D01*
X58036828Y-49026776D01*
X58061332Y-49027980D01*
X58061332Y-49027980D01*
G37*
D12*
X58125216Y-49824784D03*
D11*
G36*
X59510900Y-47578412D02*
X59535168Y-47582012D01*
X59558967Y-47587973D01*
X59582066Y-47596238D01*
X59604245Y-47606728D01*
X59625288Y-47619340D01*
X59644994Y-47633955D01*
X59663172Y-47650431D01*
X60299569Y-48286828D01*
X60316045Y-48305006D01*
X60330660Y-48324712D01*
X60343272Y-48345755D01*
X60353762Y-48367934D01*
X60362027Y-48391033D01*
X60367988Y-48414832D01*
X60371588Y-48439100D01*
X60372792Y-48463604D01*
X60371588Y-48488108D01*
X60367988Y-48512376D01*
X60362027Y-48536175D01*
X60353762Y-48559274D01*
X60343272Y-48581453D01*
X60330660Y-48602496D01*
X60316045Y-48622202D01*
X60299569Y-48640380D01*
X59839948Y-49100001D01*
X59821770Y-49116477D01*
X59802064Y-49131092D01*
X59781021Y-49143704D01*
X59758842Y-49154194D01*
X59735743Y-49162459D01*
X59711944Y-49168420D01*
X59687676Y-49172020D01*
X59663172Y-49173224D01*
X59638668Y-49172020D01*
X59614400Y-49168420D01*
X59590601Y-49162459D01*
X59567502Y-49154194D01*
X59545323Y-49143704D01*
X59524280Y-49131092D01*
X59504574Y-49116477D01*
X59486396Y-49100001D01*
X58849999Y-48463604D01*
X58833523Y-48445426D01*
X58818908Y-48425720D01*
X58806296Y-48404677D01*
X58795806Y-48382498D01*
X58787541Y-48359399D01*
X58781580Y-48335600D01*
X58777980Y-48311332D01*
X58776776Y-48286828D01*
X58777980Y-48262324D01*
X58781580Y-48238056D01*
X58787541Y-48214257D01*
X58795806Y-48191158D01*
X58806296Y-48168979D01*
X58818908Y-48147936D01*
X58833523Y-48128230D01*
X58849999Y-48110052D01*
X59309620Y-47650431D01*
X59327798Y-47633955D01*
X59347504Y-47619340D01*
X59368547Y-47606728D01*
X59390726Y-47596238D01*
X59413825Y-47587973D01*
X59437624Y-47582012D01*
X59461892Y-47578412D01*
X59486396Y-47577208D01*
X59510900Y-47578412D01*
X59510900Y-47578412D01*
G37*
D12*
X59574784Y-48375216D03*
G04 #@! TD*
M02*
