G04 #@! TF.GenerationSoftware,KiCad,Pcbnew,5.0.2+dfsg1-1*
G04 #@! TF.CreationDate,2020-03-15T18:18:09-04:00*
G04 #@! TF.ProjectId,hx4k_pmod,6878346b-5f70-46d6-9f64-2e6b69636164,rev?*
G04 #@! TF.SameCoordinates,Original*
G04 #@! TF.FileFunction,Legend,Bot*
G04 #@! TF.FilePolarity,Positive*
%FSLAX46Y46*%
G04 Gerber Fmt 4.6, Leading zero omitted, Abs format (unit mm)*
G04 Created by KiCad (PCBNEW 5.0.2+dfsg1-1) date Sun 15 Mar 2020 06:18:09 PM EDT*
%MOMM*%
%LPD*%
G01*
G04 APERTURE LIST*
%ADD10C,0.300000*%
%ADD11C,0.200000*%
%ADD12C,0.150000*%
%ADD13C,0.120000*%
G04 APERTURE END LIST*
D10*
X99447857Y-55678571D02*
X99447857Y-54178571D01*
X99090714Y-54178571D01*
X98876428Y-54250000D01*
X98733571Y-54392857D01*
X98662142Y-54535714D01*
X98590714Y-54821428D01*
X98590714Y-55035714D01*
X98662142Y-55321428D01*
X98733571Y-55464285D01*
X98876428Y-55607142D01*
X99090714Y-55678571D01*
X99447857Y-55678571D01*
X98019285Y-55250000D02*
X97305000Y-55250000D01*
X98162142Y-55678571D02*
X97662142Y-54178571D01*
X97162142Y-55678571D01*
X96876428Y-54178571D02*
X96019285Y-54178571D01*
X96447857Y-55678571D02*
X96447857Y-54178571D01*
X95590714Y-55250000D02*
X94876428Y-55250000D01*
X95733571Y-55678571D02*
X95233571Y-54178571D01*
X94733571Y-55678571D01*
X99447857Y-53678571D02*
X99447857Y-52178571D01*
X99090714Y-52178571D01*
X98876428Y-52250000D01*
X98733571Y-52392857D01*
X98662142Y-52535714D01*
X98590714Y-52821428D01*
X98590714Y-53035714D01*
X98662142Y-53321428D01*
X98733571Y-53464285D01*
X98876428Y-53607142D01*
X99090714Y-53678571D01*
X99447857Y-53678571D01*
X98019285Y-53250000D02*
X97305000Y-53250000D01*
X98162142Y-53678571D02*
X97662142Y-52178571D01*
X97162142Y-53678571D01*
X96876428Y-52178571D02*
X96019285Y-52178571D01*
X96447857Y-53678571D02*
X96447857Y-52178571D01*
X95590714Y-53250000D02*
X94876428Y-53250000D01*
X95733571Y-53678571D02*
X95233571Y-52178571D01*
X94733571Y-53678571D01*
X99447857Y-51678571D02*
X99447857Y-50178571D01*
X99090714Y-50178571D01*
X98876428Y-50250000D01*
X98733571Y-50392857D01*
X98662142Y-50535714D01*
X98590714Y-50821428D01*
X98590714Y-51035714D01*
X98662142Y-51321428D01*
X98733571Y-51464285D01*
X98876428Y-51607142D01*
X99090714Y-51678571D01*
X99447857Y-51678571D01*
X98019285Y-51250000D02*
X97305000Y-51250000D01*
X98162142Y-51678571D02*
X97662142Y-50178571D01*
X97162142Y-51678571D01*
X96876428Y-50178571D02*
X96019285Y-50178571D01*
X96447857Y-51678571D02*
X96447857Y-50178571D01*
X95590714Y-51250000D02*
X94876428Y-51250000D01*
X95733571Y-51678571D02*
X95233571Y-50178571D01*
X94733571Y-51678571D01*
D11*
X107000000Y-44000000D02*
X111000000Y-44000000D01*
X112166666Y-41452380D02*
X112166666Y-40452380D01*
X111785714Y-40452380D01*
X111690476Y-40500000D01*
X111642857Y-40547619D01*
X111595238Y-40642857D01*
X111595238Y-40785714D01*
X111642857Y-40880952D01*
X111690476Y-40928571D01*
X111785714Y-40976190D01*
X112166666Y-40976190D01*
X111166666Y-41452380D02*
X111166666Y-40452380D01*
X110833333Y-41166666D01*
X110500000Y-40452380D01*
X110500000Y-41452380D01*
X109833333Y-40452380D02*
X109642857Y-40452380D01*
X109547619Y-40500000D01*
X109452380Y-40595238D01*
X109404761Y-40785714D01*
X109404761Y-41119047D01*
X109452380Y-41309523D01*
X109547619Y-41404761D01*
X109642857Y-41452380D01*
X109833333Y-41452380D01*
X109928571Y-41404761D01*
X110023809Y-41309523D01*
X110071428Y-41119047D01*
X110071428Y-40785714D01*
X110023809Y-40595238D01*
X109928571Y-40500000D01*
X109833333Y-40452380D01*
X108976190Y-41452380D02*
X108976190Y-40452380D01*
X108738095Y-40452380D01*
X108595238Y-40500000D01*
X108500000Y-40595238D01*
X108452380Y-40690476D01*
X108404761Y-40880952D01*
X108404761Y-41023809D01*
X108452380Y-41214285D01*
X108500000Y-41309523D01*
X108595238Y-41404761D01*
X108738095Y-41452380D01*
X108976190Y-41452380D01*
X107214285Y-41452380D02*
X107214285Y-40452380D01*
X106833333Y-40452380D01*
X106738095Y-40500000D01*
X106690476Y-40547619D01*
X106642857Y-40642857D01*
X106642857Y-40785714D01*
X106690476Y-40880952D01*
X106738095Y-40928571D01*
X106833333Y-40976190D01*
X107214285Y-40976190D01*
X106214285Y-41452380D02*
X106214285Y-40785714D01*
X106214285Y-40452380D02*
X106261904Y-40500000D01*
X106214285Y-40547619D01*
X106166666Y-40500000D01*
X106214285Y-40452380D01*
X106214285Y-40547619D01*
X105738095Y-40785714D02*
X105738095Y-41452380D01*
X105738095Y-40880952D02*
X105690476Y-40833333D01*
X105595238Y-40785714D01*
X105452380Y-40785714D01*
X105357142Y-40833333D01*
X105309523Y-40928571D01*
X105309523Y-41452380D01*
X104690476Y-41452380D02*
X104785714Y-41404761D01*
X104833333Y-41357142D01*
X104880952Y-41261904D01*
X104880952Y-40976190D01*
X104833333Y-40880952D01*
X104785714Y-40833333D01*
X104690476Y-40785714D01*
X104547619Y-40785714D01*
X104452380Y-40833333D01*
X104404761Y-40880952D01*
X104357142Y-40976190D01*
X104357142Y-41261904D01*
X104404761Y-41357142D01*
X104452380Y-41404761D01*
X104547619Y-41452380D01*
X104690476Y-41452380D01*
X103500000Y-40785714D02*
X103500000Y-41452380D01*
X103928571Y-40785714D02*
X103928571Y-41309523D01*
X103880952Y-41404761D01*
X103785714Y-41452380D01*
X103642857Y-41452380D01*
X103547619Y-41404761D01*
X103500000Y-41357142D01*
X103166666Y-40785714D02*
X102785714Y-40785714D01*
X103023809Y-40452380D02*
X103023809Y-41309523D01*
X102976190Y-41404761D01*
X102880952Y-41452380D01*
X102785714Y-41452380D01*
X101404761Y-41833333D02*
X101452380Y-41785714D01*
X101547619Y-41642857D01*
X101595238Y-41547619D01*
X101642857Y-41404761D01*
X101690476Y-41166666D01*
X101690476Y-40976190D01*
X101642857Y-40738095D01*
X101595238Y-40595238D01*
X101547619Y-40500000D01*
X101452380Y-40357142D01*
X101404761Y-40309523D01*
X101166666Y-40785714D02*
X100785714Y-40785714D01*
X101023809Y-41452380D02*
X101023809Y-40595238D01*
X100976190Y-40500000D01*
X100880952Y-40452380D01*
X100785714Y-40452380D01*
X100452380Y-41452380D02*
X100452380Y-40785714D01*
X100452380Y-40976190D02*
X100404761Y-40880952D01*
X100357142Y-40833333D01*
X100261904Y-40785714D01*
X100166666Y-40785714D01*
X99690476Y-41452380D02*
X99785714Y-41404761D01*
X99833333Y-41357142D01*
X99880952Y-41261904D01*
X99880952Y-40976190D01*
X99833333Y-40880952D01*
X99785714Y-40833333D01*
X99690476Y-40785714D01*
X99547619Y-40785714D01*
X99452380Y-40833333D01*
X99404761Y-40880952D01*
X99357142Y-40976190D01*
X99357142Y-41261904D01*
X99404761Y-41357142D01*
X99452380Y-41404761D01*
X99547619Y-41452380D01*
X99690476Y-41452380D01*
X98928571Y-41452380D02*
X98928571Y-40785714D01*
X98928571Y-40880952D02*
X98880952Y-40833333D01*
X98785714Y-40785714D01*
X98642857Y-40785714D01*
X98547619Y-40833333D01*
X98500000Y-40928571D01*
X98500000Y-41452380D01*
X98500000Y-40928571D02*
X98452380Y-40833333D01*
X98357142Y-40785714D01*
X98214285Y-40785714D01*
X98119047Y-40833333D01*
X98071428Y-40928571D01*
X98071428Y-41452380D01*
X96404761Y-41452380D02*
X96404761Y-40928571D01*
X96452380Y-40833333D01*
X96547619Y-40785714D01*
X96738095Y-40785714D01*
X96833333Y-40833333D01*
X96404761Y-41404761D02*
X96500000Y-41452380D01*
X96738095Y-41452380D01*
X96833333Y-41404761D01*
X96880952Y-41309523D01*
X96880952Y-41214285D01*
X96833333Y-41119047D01*
X96738095Y-41071428D01*
X96500000Y-41071428D01*
X96404761Y-41023809D01*
X95928571Y-41452380D02*
X95928571Y-40452380D01*
X95928571Y-40833333D02*
X95833333Y-40785714D01*
X95642857Y-40785714D01*
X95547619Y-40833333D01*
X95500000Y-40880952D01*
X95452380Y-40976190D01*
X95452380Y-41261904D01*
X95500000Y-41357142D01*
X95547619Y-41404761D01*
X95642857Y-41452380D01*
X95833333Y-41452380D01*
X95928571Y-41404761D01*
X94880952Y-41452380D02*
X94976190Y-41404761D01*
X95023809Y-41357142D01*
X95071428Y-41261904D01*
X95071428Y-40976190D01*
X95023809Y-40880952D01*
X94976190Y-40833333D01*
X94880952Y-40785714D01*
X94738095Y-40785714D01*
X94642857Y-40833333D01*
X94595238Y-40880952D01*
X94547619Y-40976190D01*
X94547619Y-41261904D01*
X94595238Y-41357142D01*
X94642857Y-41404761D01*
X94738095Y-41452380D01*
X94880952Y-41452380D01*
X94214285Y-40785714D02*
X93976190Y-41452380D01*
X93738095Y-40785714D01*
X92976190Y-41404761D02*
X93071428Y-41452380D01*
X93261904Y-41452380D01*
X93357142Y-41404761D01*
X93404761Y-41309523D01*
X93404761Y-40928571D01*
X93357142Y-40833333D01*
X93261904Y-40785714D01*
X93071428Y-40785714D01*
X92976190Y-40833333D01*
X92928571Y-40928571D01*
X92928571Y-41023809D01*
X93404761Y-41119047D01*
X92595238Y-41833333D02*
X92547619Y-41785714D01*
X92452380Y-41642857D01*
X92404761Y-41547619D01*
X92357142Y-41404761D01*
X92309523Y-41166666D01*
X92309523Y-40976190D01*
X92357142Y-40738095D01*
X92404761Y-40595238D01*
X92452380Y-40500000D01*
X92547619Y-40357142D01*
X92595238Y-40309523D01*
X91833333Y-41357142D02*
X91785714Y-41404761D01*
X91833333Y-41452380D01*
X91880952Y-41404761D01*
X91833333Y-41357142D01*
X91833333Y-41452380D01*
X91833333Y-40833333D02*
X91785714Y-40880952D01*
X91833333Y-40928571D01*
X91880952Y-40880952D01*
X91833333Y-40833333D01*
X91833333Y-40928571D01*
D10*
X99447857Y-49678571D02*
X99447857Y-48178571D01*
X99090714Y-48178571D01*
X98876428Y-48250000D01*
X98733571Y-48392857D01*
X98662142Y-48535714D01*
X98590714Y-48821428D01*
X98590714Y-49035714D01*
X98662142Y-49321428D01*
X98733571Y-49464285D01*
X98876428Y-49607142D01*
X99090714Y-49678571D01*
X99447857Y-49678571D01*
X98019285Y-49250000D02*
X97305000Y-49250000D01*
X98162142Y-49678571D02*
X97662142Y-48178571D01*
X97162142Y-49678571D01*
X96876428Y-48178571D02*
X96019285Y-48178571D01*
X96447857Y-49678571D02*
X96447857Y-48178571D01*
X95590714Y-49250000D02*
X94876428Y-49250000D01*
X95733571Y-49678571D02*
X95233571Y-48178571D01*
X94733571Y-49678571D01*
X98662142Y-46250000D02*
X98805000Y-46178571D01*
X99019285Y-46178571D01*
X99233571Y-46250000D01*
X99376428Y-46392857D01*
X99447857Y-46535714D01*
X99519285Y-46821428D01*
X99519285Y-47035714D01*
X99447857Y-47321428D01*
X99376428Y-47464285D01*
X99233571Y-47607142D01*
X99019285Y-47678571D01*
X98876428Y-47678571D01*
X98662142Y-47607142D01*
X98590714Y-47535714D01*
X98590714Y-47035714D01*
X98876428Y-47035714D01*
X97947857Y-47678571D02*
X97947857Y-46178571D01*
X97090714Y-47678571D01*
X97090714Y-46178571D01*
X96376428Y-47678571D02*
X96376428Y-46178571D01*
X96019285Y-46178571D01*
X95805000Y-46250000D01*
X95662142Y-46392857D01*
X95590714Y-46535714D01*
X95519285Y-46821428D01*
X95519285Y-47035714D01*
X95590714Y-47321428D01*
X95662142Y-47464285D01*
X95805000Y-47607142D01*
X96019285Y-47678571D01*
X96376428Y-47678571D01*
X99590714Y-44178571D02*
X98662142Y-44178571D01*
X99162142Y-44750000D01*
X98947857Y-44750000D01*
X98805000Y-44821428D01*
X98733571Y-44892857D01*
X98662142Y-45035714D01*
X98662142Y-45392857D01*
X98733571Y-45535714D01*
X98805000Y-45607142D01*
X98947857Y-45678571D01*
X99376428Y-45678571D01*
X99519285Y-45607142D01*
X99590714Y-45535714D01*
X98233571Y-44178571D02*
X97733571Y-45678571D01*
X97233571Y-44178571D01*
X96876428Y-44178571D02*
X95947857Y-44178571D01*
X96447857Y-44750000D01*
X96233571Y-44750000D01*
X96090714Y-44821428D01*
X96019285Y-44892857D01*
X95947857Y-45035714D01*
X95947857Y-45392857D01*
X96019285Y-45535714D01*
X96090714Y-45607142D01*
X96233571Y-45678571D01*
X96662142Y-45678571D01*
X96805000Y-45607142D01*
X96876428Y-45535714D01*
D11*
X107000000Y-56002908D02*
X107000000Y-44002908D01*
X111000000Y-44000000D02*
X111000000Y-56002908D01*
D12*
G36*
X111000000Y-44002908D02*
X111000000Y-46002908D01*
X107000000Y-46002908D01*
X107000000Y-44002908D01*
X111000000Y-44002908D01*
G37*
X111000000Y-44002908D02*
X111000000Y-46002908D01*
X107000000Y-46002908D01*
X107000000Y-44002908D01*
X111000000Y-44002908D01*
D11*
X107000000Y-56002908D02*
X111000000Y-56002908D01*
X107000000Y-54002908D02*
X111000000Y-54002908D01*
X107000000Y-52002908D02*
X111000000Y-52002908D01*
X107000000Y-50002908D02*
X111000000Y-50002908D01*
X107000000Y-48002908D02*
X111000000Y-48002908D01*
D10*
X105285714Y-55678571D02*
X106142857Y-55678571D01*
X105714285Y-55678571D02*
X105714285Y-54178571D01*
X105857142Y-54392857D01*
X106000000Y-54535714D01*
X106142857Y-54607142D01*
X104714285Y-54321428D02*
X104642857Y-54250000D01*
X104500000Y-54178571D01*
X104142857Y-54178571D01*
X104000000Y-54250000D01*
X103928571Y-54321428D01*
X103857142Y-54464285D01*
X103857142Y-54607142D01*
X103928571Y-54821428D01*
X104785714Y-55678571D01*
X103857142Y-55678571D01*
X102285714Y-55678571D02*
X103142857Y-55678571D01*
X102714285Y-55678571D02*
X102714285Y-54178571D01*
X102857142Y-54392857D01*
X103000000Y-54535714D01*
X103142857Y-54607142D01*
X100857142Y-55678571D02*
X101714285Y-55678571D01*
X101285714Y-55678571D02*
X101285714Y-54178571D01*
X101428571Y-54392857D01*
X101571428Y-54535714D01*
X101714285Y-54607142D01*
X102285714Y-53678571D02*
X102000000Y-53678571D01*
X101857142Y-53607142D01*
X101785714Y-53535714D01*
X101642857Y-53321428D01*
X101571428Y-53035714D01*
X101571428Y-52464285D01*
X101642857Y-52321428D01*
X101714285Y-52250000D01*
X101857142Y-52178571D01*
X102142857Y-52178571D01*
X102285714Y-52250000D01*
X102357142Y-52321428D01*
X102428571Y-52464285D01*
X102428571Y-52821428D01*
X102357142Y-52964285D01*
X102285714Y-53035714D01*
X102142857Y-53107142D01*
X101857142Y-53107142D01*
X101714285Y-53035714D01*
X101642857Y-52964285D01*
X101571428Y-52821428D01*
X105285714Y-53678571D02*
X106142857Y-53678571D01*
X105714285Y-53678571D02*
X105714285Y-52178571D01*
X105857142Y-52392857D01*
X106000000Y-52535714D01*
X106142857Y-52607142D01*
X104357142Y-52178571D02*
X104214285Y-52178571D01*
X104071428Y-52250000D01*
X104000000Y-52321428D01*
X103928571Y-52464285D01*
X103857142Y-52750000D01*
X103857142Y-53107142D01*
X103928571Y-53392857D01*
X104000000Y-53535714D01*
X104071428Y-53607142D01*
X104214285Y-53678571D01*
X104357142Y-53678571D01*
X104500000Y-53607142D01*
X104571428Y-53535714D01*
X104642857Y-53392857D01*
X104714285Y-53107142D01*
X104714285Y-52750000D01*
X104642857Y-52464285D01*
X104571428Y-52321428D01*
X104500000Y-52250000D01*
X104357142Y-52178571D01*
X105142857Y-50821428D02*
X105285714Y-50750000D01*
X105357142Y-50678571D01*
X105428571Y-50535714D01*
X105428571Y-50464285D01*
X105357142Y-50321428D01*
X105285714Y-50250000D01*
X105142857Y-50178571D01*
X104857142Y-50178571D01*
X104714285Y-50250000D01*
X104642857Y-50321428D01*
X104571428Y-50464285D01*
X104571428Y-50535714D01*
X104642857Y-50678571D01*
X104714285Y-50750000D01*
X104857142Y-50821428D01*
X105142857Y-50821428D01*
X105285714Y-50892857D01*
X105357142Y-50964285D01*
X105428571Y-51107142D01*
X105428571Y-51392857D01*
X105357142Y-51535714D01*
X105285714Y-51607142D01*
X105142857Y-51678571D01*
X104857142Y-51678571D01*
X104714285Y-51607142D01*
X104642857Y-51535714D01*
X104571428Y-51392857D01*
X104571428Y-51107142D01*
X104642857Y-50964285D01*
X104714285Y-50892857D01*
X104857142Y-50821428D01*
X102500000Y-50178571D02*
X101500000Y-50178571D01*
X102142857Y-51678571D01*
X101642857Y-48178571D02*
X102357142Y-48178571D01*
X102428571Y-48892857D01*
X102357142Y-48821428D01*
X102214285Y-48750000D01*
X101857142Y-48750000D01*
X101714285Y-48821428D01*
X101642857Y-48892857D01*
X101571428Y-49035714D01*
X101571428Y-49392857D01*
X101642857Y-49535714D01*
X101714285Y-49607142D01*
X101857142Y-49678571D01*
X102214285Y-49678571D01*
X102357142Y-49607142D01*
X102428571Y-49535714D01*
X104714285Y-48178571D02*
X105000000Y-48178571D01*
X105142857Y-48250000D01*
X105214285Y-48321428D01*
X105357142Y-48535714D01*
X105428571Y-48821428D01*
X105428571Y-49392857D01*
X105357142Y-49535714D01*
X105285714Y-49607142D01*
X105142857Y-49678571D01*
X104857142Y-49678571D01*
X104714285Y-49607142D01*
X104642857Y-49535714D01*
X104571428Y-49392857D01*
X104571428Y-49035714D01*
X104642857Y-48892857D01*
X104714285Y-48821428D01*
X104857142Y-48750000D01*
X105142857Y-48750000D01*
X105285714Y-48821428D01*
X105357142Y-48892857D01*
X105428571Y-49035714D01*
X104714285Y-46678571D02*
X104714285Y-47678571D01*
X105071428Y-46107142D02*
X105428571Y-47178571D01*
X104500000Y-47178571D01*
X102500000Y-46178571D02*
X101571428Y-46178571D01*
X102071428Y-46750000D01*
X101857142Y-46750000D01*
X101714285Y-46821428D01*
X101642857Y-46892857D01*
X101571428Y-47035714D01*
X101571428Y-47392857D01*
X101642857Y-47535714D01*
X101714285Y-47607142D01*
X101857142Y-47678571D01*
X102285714Y-47678571D01*
X102428571Y-47607142D01*
X102500000Y-47535714D01*
X105428571Y-44321428D02*
X105357142Y-44250000D01*
X105214285Y-44178571D01*
X104857142Y-44178571D01*
X104714285Y-44250000D01*
X104642857Y-44321428D01*
X104571428Y-44464285D01*
X104571428Y-44607142D01*
X104642857Y-44821428D01*
X105500000Y-45678571D01*
X104571428Y-45678571D01*
X101571428Y-45678571D02*
X102428571Y-45678571D01*
X102000000Y-45678571D02*
X102000000Y-44178571D01*
X102142857Y-44392857D01*
X102285714Y-44535714D01*
X102428571Y-44607142D01*
D11*
X100818853Y-42619806D02*
X100818853Y-43619806D01*
X101818853Y-42619806D02*
X100818853Y-42619806D01*
X47844285Y-41602380D02*
X47844285Y-40602380D01*
X47844285Y-41078571D02*
X47272857Y-41078571D01*
X47272857Y-41602380D02*
X47272857Y-40602380D01*
X46891904Y-40602380D02*
X46225238Y-41602380D01*
X46225238Y-40602380D02*
X46891904Y-41602380D01*
X45701428Y-40602380D02*
X45701428Y-40840476D01*
X45939523Y-40745238D02*
X45701428Y-40840476D01*
X45463333Y-40745238D01*
X45844285Y-41030952D02*
X45701428Y-40840476D01*
X45558571Y-41030952D01*
X45082380Y-41602380D02*
X45082380Y-40602380D01*
X44510952Y-41602380D02*
X44939523Y-41030952D01*
X44510952Y-40602380D02*
X45082380Y-41173809D01*
X43320476Y-41602380D02*
X43320476Y-40602380D01*
X42939523Y-40602380D01*
X42844285Y-40650000D01*
X42796666Y-40697619D01*
X42749047Y-40792857D01*
X42749047Y-40935714D01*
X42796666Y-41030952D01*
X42844285Y-41078571D01*
X42939523Y-41126190D01*
X43320476Y-41126190D01*
X42320476Y-41602380D02*
X42320476Y-40602380D01*
X41987142Y-41316666D01*
X41653809Y-40602380D01*
X41653809Y-41602380D01*
X40987142Y-40602380D02*
X40796666Y-40602380D01*
X40701428Y-40650000D01*
X40606190Y-40745238D01*
X40558571Y-40935714D01*
X40558571Y-41269047D01*
X40606190Y-41459523D01*
X40701428Y-41554761D01*
X40796666Y-41602380D01*
X40987142Y-41602380D01*
X41082380Y-41554761D01*
X41177619Y-41459523D01*
X41225238Y-41269047D01*
X41225238Y-40935714D01*
X41177619Y-40745238D01*
X41082380Y-40650000D01*
X40987142Y-40602380D01*
X40130000Y-41602380D02*
X40130000Y-40602380D01*
X39891904Y-40602380D01*
X39749047Y-40650000D01*
X39653809Y-40745238D01*
X39606190Y-40840476D01*
X39558571Y-41030952D01*
X39558571Y-41173809D01*
X39606190Y-41364285D01*
X39653809Y-41459523D01*
X39749047Y-41554761D01*
X39891904Y-41602380D01*
X40130000Y-41602380D01*
X38034761Y-41078571D02*
X37891904Y-41126190D01*
X37844285Y-41173809D01*
X37796666Y-41269047D01*
X37796666Y-41411904D01*
X37844285Y-41507142D01*
X37891904Y-41554761D01*
X37987142Y-41602380D01*
X38368095Y-41602380D01*
X38368095Y-40602380D01*
X38034761Y-40602380D01*
X37939523Y-40650000D01*
X37891904Y-40697619D01*
X37844285Y-40792857D01*
X37844285Y-40888095D01*
X37891904Y-40983333D01*
X37939523Y-41030952D01*
X38034761Y-41078571D01*
X38368095Y-41078571D01*
X37368095Y-41602380D02*
X37368095Y-40935714D01*
X37368095Y-41126190D02*
X37320476Y-41030952D01*
X37272857Y-40983333D01*
X37177619Y-40935714D01*
X37082380Y-40935714D01*
X36368095Y-41554761D02*
X36463333Y-41602380D01*
X36653809Y-41602380D01*
X36749047Y-41554761D01*
X36796666Y-41459523D01*
X36796666Y-41078571D01*
X36749047Y-40983333D01*
X36653809Y-40935714D01*
X36463333Y-40935714D01*
X36368095Y-40983333D01*
X36320476Y-41078571D01*
X36320476Y-41173809D01*
X36796666Y-41269047D01*
X35463333Y-41602380D02*
X35463333Y-41078571D01*
X35510952Y-40983333D01*
X35606190Y-40935714D01*
X35796666Y-40935714D01*
X35891904Y-40983333D01*
X35463333Y-41554761D02*
X35558571Y-41602380D01*
X35796666Y-41602380D01*
X35891904Y-41554761D01*
X35939523Y-41459523D01*
X35939523Y-41364285D01*
X35891904Y-41269047D01*
X35796666Y-41221428D01*
X35558571Y-41221428D01*
X35463333Y-41173809D01*
X34987142Y-41602380D02*
X34987142Y-40602380D01*
X34891904Y-41221428D02*
X34606190Y-41602380D01*
X34606190Y-40935714D02*
X34987142Y-41316666D01*
X34034761Y-41602380D02*
X34130000Y-41554761D01*
X34177619Y-41507142D01*
X34225238Y-41411904D01*
X34225238Y-41126190D01*
X34177619Y-41030952D01*
X34130000Y-40983333D01*
X34034761Y-40935714D01*
X33891904Y-40935714D01*
X33796666Y-40983333D01*
X33749047Y-41030952D01*
X33701428Y-41126190D01*
X33701428Y-41411904D01*
X33749047Y-41507142D01*
X33796666Y-41554761D01*
X33891904Y-41602380D01*
X34034761Y-41602380D01*
X32844285Y-40935714D02*
X32844285Y-41602380D01*
X33272857Y-40935714D02*
X33272857Y-41459523D01*
X33225238Y-41554761D01*
X33130000Y-41602380D01*
X32987142Y-41602380D01*
X32891904Y-41554761D01*
X32844285Y-41507142D01*
X32510952Y-40935714D02*
X32130000Y-40935714D01*
X32368095Y-40602380D02*
X32368095Y-41459523D01*
X32320476Y-41554761D01*
X32225238Y-41602380D01*
X32130000Y-41602380D01*
X31130000Y-40935714D02*
X30891904Y-41602380D01*
X30653809Y-40935714D01*
X30082380Y-40602380D02*
X29987142Y-40602380D01*
X29891904Y-40650000D01*
X29844285Y-40697619D01*
X29796666Y-40792857D01*
X29749047Y-40983333D01*
X29749047Y-41221428D01*
X29796666Y-41411904D01*
X29844285Y-41507142D01*
X29891904Y-41554761D01*
X29987142Y-41602380D01*
X30082380Y-41602380D01*
X30177619Y-41554761D01*
X30225238Y-41507142D01*
X30272857Y-41411904D01*
X30320476Y-41221428D01*
X30320476Y-40983333D01*
X30272857Y-40792857D01*
X30225238Y-40697619D01*
X30177619Y-40650000D01*
X30082380Y-40602380D01*
X29320476Y-41507142D02*
X29272857Y-41554761D01*
X29320476Y-41602380D01*
X29368095Y-41554761D01*
X29320476Y-41507142D01*
X29320476Y-41602380D01*
X28320476Y-41602380D02*
X28891904Y-41602380D01*
X28606190Y-41602380D02*
X28606190Y-40602380D01*
X28701428Y-40745238D01*
X28796666Y-40840476D01*
X28891904Y-40888095D01*
X38034761Y-42397619D02*
X37987142Y-42350000D01*
X37891904Y-42302380D01*
X37653809Y-42302380D01*
X37558571Y-42350000D01*
X37510952Y-42397619D01*
X37463333Y-42492857D01*
X37463333Y-42588095D01*
X37510952Y-42730952D01*
X38082380Y-43302380D01*
X37463333Y-43302380D01*
X36844285Y-42302380D02*
X36749047Y-42302380D01*
X36653809Y-42350000D01*
X36606190Y-42397619D01*
X36558571Y-42492857D01*
X36510952Y-42683333D01*
X36510952Y-42921428D01*
X36558571Y-43111904D01*
X36606190Y-43207142D01*
X36653809Y-43254761D01*
X36749047Y-43302380D01*
X36844285Y-43302380D01*
X36939523Y-43254761D01*
X36987142Y-43207142D01*
X37034761Y-43111904D01*
X37082380Y-42921428D01*
X37082380Y-42683333D01*
X37034761Y-42492857D01*
X36987142Y-42397619D01*
X36939523Y-42350000D01*
X36844285Y-42302380D01*
X36130000Y-42397619D02*
X36082380Y-42350000D01*
X35987142Y-42302380D01*
X35749047Y-42302380D01*
X35653809Y-42350000D01*
X35606190Y-42397619D01*
X35558571Y-42492857D01*
X35558571Y-42588095D01*
X35606190Y-42730952D01*
X36177619Y-43302380D01*
X35558571Y-43302380D01*
X34939523Y-42302380D02*
X34844285Y-42302380D01*
X34749047Y-42350000D01*
X34701428Y-42397619D01*
X34653809Y-42492857D01*
X34606190Y-42683333D01*
X34606190Y-42921428D01*
X34653809Y-43111904D01*
X34701428Y-43207142D01*
X34749047Y-43254761D01*
X34844285Y-43302380D01*
X34939523Y-43302380D01*
X35034761Y-43254761D01*
X35082380Y-43207142D01*
X35130000Y-43111904D01*
X35177619Y-42921428D01*
X35177619Y-42683333D01*
X35130000Y-42492857D01*
X35082380Y-42397619D01*
X35034761Y-42350000D01*
X34939523Y-42302380D01*
X34177619Y-42921428D02*
X33415714Y-42921428D01*
X32749047Y-42302380D02*
X32653809Y-42302380D01*
X32558571Y-42350000D01*
X32510952Y-42397619D01*
X32463333Y-42492857D01*
X32415714Y-42683333D01*
X32415714Y-42921428D01*
X32463333Y-43111904D01*
X32510952Y-43207142D01*
X32558571Y-43254761D01*
X32653809Y-43302380D01*
X32749047Y-43302380D01*
X32844285Y-43254761D01*
X32891904Y-43207142D01*
X32939523Y-43111904D01*
X32987142Y-42921428D01*
X32987142Y-42683333D01*
X32939523Y-42492857D01*
X32891904Y-42397619D01*
X32844285Y-42350000D01*
X32749047Y-42302380D01*
X32082380Y-42302380D02*
X31463333Y-42302380D01*
X31796666Y-42683333D01*
X31653809Y-42683333D01*
X31558571Y-42730952D01*
X31510952Y-42778571D01*
X31463333Y-42873809D01*
X31463333Y-43111904D01*
X31510952Y-43207142D01*
X31558571Y-43254761D01*
X31653809Y-43302380D01*
X31939523Y-43302380D01*
X32034761Y-43254761D01*
X32082380Y-43207142D01*
X31034761Y-42921428D02*
X30272857Y-42921428D01*
X29272857Y-43302380D02*
X29844285Y-43302380D01*
X29558571Y-43302380D02*
X29558571Y-42302380D01*
X29653809Y-42445238D01*
X29749047Y-42540476D01*
X29844285Y-42588095D01*
X28368095Y-42302380D02*
X28844285Y-42302380D01*
X28891904Y-42778571D01*
X28844285Y-42730952D01*
X28749047Y-42683333D01*
X28510952Y-42683333D01*
X28415714Y-42730952D01*
X28368095Y-42778571D01*
X28320476Y-42873809D01*
X28320476Y-43111904D01*
X28368095Y-43207142D01*
X28415714Y-43254761D01*
X28510952Y-43302380D01*
X28749047Y-43302380D01*
X28844285Y-43254761D01*
X28891904Y-43207142D01*
D13*
G04 #@! TO.C,Q2*
X32250000Y-69650000D02*
X34650000Y-69650000D01*
X34650000Y-69650000D02*
X34650000Y-68600000D01*
X32850000Y-66350000D02*
X34650000Y-66350000D01*
X34650000Y-66350000D02*
X34650000Y-67400000D01*
G04 #@! TO.C,C23*
X43961252Y-39560000D02*
X43438748Y-39560000D01*
X43961252Y-38140000D02*
X43438748Y-38140000D01*
G04 #@! TO.C,C34*
X66861252Y-38140000D02*
X66338748Y-38140000D01*
X66861252Y-39560000D02*
X66338748Y-39560000D01*
G04 #@! TO.C,C36*
X89711252Y-39560000D02*
X89188748Y-39560000D01*
X89711252Y-38140000D02*
X89188748Y-38140000D01*
G04 #@! TO.C,C38*
X112561252Y-38140000D02*
X112038748Y-38140000D01*
X112561252Y-39560000D02*
X112038748Y-39560000D01*
G04 #@! TO.C,C40*
X33288748Y-74740000D02*
X33811252Y-74740000D01*
X33288748Y-76160000D02*
X33811252Y-76160000D01*
G04 #@! TO.C,C50*
X114660000Y-51061252D02*
X114660000Y-50538748D01*
X113240000Y-51061252D02*
X113240000Y-50538748D01*
G04 #@! TO.C,C42*
X56138748Y-74740000D02*
X56661252Y-74740000D01*
X56138748Y-76160000D02*
X56661252Y-76160000D01*
G04 #@! TO.C,C48*
X114660000Y-73961252D02*
X114660000Y-73438748D01*
X113240000Y-73961252D02*
X113240000Y-73438748D01*
G04 #@! TO.C,C46*
X101888748Y-74740000D02*
X102411252Y-74740000D01*
X101888748Y-76160000D02*
X102411252Y-76160000D01*
G04 #@! TO.C,C44*
X79038748Y-76160000D02*
X79561252Y-76160000D01*
X79038748Y-74740000D02*
X79561252Y-74740000D01*
G04 #@! TO.C,C49*
X115240000Y-73961252D02*
X115240000Y-73438748D01*
X116660000Y-73961252D02*
X116660000Y-73438748D01*
G04 #@! TO.C,C51*
X115240000Y-51061252D02*
X115240000Y-50538748D01*
X116660000Y-51061252D02*
X116660000Y-50538748D01*
G04 #@! TO.C,C47*
X101888748Y-78160000D02*
X102411252Y-78160000D01*
X101888748Y-76740000D02*
X102411252Y-76740000D01*
G04 #@! TO.C,C32*
X25361252Y-54240000D02*
X24838748Y-54240000D01*
X25361252Y-55660000D02*
X24838748Y-55660000D01*
G04 #@! TO.C,C37*
X89711252Y-36140000D02*
X89188748Y-36140000D01*
X89711252Y-37560000D02*
X89188748Y-37560000D01*
G04 #@! TO.C,C35*
X66861252Y-36140000D02*
X66338748Y-36140000D01*
X66861252Y-37560000D02*
X66338748Y-37560000D01*
G04 #@! TO.C,C45*
X79038748Y-78160000D02*
X79561252Y-78160000D01*
X79038748Y-76740000D02*
X79561252Y-76740000D01*
G04 #@! TO.C,C43*
X56138748Y-78160000D02*
X56661252Y-78160000D01*
X56138748Y-76740000D02*
X56661252Y-76740000D01*
G04 #@! TO.C,C41*
X33288748Y-78160000D02*
X33811252Y-78160000D01*
X33288748Y-76740000D02*
X33811252Y-76740000D01*
G04 #@! TO.C,C39*
X112561252Y-36140000D02*
X112038748Y-36140000D01*
X112561252Y-37560000D02*
X112038748Y-37560000D01*
G04 #@! TO.C,U6*
X85410000Y-59410000D02*
X84150000Y-59410000D01*
X78590000Y-59410000D02*
X79850000Y-59410000D01*
X85410000Y-55650000D02*
X85410000Y-59410000D01*
X78590000Y-53400000D02*
X78590000Y-59410000D01*
G04 #@! TO.C,C11*
X83038748Y-47390000D02*
X83561252Y-47390000D01*
X83038748Y-48810000D02*
X83561252Y-48810000D01*
G04 #@! TO.C,C12*
X76710000Y-53661252D02*
X76710000Y-53138748D01*
X75290000Y-53661252D02*
X75290000Y-53138748D01*
G04 #@! TO.C,C13*
X79690000Y-48511252D02*
X79690000Y-47988748D01*
X81110000Y-48511252D02*
X81110000Y-47988748D01*
G04 #@! TO.C,C14*
X85238748Y-65060000D02*
X85761252Y-65060000D01*
X85238748Y-63640000D02*
X85761252Y-63640000D01*
G04 #@! TO.C,C18*
X72817313Y-57286779D02*
X73186779Y-56917313D01*
X71813221Y-56282687D02*
X72182687Y-55913221D01*
G04 #@! TO.C,C10*
X78261252Y-63890000D02*
X77738748Y-63890000D01*
X78261252Y-65310000D02*
X77738748Y-65310000D01*
G04 #@! TO.C,C22*
X35738748Y-56490000D02*
X36261252Y-56490000D01*
X35738748Y-57910000D02*
X36261252Y-57910000D01*
G04 #@! TO.C,C24*
X43961252Y-37560000D02*
X43438748Y-37560000D01*
X43961252Y-36140000D02*
X43438748Y-36140000D01*
G04 #@! TO.C,C26*
X85940000Y-55211252D02*
X85940000Y-54688748D01*
X87360000Y-55211252D02*
X87360000Y-54688748D01*
G04 #@! TO.C,C28*
X80588748Y-51240000D02*
X81111252Y-51240000D01*
X80588748Y-52660000D02*
X81111252Y-52660000D01*
G04 #@! TO.C,Q1*
X28500000Y-59350000D02*
X28500000Y-56950000D01*
X28500000Y-56950000D02*
X27450000Y-56950000D01*
X25200000Y-58750000D02*
X25200000Y-56950000D01*
X25200000Y-56950000D02*
X26250000Y-56950000D01*
G04 #@! TO.C,R9*
X37338748Y-52990000D02*
X37861252Y-52990000D01*
X37338748Y-54410000D02*
X37861252Y-54410000D01*
G04 #@! TO.C,R7*
X61938748Y-52610000D02*
X62461252Y-52610000D01*
X61938748Y-51190000D02*
X62461252Y-51190000D01*
G04 #@! TO.C,R5*
X59167313Y-49786779D02*
X59536779Y-49417313D01*
X58163221Y-48782687D02*
X58532687Y-48413221D01*
G04 #@! TO.C,Q2*
D12*
X33795238Y-71047619D02*
X33890476Y-71000000D01*
X33985714Y-70904761D01*
X34128571Y-70761904D01*
X34223809Y-70714285D01*
X34319047Y-70714285D01*
X34271428Y-70952380D02*
X34366666Y-70904761D01*
X34461904Y-70809523D01*
X34509523Y-70619047D01*
X34509523Y-70285714D01*
X34461904Y-70095238D01*
X34366666Y-70000000D01*
X34271428Y-69952380D01*
X34080952Y-69952380D01*
X33985714Y-70000000D01*
X33890476Y-70095238D01*
X33842857Y-70285714D01*
X33842857Y-70619047D01*
X33890476Y-70809523D01*
X33985714Y-70904761D01*
X34080952Y-70952380D01*
X34271428Y-70952380D01*
X33461904Y-70047619D02*
X33414285Y-70000000D01*
X33319047Y-69952380D01*
X33080952Y-69952380D01*
X32985714Y-70000000D01*
X32938095Y-70047619D01*
X32890476Y-70142857D01*
X32890476Y-70238095D01*
X32938095Y-70380952D01*
X33509523Y-70952380D01*
X32890476Y-70952380D01*
G04 #@! TO.C,C23*
X41042857Y-39157142D02*
X41090476Y-39204761D01*
X41233333Y-39252380D01*
X41328571Y-39252380D01*
X41471428Y-39204761D01*
X41566666Y-39109523D01*
X41614285Y-39014285D01*
X41661904Y-38823809D01*
X41661904Y-38680952D01*
X41614285Y-38490476D01*
X41566666Y-38395238D01*
X41471428Y-38300000D01*
X41328571Y-38252380D01*
X41233333Y-38252380D01*
X41090476Y-38300000D01*
X41042857Y-38347619D01*
X40661904Y-38347619D02*
X40614285Y-38300000D01*
X40519047Y-38252380D01*
X40280952Y-38252380D01*
X40185714Y-38300000D01*
X40138095Y-38347619D01*
X40090476Y-38442857D01*
X40090476Y-38538095D01*
X40138095Y-38680952D01*
X40709523Y-39252380D01*
X40090476Y-39252380D01*
X39757142Y-38252380D02*
X39138095Y-38252380D01*
X39471428Y-38633333D01*
X39328571Y-38633333D01*
X39233333Y-38680952D01*
X39185714Y-38728571D01*
X39138095Y-38823809D01*
X39138095Y-39061904D01*
X39185714Y-39157142D01*
X39233333Y-39204761D01*
X39328571Y-39252380D01*
X39614285Y-39252380D01*
X39709523Y-39204761D01*
X39757142Y-39157142D01*
G04 #@! TO.C,C34*
X63942857Y-39157142D02*
X63990476Y-39204761D01*
X64133333Y-39252380D01*
X64228571Y-39252380D01*
X64371428Y-39204761D01*
X64466666Y-39109523D01*
X64514285Y-39014285D01*
X64561904Y-38823809D01*
X64561904Y-38680952D01*
X64514285Y-38490476D01*
X64466666Y-38395238D01*
X64371428Y-38300000D01*
X64228571Y-38252380D01*
X64133333Y-38252380D01*
X63990476Y-38300000D01*
X63942857Y-38347619D01*
X63609523Y-38252380D02*
X62990476Y-38252380D01*
X63323809Y-38633333D01*
X63180952Y-38633333D01*
X63085714Y-38680952D01*
X63038095Y-38728571D01*
X62990476Y-38823809D01*
X62990476Y-39061904D01*
X63038095Y-39157142D01*
X63085714Y-39204761D01*
X63180952Y-39252380D01*
X63466666Y-39252380D01*
X63561904Y-39204761D01*
X63609523Y-39157142D01*
X62133333Y-38585714D02*
X62133333Y-39252380D01*
X62371428Y-38204761D02*
X62609523Y-38919047D01*
X61990476Y-38919047D01*
G04 #@! TO.C,C36*
X86842857Y-39257142D02*
X86890476Y-39304761D01*
X87033333Y-39352380D01*
X87128571Y-39352380D01*
X87271428Y-39304761D01*
X87366666Y-39209523D01*
X87414285Y-39114285D01*
X87461904Y-38923809D01*
X87461904Y-38780952D01*
X87414285Y-38590476D01*
X87366666Y-38495238D01*
X87271428Y-38400000D01*
X87128571Y-38352380D01*
X87033333Y-38352380D01*
X86890476Y-38400000D01*
X86842857Y-38447619D01*
X86509523Y-38352380D02*
X85890476Y-38352380D01*
X86223809Y-38733333D01*
X86080952Y-38733333D01*
X85985714Y-38780952D01*
X85938095Y-38828571D01*
X85890476Y-38923809D01*
X85890476Y-39161904D01*
X85938095Y-39257142D01*
X85985714Y-39304761D01*
X86080952Y-39352380D01*
X86366666Y-39352380D01*
X86461904Y-39304761D01*
X86509523Y-39257142D01*
X85033333Y-38352380D02*
X85223809Y-38352380D01*
X85319047Y-38400000D01*
X85366666Y-38447619D01*
X85461904Y-38590476D01*
X85509523Y-38780952D01*
X85509523Y-39161904D01*
X85461904Y-39257142D01*
X85414285Y-39304761D01*
X85319047Y-39352380D01*
X85128571Y-39352380D01*
X85033333Y-39304761D01*
X84985714Y-39257142D01*
X84938095Y-39161904D01*
X84938095Y-38923809D01*
X84985714Y-38828571D01*
X85033333Y-38780952D01*
X85128571Y-38733333D01*
X85319047Y-38733333D01*
X85414285Y-38780952D01*
X85461904Y-38828571D01*
X85509523Y-38923809D01*
G04 #@! TO.C,C38*
X109642857Y-39257142D02*
X109690476Y-39304761D01*
X109833333Y-39352380D01*
X109928571Y-39352380D01*
X110071428Y-39304761D01*
X110166666Y-39209523D01*
X110214285Y-39114285D01*
X110261904Y-38923809D01*
X110261904Y-38780952D01*
X110214285Y-38590476D01*
X110166666Y-38495238D01*
X110071428Y-38400000D01*
X109928571Y-38352380D01*
X109833333Y-38352380D01*
X109690476Y-38400000D01*
X109642857Y-38447619D01*
X109309523Y-38352380D02*
X108690476Y-38352380D01*
X109023809Y-38733333D01*
X108880952Y-38733333D01*
X108785714Y-38780952D01*
X108738095Y-38828571D01*
X108690476Y-38923809D01*
X108690476Y-39161904D01*
X108738095Y-39257142D01*
X108785714Y-39304761D01*
X108880952Y-39352380D01*
X109166666Y-39352380D01*
X109261904Y-39304761D01*
X109309523Y-39257142D01*
X108119047Y-38780952D02*
X108214285Y-38733333D01*
X108261904Y-38685714D01*
X108309523Y-38590476D01*
X108309523Y-38542857D01*
X108261904Y-38447619D01*
X108214285Y-38400000D01*
X108119047Y-38352380D01*
X107928571Y-38352380D01*
X107833333Y-38400000D01*
X107785714Y-38447619D01*
X107738095Y-38542857D01*
X107738095Y-38590476D01*
X107785714Y-38685714D01*
X107833333Y-38733333D01*
X107928571Y-38780952D01*
X108119047Y-38780952D01*
X108214285Y-38828571D01*
X108261904Y-38876190D01*
X108309523Y-38971428D01*
X108309523Y-39161904D01*
X108261904Y-39257142D01*
X108214285Y-39304761D01*
X108119047Y-39352380D01*
X107928571Y-39352380D01*
X107833333Y-39304761D01*
X107785714Y-39257142D01*
X107738095Y-39161904D01*
X107738095Y-38971428D01*
X107785714Y-38876190D01*
X107833333Y-38828571D01*
X107928571Y-38780952D01*
G04 #@! TO.C,C40*
X37542857Y-75857142D02*
X37590476Y-75904761D01*
X37733333Y-75952380D01*
X37828571Y-75952380D01*
X37971428Y-75904761D01*
X38066666Y-75809523D01*
X38114285Y-75714285D01*
X38161904Y-75523809D01*
X38161904Y-75380952D01*
X38114285Y-75190476D01*
X38066666Y-75095238D01*
X37971428Y-75000000D01*
X37828571Y-74952380D01*
X37733333Y-74952380D01*
X37590476Y-75000000D01*
X37542857Y-75047619D01*
X36685714Y-75285714D02*
X36685714Y-75952380D01*
X36923809Y-74904761D02*
X37161904Y-75619047D01*
X36542857Y-75619047D01*
X35971428Y-74952380D02*
X35876190Y-74952380D01*
X35780952Y-75000000D01*
X35733333Y-75047619D01*
X35685714Y-75142857D01*
X35638095Y-75333333D01*
X35638095Y-75571428D01*
X35685714Y-75761904D01*
X35733333Y-75857142D01*
X35780952Y-75904761D01*
X35876190Y-75952380D01*
X35971428Y-75952380D01*
X36066666Y-75904761D01*
X36114285Y-75857142D01*
X36161904Y-75761904D01*
X36209523Y-75571428D01*
X36209523Y-75333333D01*
X36161904Y-75142857D01*
X36114285Y-75047619D01*
X36066666Y-75000000D01*
X35971428Y-74952380D01*
G04 #@! TO.C,C50*
X114357142Y-46857142D02*
X114404761Y-46809523D01*
X114452380Y-46666666D01*
X114452380Y-46571428D01*
X114404761Y-46428571D01*
X114309523Y-46333333D01*
X114214285Y-46285714D01*
X114023809Y-46238095D01*
X113880952Y-46238095D01*
X113690476Y-46285714D01*
X113595238Y-46333333D01*
X113500000Y-46428571D01*
X113452380Y-46571428D01*
X113452380Y-46666666D01*
X113500000Y-46809523D01*
X113547619Y-46857142D01*
X113452380Y-47761904D02*
X113452380Y-47285714D01*
X113928571Y-47238095D01*
X113880952Y-47285714D01*
X113833333Y-47380952D01*
X113833333Y-47619047D01*
X113880952Y-47714285D01*
X113928571Y-47761904D01*
X114023809Y-47809523D01*
X114261904Y-47809523D01*
X114357142Y-47761904D01*
X114404761Y-47714285D01*
X114452380Y-47619047D01*
X114452380Y-47380952D01*
X114404761Y-47285714D01*
X114357142Y-47238095D01*
X113452380Y-48428571D02*
X113452380Y-48523809D01*
X113500000Y-48619047D01*
X113547619Y-48666666D01*
X113642857Y-48714285D01*
X113833333Y-48761904D01*
X114071428Y-48761904D01*
X114261904Y-48714285D01*
X114357142Y-48666666D01*
X114404761Y-48619047D01*
X114452380Y-48523809D01*
X114452380Y-48428571D01*
X114404761Y-48333333D01*
X114357142Y-48285714D01*
X114261904Y-48238095D01*
X114071428Y-48190476D01*
X113833333Y-48190476D01*
X113642857Y-48238095D01*
X113547619Y-48285714D01*
X113500000Y-48333333D01*
X113452380Y-48428571D01*
G04 #@! TO.C,C42*
X60442857Y-75857142D02*
X60490476Y-75904761D01*
X60633333Y-75952380D01*
X60728571Y-75952380D01*
X60871428Y-75904761D01*
X60966666Y-75809523D01*
X61014285Y-75714285D01*
X61061904Y-75523809D01*
X61061904Y-75380952D01*
X61014285Y-75190476D01*
X60966666Y-75095238D01*
X60871428Y-75000000D01*
X60728571Y-74952380D01*
X60633333Y-74952380D01*
X60490476Y-75000000D01*
X60442857Y-75047619D01*
X59585714Y-75285714D02*
X59585714Y-75952380D01*
X59823809Y-74904761D02*
X60061904Y-75619047D01*
X59442857Y-75619047D01*
X59109523Y-75047619D02*
X59061904Y-75000000D01*
X58966666Y-74952380D01*
X58728571Y-74952380D01*
X58633333Y-75000000D01*
X58585714Y-75047619D01*
X58538095Y-75142857D01*
X58538095Y-75238095D01*
X58585714Y-75380952D01*
X59157142Y-75952380D01*
X58538095Y-75952380D01*
G04 #@! TO.C,C48*
X114357142Y-69657142D02*
X114404761Y-69609523D01*
X114452380Y-69466666D01*
X114452380Y-69371428D01*
X114404761Y-69228571D01*
X114309523Y-69133333D01*
X114214285Y-69085714D01*
X114023809Y-69038095D01*
X113880952Y-69038095D01*
X113690476Y-69085714D01*
X113595238Y-69133333D01*
X113500000Y-69228571D01*
X113452380Y-69371428D01*
X113452380Y-69466666D01*
X113500000Y-69609523D01*
X113547619Y-69657142D01*
X113785714Y-70514285D02*
X114452380Y-70514285D01*
X113404761Y-70276190D02*
X114119047Y-70038095D01*
X114119047Y-70657142D01*
X113880952Y-71180952D02*
X113833333Y-71085714D01*
X113785714Y-71038095D01*
X113690476Y-70990476D01*
X113642857Y-70990476D01*
X113547619Y-71038095D01*
X113500000Y-71085714D01*
X113452380Y-71180952D01*
X113452380Y-71371428D01*
X113500000Y-71466666D01*
X113547619Y-71514285D01*
X113642857Y-71561904D01*
X113690476Y-71561904D01*
X113785714Y-71514285D01*
X113833333Y-71466666D01*
X113880952Y-71371428D01*
X113880952Y-71180952D01*
X113928571Y-71085714D01*
X113976190Y-71038095D01*
X114071428Y-70990476D01*
X114261904Y-70990476D01*
X114357142Y-71038095D01*
X114404761Y-71085714D01*
X114452380Y-71180952D01*
X114452380Y-71371428D01*
X114404761Y-71466666D01*
X114357142Y-71514285D01*
X114261904Y-71561904D01*
X114071428Y-71561904D01*
X113976190Y-71514285D01*
X113928571Y-71466666D01*
X113880952Y-71371428D01*
G04 #@! TO.C,C46*
X106142857Y-75857142D02*
X106190476Y-75904761D01*
X106333333Y-75952380D01*
X106428571Y-75952380D01*
X106571428Y-75904761D01*
X106666666Y-75809523D01*
X106714285Y-75714285D01*
X106761904Y-75523809D01*
X106761904Y-75380952D01*
X106714285Y-75190476D01*
X106666666Y-75095238D01*
X106571428Y-75000000D01*
X106428571Y-74952380D01*
X106333333Y-74952380D01*
X106190476Y-75000000D01*
X106142857Y-75047619D01*
X105285714Y-75285714D02*
X105285714Y-75952380D01*
X105523809Y-74904761D02*
X105761904Y-75619047D01*
X105142857Y-75619047D01*
X104333333Y-74952380D02*
X104523809Y-74952380D01*
X104619047Y-75000000D01*
X104666666Y-75047619D01*
X104761904Y-75190476D01*
X104809523Y-75380952D01*
X104809523Y-75761904D01*
X104761904Y-75857142D01*
X104714285Y-75904761D01*
X104619047Y-75952380D01*
X104428571Y-75952380D01*
X104333333Y-75904761D01*
X104285714Y-75857142D01*
X104238095Y-75761904D01*
X104238095Y-75523809D01*
X104285714Y-75428571D01*
X104333333Y-75380952D01*
X104428571Y-75333333D01*
X104619047Y-75333333D01*
X104714285Y-75380952D01*
X104761904Y-75428571D01*
X104809523Y-75523809D01*
G04 #@! TO.C,C44*
X83342857Y-75857142D02*
X83390476Y-75904761D01*
X83533333Y-75952380D01*
X83628571Y-75952380D01*
X83771428Y-75904761D01*
X83866666Y-75809523D01*
X83914285Y-75714285D01*
X83961904Y-75523809D01*
X83961904Y-75380952D01*
X83914285Y-75190476D01*
X83866666Y-75095238D01*
X83771428Y-75000000D01*
X83628571Y-74952380D01*
X83533333Y-74952380D01*
X83390476Y-75000000D01*
X83342857Y-75047619D01*
X82485714Y-75285714D02*
X82485714Y-75952380D01*
X82723809Y-74904761D02*
X82961904Y-75619047D01*
X82342857Y-75619047D01*
X81533333Y-75285714D02*
X81533333Y-75952380D01*
X81771428Y-74904761D02*
X82009523Y-75619047D01*
X81390476Y-75619047D01*
G04 #@! TO.C,C49*
X116357142Y-69657142D02*
X116404761Y-69609523D01*
X116452380Y-69466666D01*
X116452380Y-69371428D01*
X116404761Y-69228571D01*
X116309523Y-69133333D01*
X116214285Y-69085714D01*
X116023809Y-69038095D01*
X115880952Y-69038095D01*
X115690476Y-69085714D01*
X115595238Y-69133333D01*
X115500000Y-69228571D01*
X115452380Y-69371428D01*
X115452380Y-69466666D01*
X115500000Y-69609523D01*
X115547619Y-69657142D01*
X115785714Y-70514285D02*
X116452380Y-70514285D01*
X115404761Y-70276190D02*
X116119047Y-70038095D01*
X116119047Y-70657142D01*
X116452380Y-71085714D02*
X116452380Y-71276190D01*
X116404761Y-71371428D01*
X116357142Y-71419047D01*
X116214285Y-71514285D01*
X116023809Y-71561904D01*
X115642857Y-71561904D01*
X115547619Y-71514285D01*
X115500000Y-71466666D01*
X115452380Y-71371428D01*
X115452380Y-71180952D01*
X115500000Y-71085714D01*
X115547619Y-71038095D01*
X115642857Y-70990476D01*
X115880952Y-70990476D01*
X115976190Y-71038095D01*
X116023809Y-71085714D01*
X116071428Y-71180952D01*
X116071428Y-71371428D01*
X116023809Y-71466666D01*
X115976190Y-71514285D01*
X115880952Y-71561904D01*
G04 #@! TO.C,C51*
X116357142Y-46857142D02*
X116404761Y-46809523D01*
X116452380Y-46666666D01*
X116452380Y-46571428D01*
X116404761Y-46428571D01*
X116309523Y-46333333D01*
X116214285Y-46285714D01*
X116023809Y-46238095D01*
X115880952Y-46238095D01*
X115690476Y-46285714D01*
X115595238Y-46333333D01*
X115500000Y-46428571D01*
X115452380Y-46571428D01*
X115452380Y-46666666D01*
X115500000Y-46809523D01*
X115547619Y-46857142D01*
X115452380Y-47761904D02*
X115452380Y-47285714D01*
X115928571Y-47238095D01*
X115880952Y-47285714D01*
X115833333Y-47380952D01*
X115833333Y-47619047D01*
X115880952Y-47714285D01*
X115928571Y-47761904D01*
X116023809Y-47809523D01*
X116261904Y-47809523D01*
X116357142Y-47761904D01*
X116404761Y-47714285D01*
X116452380Y-47619047D01*
X116452380Y-47380952D01*
X116404761Y-47285714D01*
X116357142Y-47238095D01*
X116452380Y-48761904D02*
X116452380Y-48190476D01*
X116452380Y-48476190D02*
X115452380Y-48476190D01*
X115595238Y-48380952D01*
X115690476Y-48285714D01*
X115738095Y-48190476D01*
G04 #@! TO.C,C47*
X106142857Y-77857142D02*
X106190476Y-77904761D01*
X106333333Y-77952380D01*
X106428571Y-77952380D01*
X106571428Y-77904761D01*
X106666666Y-77809523D01*
X106714285Y-77714285D01*
X106761904Y-77523809D01*
X106761904Y-77380952D01*
X106714285Y-77190476D01*
X106666666Y-77095238D01*
X106571428Y-77000000D01*
X106428571Y-76952380D01*
X106333333Y-76952380D01*
X106190476Y-77000000D01*
X106142857Y-77047619D01*
X105285714Y-77285714D02*
X105285714Y-77952380D01*
X105523809Y-76904761D02*
X105761904Y-77619047D01*
X105142857Y-77619047D01*
X104857142Y-76952380D02*
X104190476Y-76952380D01*
X104619047Y-77952380D01*
G04 #@! TO.C,C32*
X28057142Y-52857142D02*
X28104761Y-52809523D01*
X28152380Y-52666666D01*
X28152380Y-52571428D01*
X28104761Y-52428571D01*
X28009523Y-52333333D01*
X27914285Y-52285714D01*
X27723809Y-52238095D01*
X27580952Y-52238095D01*
X27390476Y-52285714D01*
X27295238Y-52333333D01*
X27200000Y-52428571D01*
X27152380Y-52571428D01*
X27152380Y-52666666D01*
X27200000Y-52809523D01*
X27247619Y-52857142D01*
X27152380Y-53190476D02*
X27152380Y-53809523D01*
X27533333Y-53476190D01*
X27533333Y-53619047D01*
X27580952Y-53714285D01*
X27628571Y-53761904D01*
X27723809Y-53809523D01*
X27961904Y-53809523D01*
X28057142Y-53761904D01*
X28104761Y-53714285D01*
X28152380Y-53619047D01*
X28152380Y-53333333D01*
X28104761Y-53238095D01*
X28057142Y-53190476D01*
X27247619Y-54190476D02*
X27200000Y-54238095D01*
X27152380Y-54333333D01*
X27152380Y-54571428D01*
X27200000Y-54666666D01*
X27247619Y-54714285D01*
X27342857Y-54761904D01*
X27438095Y-54761904D01*
X27580952Y-54714285D01*
X28152380Y-54142857D01*
X28152380Y-54761904D01*
G04 #@! TO.C,C37*
X86842857Y-37257142D02*
X86890476Y-37304761D01*
X87033333Y-37352380D01*
X87128571Y-37352380D01*
X87271428Y-37304761D01*
X87366666Y-37209523D01*
X87414285Y-37114285D01*
X87461904Y-36923809D01*
X87461904Y-36780952D01*
X87414285Y-36590476D01*
X87366666Y-36495238D01*
X87271428Y-36400000D01*
X87128571Y-36352380D01*
X87033333Y-36352380D01*
X86890476Y-36400000D01*
X86842857Y-36447619D01*
X86509523Y-36352380D02*
X85890476Y-36352380D01*
X86223809Y-36733333D01*
X86080952Y-36733333D01*
X85985714Y-36780952D01*
X85938095Y-36828571D01*
X85890476Y-36923809D01*
X85890476Y-37161904D01*
X85938095Y-37257142D01*
X85985714Y-37304761D01*
X86080952Y-37352380D01*
X86366666Y-37352380D01*
X86461904Y-37304761D01*
X86509523Y-37257142D01*
X85557142Y-36352380D02*
X84890476Y-36352380D01*
X85319047Y-37352380D01*
G04 #@! TO.C,C35*
X63942857Y-37257142D02*
X63990476Y-37304761D01*
X64133333Y-37352380D01*
X64228571Y-37352380D01*
X64371428Y-37304761D01*
X64466666Y-37209523D01*
X64514285Y-37114285D01*
X64561904Y-36923809D01*
X64561904Y-36780952D01*
X64514285Y-36590476D01*
X64466666Y-36495238D01*
X64371428Y-36400000D01*
X64228571Y-36352380D01*
X64133333Y-36352380D01*
X63990476Y-36400000D01*
X63942857Y-36447619D01*
X63609523Y-36352380D02*
X62990476Y-36352380D01*
X63323809Y-36733333D01*
X63180952Y-36733333D01*
X63085714Y-36780952D01*
X63038095Y-36828571D01*
X62990476Y-36923809D01*
X62990476Y-37161904D01*
X63038095Y-37257142D01*
X63085714Y-37304761D01*
X63180952Y-37352380D01*
X63466666Y-37352380D01*
X63561904Y-37304761D01*
X63609523Y-37257142D01*
X62085714Y-36352380D02*
X62561904Y-36352380D01*
X62609523Y-36828571D01*
X62561904Y-36780952D01*
X62466666Y-36733333D01*
X62228571Y-36733333D01*
X62133333Y-36780952D01*
X62085714Y-36828571D01*
X62038095Y-36923809D01*
X62038095Y-37161904D01*
X62085714Y-37257142D01*
X62133333Y-37304761D01*
X62228571Y-37352380D01*
X62466666Y-37352380D01*
X62561904Y-37304761D01*
X62609523Y-37257142D01*
G04 #@! TO.C,C45*
X83342857Y-77757142D02*
X83390476Y-77804761D01*
X83533333Y-77852380D01*
X83628571Y-77852380D01*
X83771428Y-77804761D01*
X83866666Y-77709523D01*
X83914285Y-77614285D01*
X83961904Y-77423809D01*
X83961904Y-77280952D01*
X83914285Y-77090476D01*
X83866666Y-76995238D01*
X83771428Y-76900000D01*
X83628571Y-76852380D01*
X83533333Y-76852380D01*
X83390476Y-76900000D01*
X83342857Y-76947619D01*
X82485714Y-77185714D02*
X82485714Y-77852380D01*
X82723809Y-76804761D02*
X82961904Y-77519047D01*
X82342857Y-77519047D01*
X81485714Y-76852380D02*
X81961904Y-76852380D01*
X82009523Y-77328571D01*
X81961904Y-77280952D01*
X81866666Y-77233333D01*
X81628571Y-77233333D01*
X81533333Y-77280952D01*
X81485714Y-77328571D01*
X81438095Y-77423809D01*
X81438095Y-77661904D01*
X81485714Y-77757142D01*
X81533333Y-77804761D01*
X81628571Y-77852380D01*
X81866666Y-77852380D01*
X81961904Y-77804761D01*
X82009523Y-77757142D01*
G04 #@! TO.C,C43*
X60442857Y-77857142D02*
X60490476Y-77904761D01*
X60633333Y-77952380D01*
X60728571Y-77952380D01*
X60871428Y-77904761D01*
X60966666Y-77809523D01*
X61014285Y-77714285D01*
X61061904Y-77523809D01*
X61061904Y-77380952D01*
X61014285Y-77190476D01*
X60966666Y-77095238D01*
X60871428Y-77000000D01*
X60728571Y-76952380D01*
X60633333Y-76952380D01*
X60490476Y-77000000D01*
X60442857Y-77047619D01*
X59585714Y-77285714D02*
X59585714Y-77952380D01*
X59823809Y-76904761D02*
X60061904Y-77619047D01*
X59442857Y-77619047D01*
X59157142Y-76952380D02*
X58538095Y-76952380D01*
X58871428Y-77333333D01*
X58728571Y-77333333D01*
X58633333Y-77380952D01*
X58585714Y-77428571D01*
X58538095Y-77523809D01*
X58538095Y-77761904D01*
X58585714Y-77857142D01*
X58633333Y-77904761D01*
X58728571Y-77952380D01*
X59014285Y-77952380D01*
X59109523Y-77904761D01*
X59157142Y-77857142D01*
G04 #@! TO.C,C41*
X37542857Y-77857142D02*
X37590476Y-77904761D01*
X37733333Y-77952380D01*
X37828571Y-77952380D01*
X37971428Y-77904761D01*
X38066666Y-77809523D01*
X38114285Y-77714285D01*
X38161904Y-77523809D01*
X38161904Y-77380952D01*
X38114285Y-77190476D01*
X38066666Y-77095238D01*
X37971428Y-77000000D01*
X37828571Y-76952380D01*
X37733333Y-76952380D01*
X37590476Y-77000000D01*
X37542857Y-77047619D01*
X36685714Y-77285714D02*
X36685714Y-77952380D01*
X36923809Y-76904761D02*
X37161904Y-77619047D01*
X36542857Y-77619047D01*
X35638095Y-77952380D02*
X36209523Y-77952380D01*
X35923809Y-77952380D02*
X35923809Y-76952380D01*
X36019047Y-77095238D01*
X36114285Y-77190476D01*
X36209523Y-77238095D01*
G04 #@! TO.C,C39*
X109642857Y-37257142D02*
X109690476Y-37304761D01*
X109833333Y-37352380D01*
X109928571Y-37352380D01*
X110071428Y-37304761D01*
X110166666Y-37209523D01*
X110214285Y-37114285D01*
X110261904Y-36923809D01*
X110261904Y-36780952D01*
X110214285Y-36590476D01*
X110166666Y-36495238D01*
X110071428Y-36400000D01*
X109928571Y-36352380D01*
X109833333Y-36352380D01*
X109690476Y-36400000D01*
X109642857Y-36447619D01*
X109309523Y-36352380D02*
X108690476Y-36352380D01*
X109023809Y-36733333D01*
X108880952Y-36733333D01*
X108785714Y-36780952D01*
X108738095Y-36828571D01*
X108690476Y-36923809D01*
X108690476Y-37161904D01*
X108738095Y-37257142D01*
X108785714Y-37304761D01*
X108880952Y-37352380D01*
X109166666Y-37352380D01*
X109261904Y-37304761D01*
X109309523Y-37257142D01*
X108214285Y-37352380D02*
X108023809Y-37352380D01*
X107928571Y-37304761D01*
X107880952Y-37257142D01*
X107785714Y-37114285D01*
X107738095Y-36923809D01*
X107738095Y-36542857D01*
X107785714Y-36447619D01*
X107833333Y-36400000D01*
X107928571Y-36352380D01*
X108119047Y-36352380D01*
X108214285Y-36400000D01*
X108261904Y-36447619D01*
X108309523Y-36542857D01*
X108309523Y-36780952D01*
X108261904Y-36876190D01*
X108214285Y-36923809D01*
X108119047Y-36971428D01*
X107928571Y-36971428D01*
X107833333Y-36923809D01*
X107785714Y-36876190D01*
X107738095Y-36780952D01*
G04 #@! TO.C,U6*
X76952380Y-56738095D02*
X77761904Y-56738095D01*
X77857142Y-56785714D01*
X77904761Y-56833333D01*
X77952380Y-56928571D01*
X77952380Y-57119047D01*
X77904761Y-57214285D01*
X77857142Y-57261904D01*
X77761904Y-57309523D01*
X76952380Y-57309523D01*
X76952380Y-58214285D02*
X76952380Y-58023809D01*
X77000000Y-57928571D01*
X77047619Y-57880952D01*
X77190476Y-57785714D01*
X77380952Y-57738095D01*
X77761904Y-57738095D01*
X77857142Y-57785714D01*
X77904761Y-57833333D01*
X77952380Y-57928571D01*
X77952380Y-58119047D01*
X77904761Y-58214285D01*
X77857142Y-58261904D01*
X77761904Y-58309523D01*
X77523809Y-58309523D01*
X77428571Y-58261904D01*
X77380952Y-58214285D01*
X77333333Y-58119047D01*
X77333333Y-57928571D01*
X77380952Y-57833333D01*
X77428571Y-57785714D01*
X77523809Y-57738095D01*
G04 #@! TO.C,C11*
X83942857Y-46857142D02*
X83990476Y-46904761D01*
X84133333Y-46952380D01*
X84228571Y-46952380D01*
X84371428Y-46904761D01*
X84466666Y-46809523D01*
X84514285Y-46714285D01*
X84561904Y-46523809D01*
X84561904Y-46380952D01*
X84514285Y-46190476D01*
X84466666Y-46095238D01*
X84371428Y-46000000D01*
X84228571Y-45952380D01*
X84133333Y-45952380D01*
X83990476Y-46000000D01*
X83942857Y-46047619D01*
X82990476Y-46952380D02*
X83561904Y-46952380D01*
X83276190Y-46952380D02*
X83276190Y-45952380D01*
X83371428Y-46095238D01*
X83466666Y-46190476D01*
X83561904Y-46238095D01*
X82038095Y-46952380D02*
X82609523Y-46952380D01*
X82323809Y-46952380D02*
X82323809Y-45952380D01*
X82419047Y-46095238D01*
X82514285Y-46190476D01*
X82609523Y-46238095D01*
G04 #@! TO.C,C12*
X78007142Y-52757142D02*
X78054761Y-52709523D01*
X78102380Y-52566666D01*
X78102380Y-52471428D01*
X78054761Y-52328571D01*
X77959523Y-52233333D01*
X77864285Y-52185714D01*
X77673809Y-52138095D01*
X77530952Y-52138095D01*
X77340476Y-52185714D01*
X77245238Y-52233333D01*
X77150000Y-52328571D01*
X77102380Y-52471428D01*
X77102380Y-52566666D01*
X77150000Y-52709523D01*
X77197619Y-52757142D01*
X78102380Y-53709523D02*
X78102380Y-53138095D01*
X78102380Y-53423809D02*
X77102380Y-53423809D01*
X77245238Y-53328571D01*
X77340476Y-53233333D01*
X77388095Y-53138095D01*
X77197619Y-54090476D02*
X77150000Y-54138095D01*
X77102380Y-54233333D01*
X77102380Y-54471428D01*
X77150000Y-54566666D01*
X77197619Y-54614285D01*
X77292857Y-54661904D01*
X77388095Y-54661904D01*
X77530952Y-54614285D01*
X78102380Y-54042857D01*
X78102380Y-54661904D01*
G04 #@! TO.C,C13*
X79157142Y-47607142D02*
X79204761Y-47559523D01*
X79252380Y-47416666D01*
X79252380Y-47321428D01*
X79204761Y-47178571D01*
X79109523Y-47083333D01*
X79014285Y-47035714D01*
X78823809Y-46988095D01*
X78680952Y-46988095D01*
X78490476Y-47035714D01*
X78395238Y-47083333D01*
X78300000Y-47178571D01*
X78252380Y-47321428D01*
X78252380Y-47416666D01*
X78300000Y-47559523D01*
X78347619Y-47607142D01*
X79252380Y-48559523D02*
X79252380Y-47988095D01*
X79252380Y-48273809D02*
X78252380Y-48273809D01*
X78395238Y-48178571D01*
X78490476Y-48083333D01*
X78538095Y-47988095D01*
X78252380Y-48892857D02*
X78252380Y-49511904D01*
X78633333Y-49178571D01*
X78633333Y-49321428D01*
X78680952Y-49416666D01*
X78728571Y-49464285D01*
X78823809Y-49511904D01*
X79061904Y-49511904D01*
X79157142Y-49464285D01*
X79204761Y-49416666D01*
X79252380Y-49321428D01*
X79252380Y-49035714D01*
X79204761Y-48940476D01*
X79157142Y-48892857D01*
G04 #@! TO.C,C14*
X86142857Y-63107142D02*
X86190476Y-63154761D01*
X86333333Y-63202380D01*
X86428571Y-63202380D01*
X86571428Y-63154761D01*
X86666666Y-63059523D01*
X86714285Y-62964285D01*
X86761904Y-62773809D01*
X86761904Y-62630952D01*
X86714285Y-62440476D01*
X86666666Y-62345238D01*
X86571428Y-62250000D01*
X86428571Y-62202380D01*
X86333333Y-62202380D01*
X86190476Y-62250000D01*
X86142857Y-62297619D01*
X85190476Y-63202380D02*
X85761904Y-63202380D01*
X85476190Y-63202380D02*
X85476190Y-62202380D01*
X85571428Y-62345238D01*
X85666666Y-62440476D01*
X85761904Y-62488095D01*
X84333333Y-62535714D02*
X84333333Y-63202380D01*
X84571428Y-62154761D02*
X84809523Y-62869047D01*
X84190476Y-62869047D01*
G04 #@! TO.C,C18*
X74373832Y-57564695D02*
X74441176Y-57564695D01*
X74575863Y-57497351D01*
X74643206Y-57430008D01*
X74710550Y-57295321D01*
X74710550Y-57160634D01*
X74676878Y-57059619D01*
X74575863Y-56891260D01*
X74474848Y-56790245D01*
X74306489Y-56689229D01*
X74205474Y-56655558D01*
X74070787Y-56655558D01*
X73936100Y-56722901D01*
X73868756Y-56790245D01*
X73801413Y-56924932D01*
X73801413Y-56992275D01*
X73767741Y-58305474D02*
X74171802Y-57901413D01*
X73969771Y-58103443D02*
X73262664Y-57396336D01*
X73431023Y-57430008D01*
X73565710Y-57430008D01*
X73666726Y-57396336D01*
X72959619Y-58305474D02*
X72993290Y-58204458D01*
X72993290Y-58137115D01*
X72959619Y-58036100D01*
X72925947Y-58002428D01*
X72824932Y-57968756D01*
X72757588Y-57968756D01*
X72656573Y-58002428D01*
X72521886Y-58137115D01*
X72488214Y-58238130D01*
X72488214Y-58305474D01*
X72521886Y-58406489D01*
X72555558Y-58440161D01*
X72656573Y-58473832D01*
X72723916Y-58473832D01*
X72824932Y-58440161D01*
X72959619Y-58305474D01*
X73060634Y-58271802D01*
X73127977Y-58271802D01*
X73228993Y-58305474D01*
X73363680Y-58440161D01*
X73397351Y-58541176D01*
X73397351Y-58608519D01*
X73363680Y-58709535D01*
X73228993Y-58844222D01*
X73127977Y-58877893D01*
X73060634Y-58877893D01*
X72959619Y-58844222D01*
X72824932Y-58709535D01*
X72791260Y-58608519D01*
X72791260Y-58541176D01*
X72824932Y-58440161D01*
G04 #@! TO.C,C10*
X78642857Y-63307142D02*
X78690476Y-63354761D01*
X78833333Y-63402380D01*
X78928571Y-63402380D01*
X79071428Y-63354761D01*
X79166666Y-63259523D01*
X79214285Y-63164285D01*
X79261904Y-62973809D01*
X79261904Y-62830952D01*
X79214285Y-62640476D01*
X79166666Y-62545238D01*
X79071428Y-62450000D01*
X78928571Y-62402380D01*
X78833333Y-62402380D01*
X78690476Y-62450000D01*
X78642857Y-62497619D01*
X77690476Y-63402380D02*
X78261904Y-63402380D01*
X77976190Y-63402380D02*
X77976190Y-62402380D01*
X78071428Y-62545238D01*
X78166666Y-62640476D01*
X78261904Y-62688095D01*
X77071428Y-62402380D02*
X76976190Y-62402380D01*
X76880952Y-62450000D01*
X76833333Y-62497619D01*
X76785714Y-62592857D01*
X76738095Y-62783333D01*
X76738095Y-63021428D01*
X76785714Y-63211904D01*
X76833333Y-63307142D01*
X76880952Y-63354761D01*
X76976190Y-63402380D01*
X77071428Y-63402380D01*
X77166666Y-63354761D01*
X77214285Y-63307142D01*
X77261904Y-63211904D01*
X77309523Y-63021428D01*
X77309523Y-62783333D01*
X77261904Y-62592857D01*
X77214285Y-62497619D01*
X77166666Y-62450000D01*
X77071428Y-62402380D01*
G04 #@! TO.C,C22*
X36642857Y-59207142D02*
X36690476Y-59254761D01*
X36833333Y-59302380D01*
X36928571Y-59302380D01*
X37071428Y-59254761D01*
X37166666Y-59159523D01*
X37214285Y-59064285D01*
X37261904Y-58873809D01*
X37261904Y-58730952D01*
X37214285Y-58540476D01*
X37166666Y-58445238D01*
X37071428Y-58350000D01*
X36928571Y-58302380D01*
X36833333Y-58302380D01*
X36690476Y-58350000D01*
X36642857Y-58397619D01*
X36261904Y-58397619D02*
X36214285Y-58350000D01*
X36119047Y-58302380D01*
X35880952Y-58302380D01*
X35785714Y-58350000D01*
X35738095Y-58397619D01*
X35690476Y-58492857D01*
X35690476Y-58588095D01*
X35738095Y-58730952D01*
X36309523Y-59302380D01*
X35690476Y-59302380D01*
X35309523Y-58397619D02*
X35261904Y-58350000D01*
X35166666Y-58302380D01*
X34928571Y-58302380D01*
X34833333Y-58350000D01*
X34785714Y-58397619D01*
X34738095Y-58492857D01*
X34738095Y-58588095D01*
X34785714Y-58730952D01*
X35357142Y-59302380D01*
X34738095Y-59302380D01*
G04 #@! TO.C,C24*
X41042857Y-37257142D02*
X41090476Y-37304761D01*
X41233333Y-37352380D01*
X41328571Y-37352380D01*
X41471428Y-37304761D01*
X41566666Y-37209523D01*
X41614285Y-37114285D01*
X41661904Y-36923809D01*
X41661904Y-36780952D01*
X41614285Y-36590476D01*
X41566666Y-36495238D01*
X41471428Y-36400000D01*
X41328571Y-36352380D01*
X41233333Y-36352380D01*
X41090476Y-36400000D01*
X41042857Y-36447619D01*
X40661904Y-36447619D02*
X40614285Y-36400000D01*
X40519047Y-36352380D01*
X40280952Y-36352380D01*
X40185714Y-36400000D01*
X40138095Y-36447619D01*
X40090476Y-36542857D01*
X40090476Y-36638095D01*
X40138095Y-36780952D01*
X40709523Y-37352380D01*
X40090476Y-37352380D01*
X39233333Y-36685714D02*
X39233333Y-37352380D01*
X39471428Y-36304761D02*
X39709523Y-37019047D01*
X39090476Y-37019047D01*
G04 #@! TO.C,C26*
X88657142Y-54307142D02*
X88704761Y-54259523D01*
X88752380Y-54116666D01*
X88752380Y-54021428D01*
X88704761Y-53878571D01*
X88609523Y-53783333D01*
X88514285Y-53735714D01*
X88323809Y-53688095D01*
X88180952Y-53688095D01*
X87990476Y-53735714D01*
X87895238Y-53783333D01*
X87800000Y-53878571D01*
X87752380Y-54021428D01*
X87752380Y-54116666D01*
X87800000Y-54259523D01*
X87847619Y-54307142D01*
X87847619Y-54688095D02*
X87800000Y-54735714D01*
X87752380Y-54830952D01*
X87752380Y-55069047D01*
X87800000Y-55164285D01*
X87847619Y-55211904D01*
X87942857Y-55259523D01*
X88038095Y-55259523D01*
X88180952Y-55211904D01*
X88752380Y-54640476D01*
X88752380Y-55259523D01*
X87752380Y-56116666D02*
X87752380Y-55926190D01*
X87800000Y-55830952D01*
X87847619Y-55783333D01*
X87990476Y-55688095D01*
X88180952Y-55640476D01*
X88561904Y-55640476D01*
X88657142Y-55688095D01*
X88704761Y-55735714D01*
X88752380Y-55830952D01*
X88752380Y-56021428D01*
X88704761Y-56116666D01*
X88657142Y-56164285D01*
X88561904Y-56211904D01*
X88323809Y-56211904D01*
X88228571Y-56164285D01*
X88180952Y-56116666D01*
X88133333Y-56021428D01*
X88133333Y-55830952D01*
X88180952Y-55735714D01*
X88228571Y-55688095D01*
X88323809Y-55640476D01*
G04 #@! TO.C,C28*
X84792857Y-52357142D02*
X84840476Y-52404761D01*
X84983333Y-52452380D01*
X85078571Y-52452380D01*
X85221428Y-52404761D01*
X85316666Y-52309523D01*
X85364285Y-52214285D01*
X85411904Y-52023809D01*
X85411904Y-51880952D01*
X85364285Y-51690476D01*
X85316666Y-51595238D01*
X85221428Y-51500000D01*
X85078571Y-51452380D01*
X84983333Y-51452380D01*
X84840476Y-51500000D01*
X84792857Y-51547619D01*
X84411904Y-51547619D02*
X84364285Y-51500000D01*
X84269047Y-51452380D01*
X84030952Y-51452380D01*
X83935714Y-51500000D01*
X83888095Y-51547619D01*
X83840476Y-51642857D01*
X83840476Y-51738095D01*
X83888095Y-51880952D01*
X84459523Y-52452380D01*
X83840476Y-52452380D01*
X83269047Y-51880952D02*
X83364285Y-51833333D01*
X83411904Y-51785714D01*
X83459523Y-51690476D01*
X83459523Y-51642857D01*
X83411904Y-51547619D01*
X83364285Y-51500000D01*
X83269047Y-51452380D01*
X83078571Y-51452380D01*
X82983333Y-51500000D01*
X82935714Y-51547619D01*
X82888095Y-51642857D01*
X82888095Y-51690476D01*
X82935714Y-51785714D01*
X82983333Y-51833333D01*
X83078571Y-51880952D01*
X83269047Y-51880952D01*
X83364285Y-51928571D01*
X83411904Y-51976190D01*
X83459523Y-52071428D01*
X83459523Y-52261904D01*
X83411904Y-52357142D01*
X83364285Y-52404761D01*
X83269047Y-52452380D01*
X83078571Y-52452380D01*
X82983333Y-52404761D01*
X82935714Y-52357142D01*
X82888095Y-52261904D01*
X82888095Y-52071428D01*
X82935714Y-51976190D01*
X82983333Y-51928571D01*
X83078571Y-51880952D01*
G04 #@! TO.C,Q1*
X24847619Y-57804761D02*
X24800000Y-57709523D01*
X24704761Y-57614285D01*
X24561904Y-57471428D01*
X24514285Y-57376190D01*
X24514285Y-57280952D01*
X24752380Y-57328571D02*
X24704761Y-57233333D01*
X24609523Y-57138095D01*
X24419047Y-57090476D01*
X24085714Y-57090476D01*
X23895238Y-57138095D01*
X23800000Y-57233333D01*
X23752380Y-57328571D01*
X23752380Y-57519047D01*
X23800000Y-57614285D01*
X23895238Y-57709523D01*
X24085714Y-57757142D01*
X24419047Y-57757142D01*
X24609523Y-57709523D01*
X24704761Y-57614285D01*
X24752380Y-57519047D01*
X24752380Y-57328571D01*
X24752380Y-58709523D02*
X24752380Y-58138095D01*
X24752380Y-58423809D02*
X23752380Y-58423809D01*
X23895238Y-58328571D01*
X23990476Y-58233333D01*
X24038095Y-58138095D01*
G04 #@! TO.C,R9*
X37766666Y-55802380D02*
X38100000Y-55326190D01*
X38338095Y-55802380D02*
X38338095Y-54802380D01*
X37957142Y-54802380D01*
X37861904Y-54850000D01*
X37814285Y-54897619D01*
X37766666Y-54992857D01*
X37766666Y-55135714D01*
X37814285Y-55230952D01*
X37861904Y-55278571D01*
X37957142Y-55326190D01*
X38338095Y-55326190D01*
X37290476Y-55802380D02*
X37100000Y-55802380D01*
X37004761Y-55754761D01*
X36957142Y-55707142D01*
X36861904Y-55564285D01*
X36814285Y-55373809D01*
X36814285Y-54992857D01*
X36861904Y-54897619D01*
X36909523Y-54850000D01*
X37004761Y-54802380D01*
X37195238Y-54802380D01*
X37290476Y-54850000D01*
X37338095Y-54897619D01*
X37385714Y-54992857D01*
X37385714Y-55230952D01*
X37338095Y-55326190D01*
X37290476Y-55373809D01*
X37195238Y-55421428D01*
X37004761Y-55421428D01*
X36909523Y-55373809D01*
X36861904Y-55326190D01*
X36814285Y-55230952D01*
G04 #@! TO.C,R7*
X62366666Y-54002380D02*
X62700000Y-53526190D01*
X62938095Y-54002380D02*
X62938095Y-53002380D01*
X62557142Y-53002380D01*
X62461904Y-53050000D01*
X62414285Y-53097619D01*
X62366666Y-53192857D01*
X62366666Y-53335714D01*
X62414285Y-53430952D01*
X62461904Y-53478571D01*
X62557142Y-53526190D01*
X62938095Y-53526190D01*
X62033333Y-53002380D02*
X61366666Y-53002380D01*
X61795238Y-54002380D01*
G04 #@! TO.C,R5*
X60454458Y-50468756D02*
X60353443Y-49896336D01*
X60858519Y-50064695D02*
X60151413Y-49357588D01*
X59882038Y-49626962D01*
X59848367Y-49727977D01*
X59848367Y-49795321D01*
X59882038Y-49896336D01*
X59983054Y-49997351D01*
X60084069Y-50031023D01*
X60151413Y-50031023D01*
X60252428Y-49997351D01*
X60521802Y-49727977D01*
X59107588Y-50401413D02*
X59444306Y-50064695D01*
X59814695Y-50367741D01*
X59747351Y-50367741D01*
X59646336Y-50401413D01*
X59477977Y-50569771D01*
X59444306Y-50670787D01*
X59444306Y-50738130D01*
X59477977Y-50839145D01*
X59646336Y-51007504D01*
X59747351Y-51041176D01*
X59814695Y-51041176D01*
X59915710Y-51007504D01*
X60084069Y-50839145D01*
X60117741Y-50738130D01*
X60117741Y-50670787D01*
G04 #@! TD*
M02*
