M48
;DRILL file {KiCad 5.0.2+dfsg1-1} date Sun 15 Mar 2020 06:18:11 PM EDT
;FORMAT={-:-/ absolute / inch / decimal}
FMAT,2
INCH,TZ
T1C0.0157
T2C0.0236
T3C0.0394
T4C0.0709
T5C0.0256
T6C0.0390
T7C0.1181
T8C0.1260
%
G90
G05
T1
X0.9567Y-1.874
X1.1063Y-2.1654
X1.1319Y-2.9331
X1.1339Y-2.1969
X1.1457Y-2.2953
X1.1457Y-2.3346
X1.1693Y-2.8386
X1.2244Y-2.9331
X1.2559Y-2.1142
X1.2953Y-1.9724
X1.3189Y-2.2776
X1.3228Y-2.2323
X1.3425Y-2.4055
X1.3465Y-2.5236
X1.4232Y-2.1693
X1.4331Y-2.0512
X1.471Y-1.9956
X1.4724Y-2.0354
X1.5108Y-1.8181
X1.5315Y-2.1693
X1.5335Y-2.3963
X1.563Y-1.8543
X1.5748Y-1.815
X1.5827Y-1.9685
X1.5835Y-2.3963
X1.5835Y-2.4463
X1.5984Y-2.1575
X1.622Y-1.8228
X1.622Y-2.1909
X1.626Y-1.9724
X1.6335Y-2.4463
X1.6346Y-2.0137
X1.6398Y-2.5709
X1.6752Y-2.5709
X1.6811Y-2.2795
X1.7087Y-2.5709
X1.7795Y-2.3228
X1.8543Y-2.2559
X1.8976Y-2.0315
X1.939Y-2.2756
X1.9685Y-1.5866
X1.9685Y-1.6811
X1.9685Y-2.815
X1.9685Y-2.9094
X1.9744Y-2.0413
X1.9823Y-2.2953
X2.0472Y-2.1969
X2.0846Y-2.561
X2.2047Y-2.1575
X2.2874Y-2.1929
X2.3169Y-1.9882
X2.4154Y-2.1378
X2.4567Y-1.9862
X2.4803Y-2.2126
X2.4921Y-2.315
X2.5335Y-2.0177
X2.5591Y-2.0492
X2.5728Y-2.1063
X2.5827Y-2.3543
X2.626Y-2.9409
X2.6299Y-2.3789
X2.6811Y-1.6772
X2.6811Y-2.4173
X2.7205Y-2.0157
X2.7205Y-2.4439
X2.7362Y-2.7106
X2.7539Y-2.248
X2.7677Y-2.2087
X2.7717Y-2.311
X2.7992Y-2.1772
X2.8701Y-2.3937
X2.9094Y-2.0669
X2.9094Y-2.4567
X2.9921Y-1.9843
X2.9921Y-2.0256
X2.9921Y-2.5433
X3.0118Y-2.311
X3.1457Y-2.6969
X3.1654Y-1.813
X3.2165Y-2.7657
X3.2205Y-2.9094
X3.2677Y-2.7323
X3.2756Y-1.5787
X3.2835Y-2.9311
X3.3622Y-1.8937
X3.3858Y-2.0394
X3.4213Y-2.0394
X3.4528Y-2.5335
X3.4921Y-2.5157
X3.5157Y-2.1614
X3.5157Y-2.1941
X3.5157Y-2.2264
X3.5551Y-2.0748
X3.5787Y-2.4213
X3.5894Y-1.6378
X3.5894Y-1.6732
X3.5894Y-1.7075
X3.6732Y-2.3346
X3.6811Y-2.2126
X3.685Y-2.7618
X3.7717Y-1.5787
X3.7717Y-1.6732
X3.7717Y-2.8268
X3.7717Y-2.9213
X3.8031Y-2.6575
X3.937Y-1.9685
X4.2992Y-2.2598
X4.3937Y-2.2598
T3
X1.2717Y-1.2386
X1.2717Y-1.3386
X1.3717Y-1.2386
X1.3717Y-1.3386
X1.4717Y-1.2386
X1.4717Y-1.3386
X1.5717Y-1.2386
X1.5717Y-1.3386
X1.6717Y-1.2386
X1.6717Y-1.3386
X1.7717Y-1.2386
X1.7717Y-1.3386
X3.9717Y-3.1614
X3.9717Y-3.2614
X4.0717Y-3.1614
X4.0717Y-3.2614
X4.1717Y-3.1614
X4.1717Y-3.2614
X4.2717Y-3.1614
X4.2717Y-3.2614
X4.3717Y-3.1614
X4.3717Y-3.2614
X4.4717Y-3.1614
X4.4717Y-3.2614
X2.1717Y-3.1614
X2.1717Y-3.2614
X2.2717Y-3.1614
X2.2717Y-3.2614
X2.3717Y-3.1614
X2.3717Y-3.2614
X2.4717Y-3.1614
X2.4717Y-3.2614
X2.5717Y-3.1614
X2.5717Y-3.2614
X2.6717Y-3.1614
X2.6717Y-3.2614
X2.1717Y-1.2386
X2.1717Y-1.3386
X2.2717Y-1.2386
X2.2717Y-1.3386
X2.3717Y-1.2386
X2.3717Y-1.3386
X2.4717Y-1.2386
X2.4717Y-1.3386
X2.5717Y-1.2386
X2.5717Y-1.3386
X2.6717Y-1.2386
X2.6717Y-1.3386
X4.6772Y-1.5512
X4.6772Y-1.6512
X4.6772Y-1.7512
X4.6772Y-1.8512
X4.6772Y-1.9512
X4.6772Y-2.0512
X4.7772Y-1.5512
X4.7772Y-1.6512
X4.7772Y-1.7512
X4.7772Y-1.8512
X4.7772Y-1.9512
X4.7772Y-2.0512
X4.6772Y-2.4512
X4.6772Y-2.5512
X4.6772Y-2.6512
X4.6772Y-2.7512
X4.6772Y-2.8512
X4.6772Y-2.9512
X4.7772Y-2.4512
X4.7772Y-2.5512
X4.7772Y-2.6512
X4.7772Y-2.7512
X4.7772Y-2.8512
X4.7772Y-2.9512
X3.0717Y-3.1614
X3.0717Y-3.2614
X3.1717Y-3.1614
X3.1717Y-3.2614
X3.2717Y-3.1614
X3.2717Y-3.2614
X3.3717Y-3.1614
X3.3717Y-3.2614
X3.4717Y-3.1614
X3.4717Y-3.2614
X3.5717Y-3.1614
X3.5717Y-3.2614
X3.0717Y-1.2386
X3.0717Y-1.3386
X3.1717Y-1.2386
X3.1717Y-1.3386
X3.2717Y-1.2386
X3.2717Y-1.3386
X3.3717Y-1.2386
X3.3717Y-1.3386
X3.4717Y-1.2386
X3.4717Y-1.3386
X3.5717Y-1.2386
X3.5717Y-1.3386
X3.9717Y-1.2386
X3.9717Y-1.3386
X4.0717Y-1.2386
X4.0717Y-1.3386
X4.1717Y-1.2386
X4.1717Y-1.3386
X4.2717Y-1.2386
X4.2717Y-1.3386
X4.3717Y-1.2386
X4.3717Y-1.3386
X4.4717Y-1.2386
X4.4717Y-1.3386
X1.2717Y-3.1614
X1.2717Y-3.2614
X1.3717Y-3.1614
X1.3717Y-3.2614
X1.4717Y-3.1614
X1.4717Y-3.2614
X1.5717Y-3.1614
X1.5717Y-3.2614
X1.6717Y-3.1614
X1.6717Y-3.2614
X1.7717Y-3.1614
X1.7717Y-3.2614
T4
X1.4685Y-2.6772
X1.685Y-2.6772
T5
X1.1528Y-2.15
X1.1528Y-2.3776
T6
X1.3835Y-2.3813
X1.3835Y-2.4613
X1.6835Y-2.4213
T7
X1.1811Y-2.6772
X1.1811Y-2.6772
T8
X1.063Y-3.189
X1.063Y-1.3386
X4.685Y-3.189
X4.685Y-1.3386
T2
X1.0236Y-2.0937G85X0.9921Y-2.0937
G05
X1.0236Y-2.4339G85X0.9921Y-2.4339
G05
X1.1941Y-2.0937G85X1.1508Y-2.0937
G05
X1.1949Y-2.4339G85X1.1516Y-2.4339
G05
T0
M30
